<svg version="1.1" viewBox="0.0 0.0 616.7270341207349 714.7296587926509" fill="none" stroke="none" stroke-linecap="square" stroke-miterlimit="10" xmlns:xlink="http://www.w3.org/1999/xlink" xmlns="http://www.w3.org/2000/svg"><clipPath id="p.0"><path d="m0 0l616.72705 0l0 714.7297l-616.72705 0l0 -714.7297z" clip-rule="nonzero"/></clipPath><g clip-path="url(#p.0)"><path fill="#000000" fill-opacity="0.0" d="m0 0l616.72705 0l0 714.7297l-616.72705 0z" fill-rule="evenodd"/><path fill="#cfe2f3" d="m77.66404 52.240158l239.3071 0l0 143.37007l-239.3071 0z" fill-rule="evenodd"/><path stroke="#000000" stroke-width="3.0" stroke-linejoin="round" stroke-linecap="butt" d="m77.66404 52.240158l239.3071 0l0 143.37007l-239.3071 0z" fill-rule="evenodd"/><path fill="#000000" fill-opacity="0.0" d="m95.585304 80.69685l203.46457 0l0 86.456696l-203.46457 0z" fill-rule="evenodd"/><path fill="#000000" d="m131.95065 108.353325q2.375 0.984375 3.28125 2.03125q0.90625 1.03125 0.90625 2.609375q0 1.21875 -0.609375 2.3125q-0.59375 1.09375 -1.84375 1.796875q-1.25 0.6875 -3.09375 0.6875q-3.21875 0 -5.1875 -2.109375l0.953125 -1.671875l0 -0.03125q0.03125 0 0.03125 0.015625q0 0.015625 0 0.015625q0.71875 0.953125 1.84375 1.53125q1.140625 0.578125 2.625 0.578125q1.46875 0 2.453125 -0.828125q1.0 -0.828125 1.0 -2.03125q0 -0.765625 -0.3125 -1.28125q-0.3125 -0.53125 -1.109375 -1.03125q-0.796875 -0.515625 -2.390625 -1.203125q-2.453125 -0.96875 -3.515625 -2.1875q-1.046875 -1.234375 -1.046875 -2.75q0 -1.859375 1.359375 -2.96875q1.359375 -1.125 3.703125 -1.125q1.359375 0 2.546875 0.546875q1.1875 0.53125 2.0625 1.53125l-1.03125 1.375l-0.03125 0.03125q-0.796875 -1.09375 -1.671875 -1.515625q-0.859375 -0.4375 -2.171875 -0.4375q-1.28125 0 -2.0625 0.71875q-0.78125 0.703125 -0.78125 1.71875q0 0.765625 0.328125 1.34375q0.328125 0.578125 1.203125 1.125q0.890625 0.53125 2.5625 1.203125zm2.296875 -4.109375q0 -0.078125 0.109375 -0.015625q0.109375 0.046875 0.125 0.046875l-0.078125 0.109375l-0.15625 -0.109375l0 -0.03125zm0.296875 -0.046875q0.15625 0.21875 0.0625 0.15625q-0.09375 -0.078125 -0.125 -0.078125l0.0625 -0.078125zm-7.890625 9.703125q0 0.078125 -0.109375 0.03125q-0.109375 -0.0625 -0.125 -0.0625l0.046875 -0.109375l0.1875 0.109375l0 0.03125zm-0.296875 0.078125q-0.15625 -0.21875 0.0625 -0.109375l-0.0625 0.109375zm17.64058 3.765625q-1.625 0 -2.90625 -0.796875q-1.265625 -0.8125 -1.984375 -2.25q-0.71875 -1.4375 -0.71875 -3.28125q0 -1.828125 0.71875 -3.265625q0.71875 -1.453125 1.984375 -2.265625q1.28125 -0.8125 2.90625 -0.8125q1.640625 0 2.90625 0.8125q1.28125 0.8125 2.0 2.265625q0.71875 1.4375 0.71875 3.265625q0 1.84375 -0.71875 3.28125q-0.71875 1.4375 -2.0 2.25q-1.265625 0.796875 -2.90625 0.796875zm0 -1.609375q1.046875 0 1.859375 -0.609375q0.8125 -0.609375 1.28125 -1.6875q0.46875 -1.078125 0.46875 -2.4375q0 -2.078125 -1.015625 -3.390625q-1.015625 -1.328125 -2.59375 -1.328125q-1.5625 0 -2.578125 1.328125q-1.015625 1.3125 -1.015625 3.390625q0 1.359375 0.46875 2.4375q0.46875 1.078125 1.28125 1.6875q0.8125 0.609375 1.84375 0.609375zm12.562454 1.6875q-1.921875 0 -3.078125 -1.421875q-1.140625 -1.4375 -1.109375 -4.265625l0.03125 -6.796875l1.859375 0l0 6.796875q0 2.1875 0.765625 3.171875q0.765625 0.96875 2.015625 0.96875q1.375 0 2.328125 -1.078125q0.953125 -1.078125 0.953125 -3.140625l0 -6.71875l1.859375 0l0 10.296875q0 0.640625 0.03125 1.0625q0.046875 0.40625 0.234375 0.828125l-1.84375 0q-0.1875 -0.40625 -0.234375 -0.828125q-0.03125 -0.421875 -0.03125 -1.03125q-0.578125 1.0 -1.578125 1.578125q-1.0 0.578125 -2.203125 0.578125zm18.79683 -9.953125l0 0.03125q-0.78125 -0.71875 -1.296875 -0.953125q-0.515625 -0.25 -1.21875 -0.25q-0.953125 0 -1.8125 0.484375q-0.84375 0.484375 -1.375 1.453125q-0.53125 0.96875 -0.53125 2.4375l0 6.484375l-1.953125 0l0 -12.21875l2.0 0l-0.046875 2.25q0.5 -1.203125 1.546875 -1.859375q1.0625 -0.671875 2.3125 -0.671875q1.9375 0 3.21875 1.328125l-0.84375 1.484375zm0 0.03125q0.1875 0.15625 0.09375 0.140625q-0.09375 -0.03125 -0.15625 -0.0625l0.0625 -0.078125zm-0.296875 0.078125q0 -0.078125 0.078125 -0.0625q0.078125 0.015625 0.15625 0.0625l-0.046875 0.140625l-0.1875 -0.109375l0 -0.03125zm9.968704 8.109375q1.84375 0 3.171875 -1.5l1.125 1.3125q-1.796875 1.921875 -4.40625 1.921875q-1.75 0 -3.140625 -0.828125q-1.390625 -0.828125 -2.171875 -2.28125q-0.78125 -1.453125 -0.78125 -3.265625q0 -1.8125 0.78125 -3.25q0.78125 -1.4375 2.171875 -2.265625q1.390625 -0.828125 3.125 -0.828125q1.453125 0 2.65625 0.609375q1.203125 0.59375 1.953125 1.65625l-1.203125 1.171875l-0.03125 0.03125q-0.765625 -1.015625 -1.578125 -1.421875q-0.8125 -0.421875 -2.015625 -0.421875q-1.046875 0 -1.9375 0.578125q-0.890625 0.5625 -1.421875 1.609375q-0.53125 1.03125 -0.53125 2.40625q0 1.359375 0.546875 2.453125q0.546875 1.078125 1.515625 1.703125q0.96875 0.609375 2.171875 0.609375zm2.953125 -7.5q0 -0.15625 0.25 0.03125l-0.109375 0.109375l-0.140625 -0.140625zm0.296875 -0.015625q0.140625 0.1875 0.0625 0.140625q-0.0625 -0.0625 -0.109375 -0.09375l0.046875 -0.046875zm9.624954 9.21875q-2.71875 0 -4.328125 -1.640625q-1.609375 -1.65625 -1.609375 -4.671875q0 -2.0 0.734375 -3.453125q0.75 -1.453125 2.015625 -2.203125q1.265625 -0.765625 2.84375 -0.765625q2.203125 0 3.578125 1.46875q1.375 1.453125 1.375 4.3125q0 0.296875 -0.046875 0.875l-8.671875 0q0.109375 2.234375 1.25 3.390625q1.15625 1.140625 2.90625 1.140625q1.921875 0 3.15625 -1.359375l1.0625 1.046875q-1.546875 1.859375 -4.265625 1.859375zm2.671875 -7.5625q0 -1.71875 -0.875 -2.71875q-0.859375 -1.0 -2.28125 -1.0q-1.328125 0 -2.3125 0.9375q-0.984375 0.9375 -1.234375 2.78125l6.703125 0zm24.437393 5.859375q1.84375 0 3.171875 -1.5l1.125 1.3125q-1.796875 1.921875 -4.40625 1.921875q-1.7499847 0 -3.1406097 -0.828125q-1.390625 -0.828125 -2.171875 -2.28125q-0.78125 -1.453125 -0.78125 -3.265625q0 -1.8125 0.78125 -3.25q0.78125 -1.4375 2.171875 -2.265625q1.390625 -0.828125 3.1249847 -0.828125q1.453125 0 2.65625 0.609375q1.203125 0.59375 1.953125 1.65625l-1.203125 1.171875l-0.03125 0.03125q-0.765625 -1.015625 -1.578125 -1.421875q-0.8125 -0.421875 -2.015625 -0.421875q-1.046875 0 -1.9374847 0.578125q-0.890625 0.5625 -1.421875 1.609375q-0.53125 1.03125 -0.53125 2.40625q0 1.359375 0.546875 2.453125q0.546875 1.078125 1.515625 1.703125q0.96873474 0.609375 2.1718597 0.609375zm2.953125 -7.5q0 -0.15625 0.25 0.03125l-0.109375 0.109375l-0.140625 -0.140625zm0.296875 -0.015625q0.140625 0.1875 0.0625 0.140625q-0.0625 -0.0625 -0.109375 -0.09375l0.046875 -0.046875zm9.0312195 9.171875q-1.625 0 -2.90625 -0.796875q-1.265625 -0.8125 -1.984375 -2.25q-0.71875 -1.4375 -0.71875 -3.28125q0 -1.828125 0.71875 -3.265625q0.71875 -1.453125 1.984375 -2.265625q1.28125 -0.8125 2.90625 -0.8125q1.640625 0 2.90625 0.8125q1.28125 0.8125 2.0 2.265625q0.71875 1.4375 0.71875 3.265625q0 1.84375 -0.71875 3.28125q-0.71875 1.4375 -2.0 2.25q-1.265625 0.796875 -2.90625 0.796875zm0 -1.609375q1.046875 0 1.859375 -0.609375q0.8125 -0.609375 1.28125 -1.6875q0.46875 -1.078125 0.46875 -2.4375q0 -2.078125 -1.015625 -3.390625q-1.015625 -1.328125 -2.59375 -1.328125q-1.5625 0 -2.578125 1.328125q-1.015625 1.3125 -1.015625 3.390625q0 1.359375 0.46875 2.4375q0.46875 1.078125 1.28125 1.6875q0.8125 0.609375 1.84375 0.609375zm12.906189 1.65625q-1.296875 0 -2.453125 -0.734375q-1.140625 -0.734375 -1.859375 -2.1875q-0.71875 -1.46875 -0.71875 -3.546875q0 -2.109375 0.734375 -3.515625q0.75 -1.421875 1.921875 -2.09375q1.171875 -0.6875 2.484375 -0.6875q1.234375 0 2.140625 0.5625q0.921875 0.5625 1.40625 1.546875l0 -7.328125l2.03125 0l0 0.171875q-0.171875 0.171875 -0.21875 0.359375q-0.03125 0.1875 -0.03125 0.640625l0.03125 14.65625q0 0.640625 0.03125 1.0625q0.046875 0.40625 0.234375 0.828125l-1.890625 0q-0.1875 -0.421875 -0.234375 -0.828125q-0.03125 -0.421875 -0.03125 -1.0625q-0.59375 1.015625 -1.515625 1.59375q-0.90625 0.5625 -2.0625 0.5625zm0.296875 -1.671875q1.65625 0 2.421875 -1.3125q0.78125 -1.3125 0.78125 -3.4375q0 -2.15625 -0.84375 -3.453125q-0.84375 -1.3125 -2.515625 -1.3125q-1.609375 0 -2.46875 1.1875q-0.84375 1.171875 -0.84375 3.234375q0 2.34375 0.890625 3.71875q0.890625 1.375 2.578125 1.375zm14.0468445 1.671875q-2.71875 0 -4.328125 -1.640625q-1.609375 -1.65625 -1.609375 -4.671875q0 -2.0 0.734375 -3.453125q0.75 -1.453125 2.015625 -2.203125q1.265625 -0.765625 2.84375 -0.765625q2.203125 0 3.578125 1.46875q1.375 1.453125 1.375 4.3125q0 0.296875 -0.046875 0.875l-8.671875 0q0.109375 2.234375 1.25 3.390625q1.15625 1.140625 2.90625 1.140625q1.921875 0 3.15625 -1.359375l1.0625 1.046875q-1.546875 1.859375 -4.265625 1.859375zm2.671875 -7.5625q0 -1.71875 -0.875 -2.71875q-0.859375 -1.0 -2.28125 -1.0q-1.328125 0 -2.3125 0.9375q-0.984375 0.9375 -1.234375 2.78125l6.703125 0z" fill-rule="nonzero"/><path fill="#000000" d="m174.52864 154.16582q-2.1875 -1.015625 -3.84375 -2.78125q-1.65625 -1.75 -2.546875 -3.953125q-0.890625 -2.21875 -0.890625 -4.5625q0 -2.359375 0.875 -4.515625q0.890625 -2.15625 2.5 -3.84375q1.609375 -1.703125 3.75 -2.703125l0.5 1.640625q-2.609375 1.421875 -4.171875 3.984375q-1.5625 2.546875 -1.5625 5.515625q0 2.984375 1.59375 5.59375q1.609375 2.609375 4.296875 4.015625l-0.5 1.609375zm9.140579 -4.34375q-0.640625 0 -1.09375 -0.453125q-0.453125 -0.453125 -0.453125 -1.0625q0 -0.625 0.453125 -1.078125q0.453125 -0.453125 1.09375 -0.453125q0.609375 0 1.0625 0.453125q0.453125 0.453125 0.453125 1.078125q0 0.609375 -0.453125 1.0625q-0.453125 0.453125 -1.0625 0.453125zm8.578079 -12.484375l1.953125 0l0 2.40625q0.390625 -1.328125 1.375 -2.0q1.0 -0.671875 2.328125 -0.671875q1.390625 0 2.546875 0.71875q1.15625 0.703125 1.84375 2.125q0.703125 1.40625 0.703125 3.421875q0 2.0625 -0.71875 3.546875q-0.71875 1.46875 -1.90625 2.21875q-1.1875 0.734375 -2.515625 0.734375q-1.09375 0 -2.0625 -0.5q-0.953125 -0.5 -1.5625 -1.40625l0 6.046875l-1.984375 0l0 -16.640625zm5.28125 10.796875q1.46875 0 2.46875 -1.09375q1.0 -1.109375 1.0 -3.625q0 -2.265625 -0.890625 -3.46875q-0.875 -1.21875 -2.5 -1.21875q-1.515625 0 -2.46875 1.265625q-0.9375 1.265625 -0.9375 3.859375q0.046875 2.09375 0.921875 3.1875q0.890625 1.09375 2.40625 1.09375zm18.26558 -10.796875q-0.15625 1.09375 -0.5 2.171875q-0.328125 1.0625 -0.9375 2.8125l-3.046875 8.59375q-0.609375 1.703125 -1.59375 2.46875q-0.984375 0.78125 -2.34375 0.78125q-1.71875 0 -2.796875 -1.046875l0.8125 -1.296875l0.03125 -0.03125l0.03125 0.03125q0.421875 0.390625 0.90625 0.578125q0.484375 0.1875 1.109375 0.1875q1.0 0 1.578125 -0.703125q0.59375 -0.6875 1.140625 -2.28125l-4.984375 -12.265625l2.0 0l3.796875 9.765625l1.59375 -4.90625q0.59375 -1.84375 0.859375 -2.8125q0.28125 -0.96875 0.421875 -2.046875l1.921875 0zm-10.078125 14.375q0 0.046875 -0.0625 0.046875l-0.203125 -0.046875l0.109375 -0.140625l0.15625 0.109375l0 0.03125zm-0.296875 0.078125q-0.125 -0.140625 -0.0625 -0.109375q0.0625 0.03125 0.09375 0.03125l-0.03125 0.078125zm14.921829 0.765625q2.703125 -1.40625 4.2968597 -4.015625q1.609375 -2.609375 1.609375 -5.59375q0 -2.96875 -1.5625 -5.515625q-1.5624847 -2.5625 -4.1718597 -3.984375l0.5 -1.640625q2.140625 1.0 3.7499847 2.703125q1.609375 1.6875 2.484375 3.84375q0.890625 2.15625 0.890625 4.515625q0 2.34375 -0.90625 4.5625q-0.890625 2.203125 -2.546875 3.953125q-1.6406097 1.765625 -3.8281097 2.78125l-0.515625 -1.609375z" fill-rule="nonzero"/><path fill="#cfe2f3" d="m77.66404 289.6181l239.3071 0l0 143.37009l-239.3071 0z" fill-rule="evenodd"/><path stroke="#000000" stroke-width="3.0" stroke-linejoin="round" stroke-linecap="butt" d="m77.66404 289.6181l239.3071 0l0 143.37009l-239.3071 0z" fill-rule="evenodd"/><path fill="#000000" fill-opacity="0.0" d="m95.585304 318.0748l203.46457 0l0 86.456696l-203.46457 0z" fill-rule="evenodd"/><path fill="#000000" d="m145.28651 338.29376l4.71875 0q2.765625 0 4.140625 1.078125q1.375 1.078125 1.375 2.953125q0 1.21875 -0.65625 2.25q-0.65625 1.03125 -1.796875 1.421875q1.390625 0.484375 2.25 1.671875q0.875 1.1875 0.875 2.5625q0 2.1875 -1.546875 3.4375q-1.546875 1.234375 -4.671875 1.234375l-4.6875 0l0 -16.609375zm4.453125 6.875q3.921875 0 3.921875 -2.640625q0 -1.1875 -0.890625 -1.921875q-0.875 -0.734375 -2.734375 -0.734375l-2.90625 0l0 5.296875l2.609375 0zm0.5625 8.109375q3.90625 0 3.90625 -3.140625q0 -3.390625 -4.359375 -3.390625l-2.71875 0l0 6.53125l3.171875 0zm18.843704 -10.5625q-0.15625 1.09375 -0.5 2.171875q-0.328125 1.0625 -0.9375 2.8125l-3.046875 8.59375q-0.609375 1.703125 -1.59375 2.46875q-0.984375 0.78125 -2.34375 0.78125q-1.71875 0 -2.796875 -1.046875l0.8125 -1.296875l0.03125 -0.03125l0.03125 0.03125q0.421875 0.390625 0.90625 0.578125q0.484375 0.1875 1.109375 0.1875q1.0 0 1.578125 -0.703125q0.59375 -0.6875 1.140625 -2.28125l-4.984375 -12.265625l2.0 0l3.796875 9.765625l1.59375 -4.90625q0.59375 -1.84375 0.859375 -2.8125q0.28125 -0.96875 0.421875 -2.046875l1.921875 0zm-10.078125 14.375q0 0.046875 -0.0625 0.046875l-0.203125 -0.046875l0.109375 -0.140625l0.15625 0.109375l0 0.03125zm-0.296875 0.078125q-0.125 -0.140625 -0.0625 -0.109375q0.0625 0.03125 0.09375 0.03125l-0.03125 0.078125zm23.718704 -3.390625q-1.75 1.3125 -3.859375 1.3125q-2.03125 0 -2.875 -1.21875q-0.828125 -1.234375 -0.828125 -4.0q0 -0.453125 0.046875 -1.578125l0.25 -4.0l-2.703125 0l0 -1.578125l2.8125 0l0.171875 -3.25l2.140625 -0.34375l0.265625 -0.03125l0.03125 0.171875q-0.1875 0.265625 -0.28125 0.453125q-0.09375 0.1875 -0.125 0.578125l-0.296875 2.421875l4.0625 0l0 1.578125l-4.15625 0l-0.25 4.125q-0.046875 1.078125 -0.046875 1.421875q0 2.125 0.484375 2.890625q0.5 0.765625 1.59375 0.765625q0.796875 0 1.453125 -0.296875q0.671875 -0.296875 1.53125 -0.9375l0.578125 1.515625zm8.749954 1.390625q-2.71875 0 -4.328125 -1.640625q-1.609375 -1.65625 -1.609375 -4.671875q0 -2.0 0.734375 -3.453125q0.75 -1.453125 2.015625 -2.203125q1.265625 -0.765625 2.84375 -0.765625q2.203125 0 3.578125 1.46875q1.375 1.453125 1.375 4.3125q0 0.296875 -0.046875 0.875l-8.671875 0q0.109375 2.234375 1.25 3.390625q1.15625 1.140625 2.90625 1.140625q1.921875 0 3.15625 -1.359375l1.0625 1.046875q-1.546875 1.859375 -4.265625 1.859375zm2.671875 -7.5625q0 -1.71875 -0.875 -2.71875q-0.859375 -1.0 -2.28125 -1.0q-1.328125 0 -2.3125 0.9375q-0.984375 0.9375 -1.234375 2.78125l6.703125 0zm11.109329 5.859375q1.84375 0 3.171875 -1.5l1.125 1.3125q-1.796875 1.921875 -4.40625 1.921875q-1.75 0 -3.140625 -0.828125q-1.390625 -0.828125 -2.171875 -2.28125q-0.78125 -1.453125 -0.78125 -3.265625q0 -1.8125 0.78125 -3.25q0.78125 -1.4375 2.171875 -2.265625q1.390625 -0.828125 3.125 -0.828125q1.453125 0 2.65625 0.609375q1.203125 0.59375 1.953125 1.65625l-1.203125 1.171875l-0.03125 0.03125q-0.765625 -1.015625 -1.578125 -1.421875q-0.8125 -0.421875 -2.015625 -0.421875q-1.046875 0 -1.9375 0.578125q-0.890625 0.5625 -1.421875 1.609375q-0.53125 1.03125 -0.53125 2.40625q0 1.359375 0.546875 2.453125q0.546875 1.078125 1.515625 1.703125q0.96875 0.609375 2.171875 0.609375zm2.953125 -7.5q0 -0.15625 0.25 0.03125l-0.109375 0.109375l-0.140625 -0.140625zm0.296875 -0.015625q0.140625 0.1875 0.0625 0.140625q-0.0625 -0.0625 -0.109375 -0.09375l0.046875 -0.046875zm9.031204 9.171875q-1.625 0 -2.90625 -0.796875q-1.265625 -0.8125 -1.984375 -2.25q-0.71875 -1.4375 -0.71875 -3.28125q0 -1.828125 0.71875 -3.265625q0.71875 -1.453125 1.984375 -2.265625q1.28125 -0.8125 2.90625 -0.8125q1.640625 0 2.90625 0.8125q1.28125 0.8125 2.0 2.265625q0.71875 1.4375 0.71875 3.265625q0 1.84375 -0.71875 3.28125q-0.71875 1.4375 -2.0 2.25q-1.265625 0.796875 -2.90625 0.796875zm0 -1.609375q1.046875 0 1.859375 -0.609375q0.8125 -0.609375 1.28125 -1.6875q0.46875 -1.078125 0.46875 -2.4375q0 -2.078125 -1.015625 -3.390625q-1.015625 -1.328125 -2.59375 -1.328125q-1.5625 0 -2.578125 1.328125q-1.015625 1.3125 -1.015625 3.390625q0 1.359375 0.46875 2.4375q0.46875 1.078125 1.28125 1.6875q0.8125 0.609375 1.84375 0.609375zm12.906204 1.65625q-1.296875 0 -2.453125 -0.734375q-1.140625 -0.734375 -1.859375 -2.1875q-0.71875 -1.46875 -0.71875 -3.546875q0 -2.109375 0.734375 -3.515625q0.75 -1.421875 1.921875 -2.09375q1.171875 -0.6875 2.484375 -0.6875q1.234375 0 2.140625 0.5625q0.921875 0.5625 1.40625 1.546875l0 -7.328125l2.03125 0l0 0.171875q-0.171875 0.171875 -0.21875 0.359375q-0.03125 0.1875 -0.03125 0.640625l0.03125 14.65625q0 0.640625 0.03125 1.0625q0.046875 0.40625 0.234375 0.828125l-1.890625 0q-0.1875 -0.421875 -0.234375 -0.828125q-0.03125 -0.421875 -0.03125 -1.0625q-0.59375 1.015625 -1.515625 1.59375q-0.90625 0.5625 -2.0625 0.5625zm0.296875 -1.671875q1.65625 0 2.421875 -1.3125q0.78125 -1.3125 0.78125 -3.4375q0 -2.15625 -0.84375 -3.453125q-0.84375 -1.3125 -2.515625 -1.3125q-1.609375 0 -2.46875 1.1875q-0.84375 1.171875 -0.84375 3.234375q0 2.34375 0.890625 3.71875q0.890625 1.375 2.578125 1.375zm14.046829 1.671875q-2.71875 0 -4.328125 -1.640625q-1.609375 -1.65625 -1.609375 -4.671875q0 -2.0 0.734375 -3.453125q0.75 -1.453125 2.015625 -2.203125q1.265625 -0.765625 2.84375 -0.765625q2.203125 0 3.578125 1.46875q1.375 1.453125 1.375 4.3125q0 0.296875 -0.046875 0.875l-8.671875 0q0.109375 2.234375 1.25 3.390625q1.15625 1.140625 2.90625 1.140625q1.921875 0 3.15625 -1.359375l1.0625 1.046875q-1.546875 1.859375 -4.265625 1.859375zm2.671875 -7.5625q0 -1.71875 -0.875 -2.71875q-0.859375 -1.0 -2.28125 -1.0q-1.328125 0 -2.3125 0.9375q-0.984375 0.9375 -1.234375 2.78125l6.703125 0z" fill-rule="nonzero"/><path fill="#000000" d="m167.8646 391.54376q-2.1875 -1.015625 -3.84375 -2.78125q-1.65625 -1.75 -2.546875 -3.953125q-0.890625 -2.21875 -0.890625 -4.5625q0 -2.359375 0.875 -4.515625q0.890625 -2.15625 2.5 -3.84375q1.609375 -1.703125 3.75 -2.703125l0.5 1.640625q-2.609375 1.421875 -4.171875 3.984375q-1.5625 2.546875 -1.5625 5.515625q0 2.984375 1.59375 5.59375q1.609375 2.609375 4.296875 4.015625l-0.5 1.609375zm9.140579 -4.34375q-0.640625 0 -1.09375 -0.453125q-0.453125 -0.453125 -0.453125 -1.0625q0 -0.625 0.453125 -1.078125q0.453125 -0.453125 1.09375 -0.453125q0.609375 0 1.0625 0.453125q0.453125 0.453125 0.453125 1.078125q0 0.609375 -0.453125 1.0625q-0.453125 0.453125 -1.0625 0.453125zm8.578079 -12.484375l1.953125 0l0 2.40625q0.390625 -1.328125 1.375 -2.0q1.0 -0.671875 2.328125 -0.671875q1.390625 0 2.546875 0.71875q1.15625 0.703125 1.84375 2.125q0.703125 1.40625 0.703125 3.421875q0 2.0625 -0.71875 3.546875q-0.71875 1.46875 -1.90625 2.21875q-1.1875 0.734375 -2.515625 0.734375q-1.09375 0 -2.0625 -0.5q-0.953125 -0.5 -1.5625 -1.40625l0 6.046875l-1.984375 0l0 -16.640625zm5.28125 10.796875q1.46875 0 2.46875 -1.09375q1.0 -1.109375 1.0 -3.625q0 -2.265625 -0.890625 -3.46875q-0.875 -1.21875 -2.5 -1.21875q-1.515625 0 -2.46875 1.265625q-0.9375 1.265625 -0.9375 3.859375q0.046875 2.09375 0.921875 3.1875q0.890625 1.09375 2.40625 1.09375zm18.26558 -10.796875q-0.15625 1.09375 -0.5 2.171875q-0.328125 1.0625 -0.9375 2.8125l-3.046875 8.59375q-0.609375 1.703125 -1.59375 2.46875q-0.984375 0.78125 -2.34375 0.78125q-1.71875 0 -2.796875 -1.046875l0.8125 -1.296875l0.03125 -0.03125l0.03125 0.03125q0.421875 0.390625 0.90625 0.578125q0.484375 0.1875 1.109375 0.1875q1.0 0 1.578125 -0.703125q0.59375 -0.6875 1.140625 -2.28125l-4.984375 -12.265625l2.0 0l3.796875 9.765625l1.59375 -4.90625q0.59375 -1.84375 0.859375 -2.8125q0.28125 -0.96875 0.421875 -2.046875l1.921875 0zm-10.078125 14.375q0 0.046875 -0.0625 0.046875l-0.203125 -0.046875l0.109375 -0.140625l0.15625 0.109375l0 0.03125zm-0.296875 0.078125q-0.125 -0.140625 -0.0625 -0.109375q0.0625 0.03125 0.09375 0.03125l-0.03125 0.078125zm19.593704 -3.703125q1.84375 0 3.171875 -1.5l1.125 1.3125q-1.796875 1.921875 -4.40625 1.921875q-1.75 0 -3.140625 -0.828125q-1.390625 -0.828125 -2.171875 -2.28125q-0.78125 -1.453125 -0.78125 -3.265625q0 -1.8125 0.78125 -3.25q0.78125 -1.4375 2.171875 -2.265625q1.390625 -0.828125 3.125 -0.828125q1.453125 0 2.65625 0.609375q1.203125 0.59375 1.953125 1.65625l-1.203125 1.171875l-0.03125 0.03125q-0.765625 -1.015625 -1.578125 -1.421875q-0.8125 -0.421875 -2.015625 -0.421875q-1.046875 0 -1.9375 0.578125q-0.890625 0.5625 -1.421875 1.609375q-0.53125 1.03125 -0.53125 2.40625q0 1.359375 0.546875 2.453125q0.546875 1.078125 1.515625 1.703125q0.96875 0.609375 2.171875 0.609375zm2.953125 -7.5q0 -0.15625 0.25 0.03125l-0.109375 0.109375l-0.140625 -0.140625zm0.296875 -0.015625q0.140625 0.1875 0.0625 0.140625q-0.0625 -0.0625 -0.109375 -0.09375l0.046875 -0.046875zm5.406204 11.984375q2.703125 -1.40625 4.296875 -4.015625q1.609375 -2.609375 1.609375 -5.59375q0 -2.96875 -1.5625 -5.515625q-1.5625 -2.5625 -4.171875 -3.984375l0.5 -1.640625q2.140625 1.0 3.75 2.703125q1.609375 1.6875 2.484375 3.84375q0.890625 2.15625 0.890625 4.515625q0 2.34375 -0.90625 4.5625q-0.890625 2.203125 -2.546875 3.953125q-1.640625 1.765625 -3.828125 2.78125l-0.515625 -1.609375z" fill-rule="nonzero"/><path fill="#cfe2f3" d="m77.66404 522.7782l239.3071 0l0 143.37012l-239.3071 0z" fill-rule="evenodd"/><path stroke="#000000" stroke-width="3.0" stroke-linejoin="round" stroke-linecap="butt" d="m77.66404 522.7782l239.3071 0l0 143.37012l-239.3071 0z" fill-rule="evenodd"/><path fill="#000000" fill-opacity="0.0" d="m95.585304 551.2349l203.46457 0l0 86.456665l-203.46457 0z" fill-rule="evenodd"/><path fill="#000000" d="m158.91147 571.45386l5.328125 0q2.640625 0 3.9375 1.3125q1.3125 1.296875 1.3125 3.375q0 2.0625 -1.28125 3.328125q-1.28125 1.265625 -3.84375 1.265625l-3.546875 0l0 7.328125l-1.90625 0l0 -16.609375zm5.25 7.625q1.75 0 2.578125 -0.75q0.828125 -0.765625 0.828125 -2.125q0 -1.3125 -0.859375 -2.140625q-0.84375 -0.84375 -2.53125 -0.84375l-3.359375 0l0 5.859375l3.34375 0zm18.312454 -3.203125q-0.15625 1.09375 -0.5 2.171875q-0.328125 1.0625 -0.9375 2.8125l-3.046875 8.59375q-0.609375 1.703125 -1.59375 2.46875q-0.984375 0.78125 -2.34375 0.78125q-1.71875 0 -2.796875 -1.046875l0.8125 -1.296875l0.03125 -0.03125l0.03125 0.03125q0.421875 0.390625 0.90625 0.578125q0.484375 0.1875 1.109375 0.1875q1.0 0 1.578125 -0.703125q0.59375 -0.6875 1.140625 -2.28125l-4.984375 -12.265625l2.0 0l3.796875 9.765625l1.59375 -4.90625q0.59375 -1.84375 0.859375 -2.8125q0.28125 -0.96875 0.421875 -2.046875l1.921875 0zm-10.078125 14.375q0 0.046875 -0.0625 0.046875l-0.203125 -0.046875l0.109375 -0.140625l0.15625 0.109375l0 0.03125zm-0.296875 0.078125q-0.125 -0.140625 -0.0625 -0.109375q0.0625 0.03125 0.09375 0.03125l-0.03125 0.078125zm23.718704 -3.390625q-1.75 1.3125 -3.859375 1.3125q-2.03125 0 -2.875 -1.21875q-0.828125 -1.234375 -0.828125 -4.0q0 -0.453125 0.046875 -1.578125l0.25 -4.0l-2.703125 0l0 -1.578125l2.8125 0l0.171875 -3.25l2.140625 -0.34375l0.265625 -0.03125l0.03125 0.171875q-0.1875 0.265625 -0.28125 0.453125q-0.09375 0.1875 -0.125 0.578125l-0.296875 2.421875l4.0625 0l0 1.578125l-4.15625 0l-0.25 4.125q-0.046875 1.078125 -0.046875 1.421875q0 2.125 0.484375 2.890625q0.5 0.765625 1.59375 0.765625q0.796875 0 1.453125 -0.296875q0.671875 -0.296875 1.53125 -0.9375l0.578125 1.515625zm3.4530792 -16.59375l2.09375 0l0 0.171875q-0.15625 0.171875 -0.203125 0.359375q-0.03125 0.1875 -0.03125 0.640625l0 6.53125q0.71875 -1.125 1.796875 -1.78125q1.078125 -0.671875 2.203125 -0.671875q1.734375 0 2.71875 1.234375q0.984375 1.21875 0.984375 3.84375l0 7.390625l-1.859375 0l0 -7.328125q0 -1.8125 -0.625 -2.640625q-0.609375 -0.828125 -1.625 -0.828125q-0.84375 0 -1.671875 0.46875q-0.828125 0.46875 -1.375 1.34375q-0.546875 0.859375 -0.546875 1.96875l0 7.015625l-1.859375 0l0 -17.71875zm18.031204 17.9375q-1.625 0 -2.90625 -0.796875q-1.265625 -0.8125 -1.984375 -2.25q-0.71875 -1.4375 -0.71875 -3.28125q0 -1.828125 0.71875 -3.265625q0.71875 -1.453125 1.984375 -2.265625q1.28125 -0.8125 2.90625 -0.8125q1.640625 0 2.90625 0.8125q1.28125 0.8125 2.0 2.265625q0.71875 1.4375 0.71875 3.265625q0 1.84375 -0.71875 3.28125q-0.71875 1.4375 -2.0 2.25q-1.265625 0.796875 -2.90625 0.796875zm0 -1.609375q1.046875 0 1.859375 -0.609375q0.8125 -0.609375 1.28125 -1.6875q0.46875 -1.078125 0.46875 -2.4375q0 -2.078125 -1.015625 -3.390625q-1.015625 -1.328125 -2.59375 -1.328125q-1.5625 0 -2.578125 1.328125q-1.015625 1.3125 -1.015625 3.390625q0 1.359375 0.46875 2.4375q0.46875 1.078125 1.28125 1.6875q0.8125 0.609375 1.84375 0.609375zm8.593704 -10.796875l1.859375 0l0 2.171875q0.71875 -1.125 1.8125 -1.78125q1.09375 -0.671875 2.328125 -0.671875q1.625 0 2.59375 1.234375q0.96875 1.234375 0.96875 3.84375l0 7.390625l-1.859375 0l0 -7.328125q0 -1.8125 -0.625 -2.640625q-0.609375 -0.828125 -1.609375 -0.828125q-0.828125 0 -1.671875 0.484375q-0.84375 0.46875 -1.390625 1.34375q-0.546875 0.859375 -0.546875 1.953125l0 7.015625l-1.859375 0l0 -12.1875z" fill-rule="nonzero"/><path fill="#000000" d="m126.68503 620.06323l0 -1.546875l3.109375 0l0 -9.09375l-2.953125 0l0 -1.546875l4.875 0l0 10.640625l2.859375 0l0 1.546875l-7.890625 0zm3.953125 -14.734375q-0.5625 0 -0.96875 -0.40625q-0.390625 -0.40625 -0.390625 -0.953125q0 -0.59375 0.390625 -0.984375q0.390625 -0.40625 0.96875 -0.40625q0.5625 0 0.96875 0.421875q0.421875 0.40625 0.421875 0.96875q0 0.546875 -0.421875 0.953125q-0.40625 0.40625 -0.96875 0.40625zm8.624954 2.546875l1.859375 0l0 2.171875q0.71875 -1.125 1.8125 -1.78125q1.09375 -0.671875 2.328125 -0.671875q1.625 0 2.59375 1.234375q0.96875 1.234375 0.96875 3.84375l0 7.390625l-1.859375 0l0 -7.328125q0 -1.8125 -0.625 -2.640625q-0.609375 -0.828125 -1.609375 -0.828125q-0.828125 0 -1.671875 0.484375q-0.84375 0.46875 -1.390625 1.34375q-0.546875 0.859375 -0.546875 1.953125l0 7.015625l-1.859375 0l0 -12.1875zm23.23433 11.0625q-1.75 1.3125 -3.859375 1.3125q-2.03125 0 -2.875 -1.21875q-0.828125 -1.234375 -0.828125 -4.0q0 -0.453125 0.046875 -1.578125l0.25 -4.0l-2.703125 0l0 -1.578125l2.8125 0l0.171875 -3.25l2.140625 -0.34375l0.265625 -0.03125l0.03125 0.171875q-0.1875 0.265625 -0.28125 0.453125q-0.09375 0.1875 -0.125 0.578125l-0.296875 2.421875l4.0625 0l0 1.578125l-4.15625 0l-0.25 4.125q-0.046875 1.078125 -0.046875 1.421875q0 2.125 0.484375 2.890625q0.5 0.765625 1.59375 0.765625q0.796875 0 1.453125 -0.296875q0.671875 -0.296875 1.53125 -0.9375l0.578125 1.515625zm8.749954 1.390625q-2.71875 0 -4.328125 -1.640625q-1.609375 -1.65625 -1.609375 -4.671875q0 -2.0 0.734375 -3.453125q0.75 -1.453125 2.015625 -2.203125q1.265625 -0.765625 2.84375 -0.765625q2.203125 0 3.578125 1.46875q1.375 1.453125 1.375 4.3125q0 0.296875 -0.046875 0.875l-8.671875 0q0.109375 2.234375 1.25 3.390625q1.15625 1.140625 2.90625 1.140625q1.921875 0 3.15625 -1.359375l1.0625 1.046875q-1.546875 1.859375 -4.265625 1.859375zm2.671875 -7.5625q0 -1.71875 -0.875 -2.71875q-0.859375 -1.0 -2.28125 -1.0q-1.328125 0 -2.3125 0.9375q-0.984375 0.9375 -1.234375 2.78125l6.703125 0zm14.765579 -2.359375l0 0.03125q-0.78125 -0.71875 -1.296875 -0.953125q-0.515625 -0.25 -1.21875 -0.25q-0.953125 0 -1.8125 0.484375q-0.84375 0.484375 -1.375 1.453125q-0.53125 0.96875 -0.53125 2.4375l0 6.484375l-1.953125 0l0 -12.21875l2.0 0l-0.046875 2.25q0.5 -1.203125 1.546875 -1.859375q1.0625 -0.671875 2.3125 -0.671875q1.9375 0 3.21875 1.328125l-0.84375 1.484375zm0 0.03125q0.1875 0.15625 0.09375 0.140625q-0.09375 -0.03125 -0.15625 -0.0625l0.0625 -0.078125zm-0.296875 0.078125q0 -0.078125 0.078125 -0.0625q0.078125 0.015625 0.15625 0.0625l-0.046875 0.140625l-0.1875 -0.109375l0 -0.03125zm3.8593292 -2.640625l1.953125 0l0 2.40625q0.390625 -1.328125 1.375 -2.0q1.0 -0.671875 2.328125 -0.671875q1.390625 0 2.546875 0.71875q1.15625 0.703125 1.84375 2.125q0.703125 1.40625 0.703125 3.421875q0 2.0625 -0.71875 3.546875q-0.71875 1.46875 -1.90625 2.21875q-1.1875 0.734375 -2.515625 0.734375q-1.09375 0 -2.0625 -0.5q-0.953125 -0.5 -1.5625 -1.40625l0 6.046875l-1.984375 0l0 -16.640625zm5.28125 10.796875q1.46875 0 2.46875 -1.09375q1.0 -1.109375 1.0 -3.625q0 -2.265625 -0.890625 -3.46875q-0.875 -1.21875 -2.5 -1.21875q-1.515625 0 -2.46875 1.265625q-0.9375 1.265625 -0.9375 3.859375q0.046875 2.09375 0.921875 3.1875q0.890625 1.09375 2.40625 1.09375zm17.812454 -8.265625l0 0.03125q-0.78125 -0.71875 -1.296875 -0.953125q-0.515625 -0.25 -1.21875 -0.25q-0.953125 0 -1.8125 0.484375q-0.84375 0.484375 -1.375 1.453125q-0.53125 0.96875 -0.53125 2.4375l0 6.484375l-1.953125 0l0 -12.21875l2.0 0l-0.046875 2.25q0.5 -1.203125 1.546875 -1.859375q1.0625 -0.671875 2.3125 -0.671875q1.9375 0 3.21875 1.328125l-0.84375 1.484375zm0 0.03125q0.1875 0.15625 0.09375 0.140625q-0.09375 -0.03125 -0.15625 -0.0625l0.0625 -0.078125zm-0.296875 0.078125q0 -0.078125 0.078125 -0.0625q0.078125 0.015625 0.15625 0.0625l-0.046875 0.140625l-0.1875 -0.109375l0 -0.03125zm9.515564 9.8125q-2.7187347 0 -4.3281097 -1.640625q-1.609375 -1.65625 -1.609375 -4.671875q0 -2.0 0.734375 -3.453125q0.75 -1.453125 2.015625 -2.203125q1.265625 -0.765625 2.8437347 -0.765625q2.203125 0 3.578125 1.46875q1.375 1.453125 1.375 4.3125q0 0.296875 -0.046875 0.875l-8.67186 0q0.109375 2.234375 1.25 3.390625q1.15625 1.140625 2.9062347 1.140625q1.921875 0 3.15625 -1.359375l1.0625 1.046875q-1.546875 1.859375 -4.265625 1.859375zm2.671875 -7.5625q0 -1.71875 -0.875 -2.71875q-0.859375 -1.0 -2.28125 -1.0q-1.3281097 0 -2.3124847 0.9375q-0.984375 0.9375 -1.234375 2.78125l6.7031097 0zm15.2343445 6.171875q-1.75 1.3125 -3.859375 1.3125q-2.03125 0 -2.875 -1.21875q-0.828125 -1.234375 -0.828125 -4.0q0 -0.453125 0.046875 -1.578125l0.25 -4.0l-2.703125 0l0 -1.578125l2.8125 0l0.171875 -3.25l2.140625 -0.34375l0.265625 -0.03125l0.03125 0.171875q-0.1875 0.265625 -0.28125 0.453125q-0.09375 0.1875 -0.125 0.578125l-0.296875 2.421875l4.0625 0l0 1.578125l-4.15625 0l-0.25 4.125q-0.046875 1.078125 -0.046875 1.421875q0 2.125 0.484375 2.890625q0.5 0.765625 1.59375 0.765625q0.796875 0 1.453125 -0.296875q0.671875 -0.296875 1.53125 -0.9375l0.578125 1.515625zm8.749939 1.390625q-2.71875 0 -4.328125 -1.640625q-1.609375 -1.65625 -1.609375 -4.671875q0 -2.0 0.734375 -3.453125q0.75 -1.453125 2.015625 -2.203125q1.265625 -0.765625 2.84375 -0.765625q2.203125 0 3.578125 1.46875q1.375 1.453125 1.375 4.3125q0 0.296875 -0.046875 0.875l-8.671875 0q0.109375 2.234375 1.25 3.390625q1.15625 1.140625 2.90625 1.140625q1.921875 0 3.15625 -1.359375l1.0625 1.046875q-1.546875 1.859375 -4.265625 1.859375zm2.671875 -7.5625q0 -1.71875 -0.875 -2.71875q-0.859375 -1.0 -2.28125 -1.0q-1.328125 0 -2.3125 0.9375q-0.984375 0.9375 -1.234375 2.78125l6.703125 0zm14.7655945 -2.359375l0 0.03125q-0.78125 -0.71875 -1.296875 -0.953125q-0.515625 -0.25 -1.21875 -0.25q-0.953125 0 -1.8125 0.484375q-0.84375 0.484375 -1.375 1.453125q-0.53125 0.96875 -0.53125 2.4375l0 6.484375l-1.953125 0l0 -12.21875l2.0 0l-0.046875 2.25q0.5 -1.203125 1.546875 -1.859375q1.0625 -0.671875 2.3125 -0.671875q1.9375 0 3.21875 1.328125l-0.84375 1.484375zm0 0.03125q0.1875 0.15625 0.09375 0.140625q-0.09375 -0.03125 -0.15625 -0.0625l0.0625 -0.078125zm-0.296875 0.078125q0 -0.078125 0.078125 -0.0625q0.078125 0.015625 0.15625 0.0625l-0.046875 0.140625l-0.1875 -0.109375l0 -0.03125z" fill-rule="nonzero"/><path fill="#000000" fill-opacity="0.0" d="m197.31758 195.61023l0 94.01575" fill-rule="evenodd"/><path stroke="#000000" stroke-width="3.0" stroke-linejoin="round" stroke-linecap="butt" d="m197.31758 195.61023l0 76.01575" fill-rule="evenodd"/><path fill="#000000" stroke="#000000" stroke-width="3.0" stroke-linecap="butt" d="m192.36238 271.62598l4.9552 13.614288l4.9552 -13.614288z" fill-rule="evenodd"/><path fill="#000000" fill-opacity="0.0" d="m197.31758 432.9882l0 89.79526" fill-rule="evenodd"/><path stroke="#000000" stroke-width="3.0" stroke-linejoin="round" stroke-linecap="butt" d="m197.31758 432.9882l0 71.79529" fill-rule="evenodd"/><path fill="#000000" stroke="#000000" stroke-width="3.0" stroke-linecap="butt" d="m192.36238 504.78348l4.9552 13.614288l4.9552 -13.614288z" fill-rule="evenodd"/><path fill="#000000" fill-opacity="0.0" d="m353.64566 85.61024l149.07086 0l0 76.62992l-149.07086 0z" fill-rule="evenodd"/><path fill="#000000" d="m363.9113 101.80898l4.265625 0q2.109375 0 3.140625 1.046875q1.046875 1.03125 1.046875 2.703125q0 1.640625 -1.03125 2.65625q-1.015625 1.015625 -3.0625 1.015625l-2.828125 0l0 5.859375l-1.53125 0l0 -13.28125zm4.1875 6.09375q1.421875 0 2.078125 -0.609375q0.65625 -0.609375 0.65625 -1.6875q0 -1.046875 -0.6875 -1.71875q-0.671875 -0.671875 -2.015625 -0.671875l-2.6875 0l0 4.6875l2.65625 0zm14.664124 -2.5625q-0.125 0.875 -0.40625 1.734375q-0.265625 0.84375 -0.75 2.25l-2.4375 6.875q-0.484375 1.359375 -1.28125 1.984375q-0.78125 0.625 -1.875 0.625q-1.359375 0 -2.234375 -0.84375l0.65625 -1.046875l0.03125 -0.015625l0.015625 0.015625q0.34375 0.328125 0.71875 0.46875q0.390625 0.15625 0.90625 0.15625q0.78125 0 1.25 -0.5625q0.46875 -0.546875 0.921875 -1.828125l-3.984375 -9.8125l1.59375 0l3.03125 7.8125l1.28125 -3.921875q0.46875 -1.484375 0.6875 -2.25q0.234375 -0.78125 0.328125 -1.640625l1.546875 0zm-8.0625 11.5q0 0.046875 -0.046875 0.046875l-0.171875 -0.046875l0.09375 -0.109375l0.125 0.09375l0 0.015625zm-0.234375 0.0625q-0.109375 -0.109375 -0.0625 -0.09375q0.0625 0.03125 0.078125 0.03125l-0.015625 0.0625zm18.976593 -2.703125q-1.40625 1.046875 -3.09375 1.046875q-1.625 0 -2.296875 -0.984375q-0.671875 -0.984375 -0.671875 -3.203125q0 -0.359375 0.046875 -1.265625l0.1875 -3.1875l-2.140625 0l0 -1.265625l2.234375 0l0.140625 -2.59375l1.71875 -0.28125l0.203125 -0.015625l0.03125 0.125q-0.15625 0.203125 -0.234375 0.359375q-0.0625 0.15625 -0.09375 0.46875l-0.234375 1.9375l3.25 0l0 1.265625l-3.328125 0l-0.203125 3.296875q-0.03125 0.859375 -0.03125 1.140625q0 1.703125 0.390625 2.3125q0.390625 0.609375 1.265625 0.609375q0.640625 0 1.171875 -0.234375q0.53125 -0.234375 1.21875 -0.75l0.46875 1.21875zm2.7578735 -13.296875l1.671875 0l0 0.15625q-0.125 0.125 -0.15625 0.28125q-0.03125 0.140625 -0.03125 0.5l0 5.234375q0.578125 -0.90625 1.4375 -1.4375q0.875 -0.53125 1.765625 -0.53125q1.390625 0 2.171875 0.984375q0.796875 0.984375 0.796875 3.09375l0 5.90625l-1.5 0l0 -5.859375q0 -1.453125 -0.5 -2.109375q-0.484375 -0.671875 -1.296875 -0.671875q-0.671875 0 -1.34375 0.375q-0.65625 0.375 -1.09375 1.078125q-0.4375 0.6875 -0.4375 1.578125l0 5.609375l-1.484375 0l0 -14.1875zm14.429718 14.359375q-1.296875 0 -2.328125 -0.640625q-1.015625 -0.640625 -1.59375 -1.78125q-0.578125 -1.15625 -0.578125 -2.640625q0 -1.46875 0.578125 -2.609375q0.578125 -1.15625 1.59375 -1.796875q1.03125 -0.65625 2.328125 -0.65625q1.3125 0 2.328125 0.65625q1.03125 0.640625 1.59375 1.796875q0.578125 1.140625 0.578125 2.609375q0 1.484375 -0.578125 2.640625q-0.5625 1.140625 -1.59375 1.78125q-1.015625 0.640625 -2.328125 0.640625zm0 -1.28125q0.828125 0 1.484375 -0.484375q0.65625 -0.5 1.03125 -1.359375q0.375 -0.859375 0.375 -1.953125q0 -1.65625 -0.8125 -2.71875q-0.8125 -1.0625 -2.078125 -1.0625q-1.25 0 -2.0625 1.0625q-0.8125 1.0625 -0.8125 2.71875q0 1.09375 0.375 1.953125q0.375 0.859375 1.015625 1.359375q0.65625 0.484375 1.484375 0.484375zm6.8672485 -8.640625l1.5 0l0 1.734375q0.578125 -0.90625 1.453125 -1.4375q0.875 -0.53125 1.84375 -0.53125q1.3125 0 2.078125 1.0q0.78125 0.984375 0.78125 3.078125l0 5.90625l-1.484375 0l0 -5.859375q0 -1.453125 -0.5 -2.109375q-0.484375 -0.671875 -1.296875 -0.671875q-0.65625 0 -1.328125 0.390625q-0.671875 0.375 -1.109375 1.078125q-0.4375 0.6875 -0.4375 1.5625l0 5.609375l-1.5 0l0 -9.75zm25.953217 8.59375q1.484375 0 2.546875 -1.1875l0.890625 1.046875q-1.421875 1.53125 -3.515625 1.53125q-1.40625 0 -2.515625 -0.65625q-1.109375 -0.671875 -1.75 -1.828125q-0.625 -1.15625 -0.625 -2.609375q0 -1.453125 0.625 -2.59375q0.640625 -1.15625 1.75 -1.8125q1.109375 -0.671875 2.5 -0.671875q1.171875 0 2.125 0.484375q0.96875 0.46875 1.5625 1.328125l-0.96875 0.9375l-0.015625 0.015625q-0.625 -0.8125 -1.28125 -1.140625q-0.640625 -0.328125 -1.59375 -0.328125q-0.828125 0 -1.546875 0.46875q-0.71875 0.453125 -1.15625 1.28125q-0.421875 0.828125 -0.421875 1.921875q0 1.09375 0.4375 1.96875q0.4375 0.859375 1.21875 1.359375q0.78125 0.484375 1.734375 0.484375zm2.375 -5.984375q0 -0.125 0.1875 0.015625l-0.078125 0.09375l-0.109375 -0.109375zm0.234375 -0.03125q0.109375 0.15625 0.046875 0.109375q-0.046875 -0.046875 -0.09375 -0.0625l0.046875 -0.046875zm7.226593 7.34375q-1.296875 0 -2.328125 -0.640625q-1.015625 -0.640625 -1.59375 -1.78125q-0.578125 -1.15625 -0.578125 -2.640625q0 -1.46875 0.578125 -2.609375q0.578125 -1.15625 1.59375 -1.796875q1.03125 -0.65625 2.328125 -0.65625q1.3125 0 2.328125 0.65625q1.03125 0.640625 1.59375 1.796875q0.578125 1.140625 0.578125 2.609375q0 1.484375 -0.578125 2.640625q-0.5625 1.140625 -1.59375 1.78125q-1.015625 0.640625 -2.328125 0.640625zm0 -1.28125q0.828125 0 1.484375 -0.484375q0.65625 -0.5 1.03125 -1.359375q0.375 -0.859375 0.375 -1.953125q0 -1.65625 -0.8125 -2.71875q-0.8125 -1.0625 -2.078125 -1.0625q-1.25 0 -2.0625 1.0625q-0.8125 1.0625 -0.8125 2.71875q0 1.09375 0.375 1.953125q0.375 0.859375 1.015625 1.359375q0.65625 0.484375 1.484375 0.484375zm10.320374 1.328125q-1.03125 0 -1.953125 -0.578125q-0.921875 -0.59375 -1.5 -1.765625q-0.578125 -1.1875 -0.578125 -2.84375q0 -1.6875 0.59375 -2.8125q0.609375 -1.140625 1.546875 -1.671875q0.9375 -0.546875 1.984375 -0.546875q0.984375 0 1.71875 0.453125q0.734375 0.4375 1.109375 1.234375l0 -5.875l1.625 0l0 0.15625q-0.125 0.125 -0.15625 0.28125q-0.03125 0.140625 -0.03125 0.5l0.015625 11.734375q0 0.515625 0.03125 0.84375q0.03125 0.328125 0.1875 0.671875l-1.515625 0q-0.15625 -0.34375 -0.1875 -0.671875q-0.03125 -0.328125 -0.03125 -0.84375q-0.46875 0.8125 -1.203125 1.28125q-0.734375 0.453125 -1.65625 0.453125zm0.234375 -1.34375q1.328125 0 1.9375 -1.046875q0.625 -1.046875 0.625 -2.75q0 -1.734375 -0.671875 -2.78125q-0.671875 -1.046875 -2.015625 -1.046875q-1.28125 0 -1.96875 0.953125q-0.671875 0.953125 -0.671875 2.59375q0 1.875 0.703125 2.984375q0.71875 1.09375 2.0625 1.09375zm11.242218 1.34375q-2.171875 0 -3.46875 -1.328125q-1.28125 -1.328125 -1.28125 -3.734375q0 -1.59375 0.59375 -2.75q0.59375 -1.171875 1.609375 -1.78125q1.015625 -0.609375 2.28125 -0.609375q1.765625 0 2.859375 1.171875q1.09375 1.171875 1.09375 3.453125q0 0.234375 -0.03125 0.703125l-6.9375 0q0.09375 1.796875 1.0 2.71875q0.921875 0.90625 2.328125 0.90625q1.53125 0 2.515625 -1.078125l0.859375 0.828125q-1.234375 1.5 -3.421875 1.5zm2.140625 -6.0625q0 -1.359375 -0.703125 -2.15625q-0.6875 -0.8125 -1.8125 -0.8125q-1.078125 0 -1.875 0.75q-0.78125 0.75 -0.96875 2.21875l5.359375 0z" fill-rule="nonzero"/><path fill="#000000" d="m372.0988 131.34024q-0.125 0.875 -0.40625 1.734375q-0.265625 0.84375 -0.75 2.25l-2.4375 6.875q-0.484375 1.359375 -1.28125 1.984375q-0.78125 0.625 -1.875 0.625q-1.359375 0 -2.234375 -0.84375l0.65625 -1.046875l0.03125 -0.015625l0.015625 0.015625q0.34375 0.328125 0.71875 0.46875q0.390625 0.15625 0.90625 0.15625q0.78125 0 1.25 -0.5625q0.46875 -0.546875 0.921875 -1.828125l-3.984375 -9.8125l1.59375 0l3.03125 7.8125l1.28125 -3.921875q0.46875 -1.484375 0.6875 -2.25q0.234375 -0.78125 0.328125 -1.640625l1.546875 0zm-8.0625 11.5q0 0.046875 -0.046875 0.046875l-0.171875 -0.046875l0.09375 -0.109375l0.125 0.09375l0 0.015625zm-0.234375 0.0625q-0.109375 -0.109375 -0.0625 -0.09375q0.0625 0.03125 0.078125 0.03125l-0.015625 0.0625zm14.835999 -1.640625q-1.296875 0 -2.328125 -0.640625q-1.015625 -0.640625 -1.59375 -1.78125q-0.578125 -1.15625 -0.578125 -2.640625q0 -1.46875 0.578125 -2.609375q0.578125 -1.15625 1.59375 -1.796875q1.03125 -0.65625 2.328125 -0.65625q1.3125 0 2.328125 0.65625q1.03125 0.640625 1.59375 1.796875q0.578125 1.140625 0.578125 2.609375q0 1.484375 -0.578125 2.640625q-0.5625 1.140625 -1.59375 1.78125q-1.015625 0.640625 -2.328125 0.640625zm0 -1.28125q0.828125 0 1.484375 -0.484375q0.65625 -0.5 1.03125 -1.359375q0.375 -0.859375 0.375 -1.953125q0 -1.65625 -0.8125 -2.71875q-0.8125 -1.0625 -2.078125 -1.0625q-1.25 0 -2.0625 1.0625q-0.8125 1.0625 -0.8125 2.71875q0 1.09375 0.375 1.953125q0.375 0.859375 1.015625 1.359375q0.65625 0.484375 1.484375 0.484375zm10.054718 1.34375q-1.546875 0 -2.46875 -1.140625q-0.90625 -1.140625 -0.890625 -3.40625l0.03125 -5.4375l1.484375 0l0 5.4375q0 1.75 0.609375 2.53125q0.609375 0.78125 1.609375 0.78125q1.109375 0 1.859375 -0.859375q0.765625 -0.875 0.765625 -2.515625l0 -5.375l1.5 0l0 8.234375q0 0.515625 0.03125 0.84375q0.03125 0.328125 0.171875 0.671875l-1.46875 0q-0.140625 -0.3125 -0.1875 -0.65625q-0.03125 -0.34375 -0.03125 -0.84375q-0.46875 0.8125 -1.265625 1.28125q-0.796875 0.453125 -1.75 0.453125zm16.953217 -9.984375l1.34375 0l1.578125 7.828125l1.65625 -6.90625l0.9375 0l2.078125 6.890625q0.59375 -3.984375 0.734375 -5.234375q0.15625 -1.25 0.15625 -2.25l0 -0.328125l1.4375 0q-0.640625 4.953125 -1.625 9.765625l-1.453125 0l-1.796875 -6.3125l-1.703125 6.3125l-1.390625 0l-1.953125 -9.765625zm19.398499 2.03125l0 0.015625q-0.609375 -0.578125 -1.03125 -0.765625q-0.40625 -0.1875 -0.96875 -0.1875q-0.765625 0 -1.453125 0.390625q-0.671875 0.375 -1.109375 1.15625q-0.421875 0.78125 -0.421875 1.953125l0 5.171875l-1.5625 0l0 -9.765625l1.609375 0l-0.046875 1.796875q0.40625 -0.96875 1.25 -1.5q0.84375 -0.53125 1.84375 -0.53125q1.5625 0 2.578125 1.0625l-0.6875 1.203125zm0 0.015625q0.15625 0.125 0.078125 0.109375q-0.078125 -0.015625 -0.109375 -0.046875l0.03125 -0.0625zm-0.234375 0.0625q0 -0.0625 0.0625 -0.046875q0.078125 0.015625 0.140625 0.046875l-0.046875 0.109375l-0.15625 -0.078125l0 -0.03125zm3.960968 7.640625l0 -1.234375l2.484375 0l0 -7.28125l-2.359375 0l0 -1.234375l3.890625 0l0 8.515625l2.296875 0l0 1.234375l-6.3125 0zm3.171875 -11.796875q-0.4375 0 -0.765625 -0.3125q-0.3125 -0.328125 -0.3125 -0.765625q0 -0.46875763 0.296875 -0.7812576q0.3125 -0.328125 0.78125 -0.328125q0.453125 0 0.78125 0.328125q0.328125 0.328125 0.328125 0.7812576q0 0.4375 -0.328125 0.765625q-0.328125 0.3125 -0.78125 0.3125zm14.820374 10.90625q-1.40625 1.046875 -3.09375 1.046875q-1.625 0 -2.296875 -0.984375q-0.671875 -0.984375 -0.671875 -3.203125q0 -0.359375 0.046875 -1.265625l0.1875 -3.1875l-2.140625 0l0 -1.265625l2.234375 0l0.140625 -2.59375l1.71875 -0.28125l0.203125 -0.015625l0.03125 0.125q-0.15625 0.203125 -0.234375 0.359375q-0.0625 0.15625 -0.09375 0.46875l-0.234375 1.9375l3.25 0l0 1.265625l-3.328125 0l-0.203125 3.296875q-0.03125 0.859375 -0.03125 1.140625q0 1.703125 0.390625 2.3125q0.390625 0.609375 1.265625 0.609375q0.640625 0 1.171875 -0.234375q0.53125 -0.234375 1.21875 -0.75l0.46875 1.21875zm6.992218 1.109375q-2.171875 0 -3.46875 -1.328125q-1.28125 -1.328125 -1.28125 -3.734375q0 -1.59375 0.59375 -2.75q0.59375 -1.171875 1.609375 -1.78125q1.015625 -0.609375 2.28125 -0.609375q1.765625 0 2.859375 1.171875q1.09375 1.171875 1.09375 3.453125q0 0.234375 -0.03125 0.703125l-6.9375 0q0.09375 1.796875 1.0 2.71875q0.921875 0.90625 2.328125 0.90625q1.53125 0 2.515625 -1.078125l0.859375 0.828125q-1.234375 1.5 -3.421875 1.5zm2.140625 -6.0625q0 -1.359375 -0.703125 -2.15625q-0.6875 -0.8125 -1.8125 -0.8125q-1.078125 0 -1.875 0.75q-0.78125 0.75 -0.96875 2.21875l5.359375 0z" fill-rule="nonzero"/><path fill="#000000" fill-opacity="0.0" d="m368.25986 322.9882l149.07083 0l0 76.62991l-149.07083 0z" fill-rule="evenodd"/><path fill="#000000" d="m378.6661 339.18695l1.75 0l0 0.140625q-0.125 0.125 -0.15625 0.28125q-0.03125 0.140625 -0.03125 0.515625l0 11.0625l6.390625 0l0 1.28125l-7.953125 0l0 -13.28125zm14.585968 13.453125q-1.296875 0 -2.328125 -0.640625q-1.015625 -0.640625 -1.59375 -1.78125q-0.578125 -1.15625 -0.578125 -2.640625q0 -1.46875 0.578125 -2.609375q0.578125 -1.15625 1.59375 -1.796875q1.03125 -0.65625 2.328125 -0.65625q1.3125 0 2.328125 0.65625q1.03125 0.640625 1.59375 1.796875q0.578125 1.140625 0.578125 2.609375q0 1.484375 -0.578125 2.640625q-0.5625 1.140625 -1.59375 1.78125q-1.015625 0.640625 -2.328125 0.640625zm0 -1.28125q0.828125 0 1.484375 -0.484375q0.65625 -0.5 1.03125 -1.359375q0.375 -0.859375 0.375 -1.953125q0 -1.65625 -0.8125 -2.71875q-0.8125 -1.0625 -2.078125 -1.0625q-1.25 0 -2.0625 1.0625q-0.8125 1.0625 -0.8125 2.71875q0 1.09375 0.375 1.953125q0.375 0.859375 1.015625 1.359375q0.65625 0.484375 1.484375 0.484375zm5.6797485 -8.640625l1.34375 0l1.578125 7.828125l1.65625 -6.90625l0.9375 0l2.078125 6.890625q0.59375 -3.984375 0.734375 -5.234375q0.15625 -1.25 0.15625 -2.25l0 -0.328125l1.4375 0q-0.640625 4.953125 -1.625 9.765625l-1.453125 0l-1.796875 -6.3125l-1.703125 6.3125l-1.390625 0l-1.953125 -9.765625zm16.117218 9.96875q-2.171875 0 -3.46875 -1.328125q-1.28125 -1.328125 -1.28125 -3.734375q0 -1.59375 0.59375 -2.75q0.59375 -1.171875 1.609375 -1.78125q1.015625 -0.609375 2.28125 -0.609375q1.765625 0 2.859375 1.171875q1.09375 1.171875 1.09375 3.453125q0 0.234375 -0.03125 0.703125l-6.9375 0q0.09375 1.796875 1.0 2.71875q0.921875 0.90625 2.328125 0.90625q1.53125 0 2.515625 -1.078125l0.859375 0.828125q-1.234375 1.5 -3.421875 1.5zm2.140625 -6.0625q0 -1.359375 -0.703125 -2.15625q-0.6875 -0.8125 -1.8125 -0.8125q-1.078125 0 -1.875 0.75q-0.78125 0.75 -0.96875 2.21875l5.359375 0zm11.804749 -1.875l0 0.015625q-0.609375 -0.578125 -1.03125 -0.765625q-0.40625 -0.1875 -0.96875 -0.1875q-0.765625 0 -1.453125 0.390625q-0.671875 0.375 -1.109375 1.15625q-0.421875 0.78125 -0.421875 1.953125l0 5.171875l-1.5625 0l0 -9.765625l1.609375 0l-0.046875 1.796875q0.40625 -0.96875 1.25 -1.5q0.84375 -0.53125 1.84375 -0.53125q1.5625 0 2.578125 1.0625l-0.6875 1.203125zm0 0.015625q0.15625 0.125 0.078125 0.109375q-0.078125 -0.015625 -0.109375 -0.046875l0.03125 -0.0625zm-0.234375 0.0625q0 -0.0625 0.0625 -0.046875q0.078125 0.015625 0.140625 0.046875l-0.046875 0.109375l-0.15625 -0.078125l0 -0.03125zm3.335968 1.640625l0 -1.421875l7.671875 0l0 1.421875l-7.671875 0zm10.835999 6.0l0 -1.234375l2.875 0l0 -11.71875l-2.75 0l0 -1.234375l4.3125 0l0 12.953125l2.859375 0l0 1.234375l-7.296875 0zm14.773468 0.21875q-2.171875 0 -3.46875 -1.328125q-1.28125 -1.328125 -1.28125 -3.734375q0 -1.59375 0.59375 -2.75q0.59375 -1.171875 1.609375 -1.78125q1.015625 -0.609375 2.28125 -0.609375q1.765625 0 2.859375 1.171875q1.09375 1.171875 1.09375 3.453125q0 0.234375 -0.03125 0.703125l-6.9375 0q0.09375 1.796875 1.0 2.71875q0.921875 0.90625 2.328125 0.90625q1.53125 0 2.515625 -1.078125l0.859375 0.828125q-1.234375 1.5 -3.421875 1.5zm2.140625 -6.0625q0 -1.359375 -0.703125 -2.15625q-0.6875 -0.8125 -1.8125 -0.8125q-1.078125 0 -1.875 0.75q-0.78125 0.75 -0.96875 2.21875l5.359375 0zm12.429749 -3.90625q-0.34375 1.734375 -1.421875 4.265625l-2.375 5.484375l-1.1875 0l-3.859375 -9.75l1.53125 0l3.0 7.640625l1.578125 -3.609375q0.984375 -2.21875 1.28125 -4.03125l1.453125 0zm6.757843 9.96875q-2.171875 0 -3.46875 -1.328125q-1.28125 -1.328125 -1.28125 -3.734375q0 -1.59375 0.59375 -2.75q0.59375 -1.171875 1.609375 -1.78125q1.015625 -0.609375 2.28125 -0.609375q1.765625 0 2.859375 1.171875q1.09375 1.171875 1.09375 3.453125q0 0.234375 -0.03125 0.703125l-6.9375 0q0.09375 1.796875 1.0 2.71875q0.921875 0.90625 2.328125 0.90625q1.53125 0 2.515625 -1.078125l0.859375 0.828125q-1.234375 1.5 -3.421875 1.5zm2.140625 -6.0625q0 -1.359375 -0.703125 -2.15625q-0.6875 -0.8125 -1.8125 -0.8125q-1.078125 0 -1.875 0.75q-0.78125 0.75 -0.96875 2.21875l5.359375 0zm4.4141235 5.84375l0 -1.234375l2.875 0l0 -11.71875l-2.75 0l0 -1.234375l4.3125 0l0 12.953125l2.859375 0l0 1.234375l-7.296875 0z" fill-rule="nonzero"/><path fill="#000000" d="m379.40048 378.4682l0 -1.234375l2.484375 0l0 -7.28125l-2.359375 0l0 -1.234375l3.890625 0l0 8.515625l2.296875 0l0 1.234375l-6.3125 0zm3.171875 -11.796875q-0.4375 0 -0.765625 -0.3125q-0.3125 -0.328125 -0.3125 -0.765625q0 -0.46875 0.296875 -0.78125q0.3125 -0.328125 0.78125 -0.328125q0.453125 0 0.78125 0.328125q0.328125 0.328125 0.328125 0.78125q0 0.4375 -0.328125 0.765625q-0.328125 0.3125 -0.78125 0.3125zm6.882843 2.046875l1.5 0l0 1.734375q0.578125 -0.90625 1.453125 -1.4375q0.875 -0.53125 1.84375 -0.53125q1.3125 0 2.078125 1.0q0.78125 0.984375 0.78125 3.078125l0 5.90625l-1.484375 0l0 -5.859375q0 -1.453125 -0.5 -2.109375q-0.484375 -0.671875 -1.296875 -0.671875q-0.65625 0 -1.328125 0.390625q-0.671875 0.375 -1.109375 1.078125q-0.4375 0.6875 -0.4375 1.5625l0 5.609375l-1.5 0l0 -9.75zm15.164124 4.015625q1.84375 0.546875 2.59375 1.203125q0.765625 0.65625 0.765625 1.6875q0 1.328125 -1.046875 2.203125q-1.03125 0.859375 -2.984375 0.859375q-2.484375 0 -4.140625 -1.546875l0.84375 -1.4375l0.03125 -0.03125l0.015625 0.03125q0.65625 0.84375 1.359375 1.28125q0.71875 0.421875 1.921875 0.421875q1.15625 0 1.8125 -0.40625q0.671875 -0.421875 0.671875 -1.15625q0 -0.609375 -0.546875 -1.015625q-0.53125 -0.40625 -1.90625 -0.859375q-3.671875 -1.046875 -3.671875 -3.03125q0 -1.125 0.921875 -1.78125q0.9375 -0.671875 2.65625 -0.671875q1.328125 0 2.234375 0.375q0.90625 0.375 1.65625 1.15625l-0.875 1.078125l-0.03125 0.015625q-0.4375 -0.6875 -1.265625 -1.078125q-0.8125 -0.390625 -1.671875 -0.390625q-0.921875 0 -1.515625 0.328125q-0.578125 0.3125 -0.578125 0.890625q0 0.53125 0.59375 0.984375q0.609375 0.4375 2.15625 0.890625zm2.046875 -1.578125q0 -0.109375 0.171875 0.015625l-0.0625 0.09375l-0.109375 -0.109375zm0.234375 -0.046875q0.0625 0.09375 0.046875 0.109375q0 0.015625 -0.046875 0q-0.03125 -0.015625 -0.0625 -0.046875l0.0625 -0.0625zm-5.984375 4.5q0 0.09375 -0.1875 0l0.0625 -0.109375l0.125 0.09375l0 0.015625zm-0.234375 0.0625q-0.0625 -0.109375 -0.046875 -0.109375q0.015625 0 0.09375 0.046875l-0.046875 0.0625zm18.039093 1.90625q-1.40625 1.046875 -3.09375 1.046875q-1.625 0 -2.296875 -0.984375q-0.671875 -0.984375 -0.671875 -3.203125q0 -0.359375 0.046875 -1.265625l0.1875 -3.1875l-2.140625 0l0 -1.265625l2.234375 0l0.140625 -2.59375l1.71875 -0.28125l0.203125 -0.015625l0.03125 0.125q-0.15625 0.203125 -0.234375 0.359375q-0.0625 0.15625 -0.09375 0.46875l-0.234375 1.9375l3.25 0l0 1.265625l-3.328125 0l-0.203125 3.296875q-0.03125 0.859375 -0.03125 1.140625q0 1.703125 0.390625 2.3125q0.390625 0.609375 1.265625 0.609375q0.640625 0 1.171875 -0.234375q0.53125 -0.234375 1.21875 -0.75l0.46875 1.21875zm10.273499 -6.828125l0 0.015625q-0.609375 -0.578125 -1.03125 -0.765625q-0.40625 -0.1875 -0.96875 -0.1875q-0.765625 0 -1.453125 0.390625q-0.671875 0.375 -1.109375 1.15625q-0.421875 0.78125 -0.421875 1.953125l0 5.171875l-1.5625 0l0 -9.765625l1.609375 0l-0.046875 1.796875q0.40625 -0.96875 1.25 -1.5q0.84375 -0.53125 1.84375 -0.53125q1.5625 0 2.578125 1.0625l-0.6875 1.203125zm0 0.015625q0.15625 0.125 0.078125 0.109375q-0.078125 -0.015625 -0.109375 -0.046875l0.03125 -0.0625zm-0.234375 0.0625q0 -0.0625 0.0625 -0.046875q0.078125 0.015625 0.140625 0.046875l-0.046875 0.109375l-0.15625 -0.078125l0 -0.03125zm6.539093 7.875q-1.546875 0 -2.46875 -1.140625q-0.90625 -1.140625 -0.890625 -3.40625l0.03125 -5.4375l1.484375 0l0 5.4375q0 1.75 0.609375 2.53125q0.609375 0.78125 1.609375 0.78125q1.109375 0 1.859375 -0.859375q0.765625 -0.875 0.765625 -2.515625l0 -5.375l1.5 0l0 8.234375q0 0.515625 0.03125 0.84375q0.03125 0.328125 0.171875 0.671875l-1.46875 0q-0.140625 -0.3125 -0.1875 -0.65625q-0.03125 -0.34375 -0.03125 -0.84375q-0.46875 0.8125 -1.265625 1.28125q-0.796875 0.453125 -1.75 0.453125zm12.101624 -1.390625q1.484375 0 2.546875 -1.1875l0.890625 1.046875q-1.421875 1.53125 -3.515625 1.53125q-1.40625 0 -2.515625 -0.65625q-1.109375 -0.671875 -1.75 -1.828125q-0.625 -1.15625 -0.625 -2.609375q0 -1.453125 0.625 -2.59375q0.640625 -1.15625 1.75 -1.8125q1.109375 -0.671875 2.5 -0.671875q1.171875 0 2.125 0.484375q0.96875 0.46875 1.5625 1.328125l-0.96875 0.9375l-0.015625 0.015625q-0.625 -0.8125 -1.28125 -1.140625q-0.640625 -0.328125 -1.59375 -0.328125q-0.828125 0 -1.546875 0.46875q-0.71875 0.453125 -1.15625 1.28125q-0.421875 0.828125 -0.421875 1.921875q0 1.09375 0.4375 1.96875q0.4375 0.859375 1.21875 1.359375q0.78125 0.484375 1.734375 0.484375zm2.375 -5.984375q0 -0.125 0.1875 0.015625l-0.078125 0.09375l-0.109375 -0.109375zm0.234375 -0.03125q0.109375 0.15625 0.046875 0.109375q-0.046875 -0.046875 -0.09375 -0.0625l0.046875 -0.046875zm11.367218 6.28125q-1.40625 1.046875 -3.09375 1.046875q-1.625 0 -2.296875 -0.984375q-0.671875 -0.984375 -0.671875 -3.203125q0 -0.359375 0.046875 -1.265625l0.1875 -3.1875l-2.140625 0l0 -1.265625l2.234375 0l0.140625 -2.59375l1.71875 -0.28125l0.203125 -0.015625l0.03125 0.125q-0.15625 0.203125 -0.234375 0.359375q-0.0625 0.15625 -0.09375 0.46875l-0.234375 1.9375l3.25 0l0 1.265625l-3.328125 0l-0.203125 3.296875q-0.03125 0.859375 -0.03125 1.140625q0 1.703125 0.390625 2.3125q0.390625 0.609375 1.265625 0.609375q0.640625 0 1.171875 -0.234375q0.53125 -0.234375 1.21875 -0.75l0.46875 1.21875zm3.3359985 0.890625l0 -1.234375l2.484375 0l0 -7.28125l-2.359375 0l0 -1.234375l3.890625 0l0 8.515625l2.296875 0l0 1.234375l-6.3125 0zm3.171875 -11.796875q-0.4375 0 -0.765625 -0.3125q-0.3125 -0.328125 -0.3125 -0.765625q0 -0.46875 0.296875 -0.78125q0.3125 -0.328125 0.78125 -0.328125q0.453125 0 0.78125 0.328125q0.328125 0.328125 0.328125 0.78125q0 0.4375 -0.328125 0.765625q-0.328125 0.3125 -0.78125 0.3125zm10.679718 11.96875q-1.296875 0 -2.328125 -0.640625q-1.015625 -0.640625 -1.59375 -1.78125q-0.578125 -1.15625 -0.578125 -2.640625q0 -1.46875 0.578125 -2.609375q0.578125 -1.15625 1.59375 -1.796875q1.03125 -0.65625 2.328125 -0.65625q1.3125 0 2.328125 0.65625q1.03125 0.640625 1.59375 1.796875q0.578125 1.140625 0.578125 2.609375q0 1.484375 -0.578125 2.640625q-0.5625 1.140625 -1.59375 1.78125q-1.015625 0.640625 -2.328125 0.640625zm0 -1.28125q0.828125 0 1.484375 -0.484375q0.65625 -0.5 1.03125 -1.359375q0.375 -0.859375 0.375 -1.953125q0 -1.65625 -0.8125 -2.71875q-0.8125 -1.0625 -2.078125 -1.0625q-1.25 0 -2.0625 1.0625q-0.8125 1.0625 -0.8125 2.71875q0 1.09375 0.375 1.953125q0.375 0.859375 1.015625 1.359375q0.65625 0.484375 1.484375 0.484375zm6.8672485 -8.640625l1.5 0l0 1.734375q0.578125 -0.90625 1.453125 -1.4375q0.875 -0.53125 1.84375 -0.53125q1.3125 0 2.078125 1.0q0.78125 0.984375 0.78125 3.078125l0 5.90625l-1.484375 0l0 -5.859375q0 -1.453125 -0.5 -2.109375q-0.484375 -0.671875 -1.296875 -0.671875q-0.65625 0 -1.328125 0.390625q-0.671875 0.375 -1.109375 1.078125q-0.4375 0.6875 -0.4375 1.5625l0 5.609375l-1.5 0l0 -9.75zm15.164093 4.015625q1.84375 0.546875 2.59375 1.203125q0.765625 0.65625 0.765625 1.6875q0 1.328125 -1.046875 2.203125q-1.03125 0.859375 -2.984375 0.859375q-2.484375 0 -4.140625 -1.546875l0.84375 -1.4375l0.03125 -0.03125l0.015625 0.03125q0.65625 0.84375 1.359375 1.28125q0.71875 0.421875 1.921875 0.421875q1.15625 0 1.8125 -0.40625q0.671875 -0.421875 0.671875 -1.15625q0 -0.609375 -0.546875 -1.015625q-0.53125 -0.40625 -1.90625 -0.859375q-3.671875 -1.046875 -3.671875 -3.03125q0 -1.125 0.921875 -1.78125q0.9375 -0.671875 2.65625 -0.671875q1.328125 0 2.234375 0.375q0.90625 0.375 1.65625 1.15625l-0.875 1.078125l-0.03125 0.015625q-0.4375 -0.6875 -1.265625 -1.078125q-0.8125 -0.390625 -1.671875 -0.390625q-0.921875 0 -1.515625 0.328125q-0.578125 0.3125 -0.578125 0.890625q0 0.53125 0.59375 0.984375q0.609375 0.4375 2.15625 0.890625zm2.046875 -1.578125q0 -0.109375 0.171875 0.015625l-0.0625 0.09375l-0.109375 -0.109375zm0.234375 -0.046875q0.0625 0.09375 0.046875 0.109375q0 0.015625 -0.046875 0q-0.03125 -0.015625 -0.0625 -0.046875l0.0625 -0.0625zm-5.984375 4.5q0 0.09375 -0.1875 0l0.0625 -0.109375l0.125 0.09375l0 0.015625zm-0.234375 0.0625q-0.0625 -0.109375 -0.046875 -0.109375q0.015625 0 0.09375 0.046875l-0.046875 0.0625z" fill-rule="nonzero"/><path fill="#000000" fill-opacity="0.0" d="m368.25986 556.1483l244.25198 0l0 76.62988l-244.25198 0z" fill-rule="evenodd"/><path fill="#000000" d="m378.2911 572.34705l3.765625 0q2.21875 0 3.3125 0.859375q1.109375 0.859375 1.109375 2.359375q0 0.984375 -0.53125 1.8125q-0.515625 0.8125 -1.4375 1.125q1.109375 0.390625 1.796875 1.34375q0.703125 0.9375 0.703125 2.046875q0 1.75 -1.25 2.75q-1.234375 0.984375 -3.71875 0.984375l-3.75 0l0 -13.28125zm3.546875 5.5q3.140625 0 3.140625 -2.109375q0 -0.96875 -0.703125 -1.546875q-0.703125 -0.59375 -2.203125 -0.59375l-2.3125 0l0 4.25l2.078125 0zm0.453125 6.484375q3.140625 0 3.140625 -2.515625q0 -2.71875 -3.5 -2.71875l-2.171875 0l0 5.234375l2.53125 0zm15.085968 -8.453125q-0.125 0.875 -0.40625 1.734375q-0.265625 0.84375 -0.75 2.25l-2.4375 6.875q-0.484375 1.359375 -1.28125 1.984375q-0.78125 0.625 -1.875 0.625q-1.359375 0 -2.234375 -0.84375l0.65625 -1.046875l0.03125 -0.015625l0.015625 0.015625q0.34375 0.328125 0.71875 0.46875q0.390625 0.15625 0.90625 0.15625q0.78125 0 1.25 -0.5625q0.46875 -0.546875 0.921875 -1.828125l-3.984375 -9.8125l1.59375 0l3.03125 7.8125l1.28125 -3.921875q0.46875 -1.484375 0.6875 -2.25q0.234375 -0.78125 0.328125 -1.640625l1.546875 0zm-8.0625 11.5q0 0.046875 -0.046875 0.046875l-0.171875 -0.046875l0.09375 -0.109375l0.125 0.09375l0 0.015625zm-0.234375 0.0625q-0.109375 -0.109375 -0.0625 -0.09375q0.0625 0.03125 0.078125 0.03125l-0.015625 0.0625zm18.976624 -2.703125q-1.40625 1.046875 -3.09375 1.046875q-1.625 0 -2.296875 -0.984375q-0.671875 -0.984375 -0.671875 -3.203125q0 -0.359375 0.046875 -1.265625l0.1875 -3.1875l-2.140625 0l0 -1.265625l2.234375 0l0.140625 -2.59375l1.71875 -0.28125l0.203125 -0.015625l0.03125 0.125q-0.15625 0.203125 -0.234375 0.359375q-0.0625 0.15625 -0.09375 0.46875l-0.234375 1.9375l3.25 0l0 1.265625l-3.328125 0l-0.203125 3.296875q-0.03125 0.859375 -0.03125 1.140625q0 1.703125 0.390625 2.3125q0.390625 0.609375 1.265625 0.609375q0.640625 0 1.171875 -0.234375q0.53125 -0.234375 1.21875 -0.75l0.46875 1.21875zm6.992218 1.109375q-2.171875 0 -3.46875 -1.328125q-1.28125 -1.328125 -1.28125 -3.734375q0 -1.59375 0.59375 -2.75q0.59375 -1.171875 1.609375 -1.78125q1.015625 -0.609375 2.28125 -0.609375q1.765625 0 2.859375 1.171875q1.09375 1.171875 1.09375 3.453125q0 0.234375 -0.03125 0.703125l-6.9375 0q0.09375 1.796875 1.0 2.71875q0.921875 0.90625 2.328125 0.90625q1.53125 0 2.515625 -1.078125l0.859375 0.828125q-1.234375 1.5 -3.421875 1.5zm2.140625 -6.0625q0 -1.359375 -0.703125 -2.15625q-0.6875 -0.8125 -1.8125 -0.8125q-1.078125 0 -1.875 0.75q-0.78125 0.75 -0.96875 2.21875l5.359375 0zm8.882874 4.6875q1.484375 0 2.546875 -1.1875l0.890625 1.046875q-1.421875 1.53125 -3.515625 1.53125q-1.40625 0 -2.515625 -0.65625q-1.109375 -0.671875 -1.75 -1.828125q-0.625 -1.15625 -0.625 -2.609375q0 -1.453125 0.625 -2.59375q0.640625 -1.15625 1.75 -1.8125q1.109375 -0.671875 2.5 -0.671875q1.171875 0 2.125 0.484375q0.96875 0.46875 1.5625 1.328125l-0.96875 0.9375l-0.015625 0.015625q-0.625 -0.8125 -1.28125 -1.140625q-0.640625 -0.328125 -1.59375 -0.328125q-0.828125 0 -1.546875 0.46875q-0.71875 0.453125 -1.15625 1.28125q-0.421875 0.828125 -0.421875 1.921875q0 1.09375 0.4375 1.96875q0.4375 0.859375 1.21875 1.359375q0.78125 0.484375 1.734375 0.484375zm2.375 -5.984375q0 -0.125 0.1875 0.015625l-0.078125 0.09375l-0.109375 -0.109375zm0.234375 -0.03125q0.109375 0.15625 0.046875 0.109375q-0.046875 -0.046875 -0.09375 -0.0625l0.046875 -0.046875zm7.226593 7.34375q-1.296875 0 -2.328125 -0.640625q-1.015625 -0.640625 -1.59375 -1.78125q-0.578125 -1.15625 -0.578125 -2.640625q0 -1.46875 0.578125 -2.609375q0.578125 -1.15625 1.59375 -1.796875q1.03125 -0.65625 2.328125 -0.65625q1.3125 0 2.328125 0.65625q1.03125 0.640625 1.59375 1.796875q0.578125 1.140625 0.578125 2.609375q0 1.484375 -0.578125 2.640625q-0.5625 1.140625 -1.59375 1.78125q-1.015625 0.640625 -2.328125 0.640625zm0 -1.28125q0.828125 0 1.484375 -0.484375q0.65625 -0.5 1.03125 -1.359375q0.375 -0.859375 0.375 -1.953125q0 -1.65625 -0.8125 -2.71875q-0.8125 -1.0625 -2.078125 -1.0625q-1.25 0 -2.0625 1.0625q-0.8125 1.0625 -0.8125 2.71875q0 1.09375 0.375 1.953125q0.375 0.859375 1.015625 1.359375q0.65625 0.484375 1.484375 0.484375zm10.320374 1.328125q-1.03125 0 -1.953125 -0.578125q-0.921875 -0.59375 -1.5 -1.765625q-0.578125 -1.1875 -0.578125 -2.84375q0 -1.6875 0.59375 -2.8125q0.609375 -1.140625 1.546875 -1.671875q0.9375 -0.546875 1.984375 -0.546875q0.984375 0 1.71875 0.453125q0.734375 0.4375 1.109375 1.234375l0 -5.875l1.625 0l0 0.15625q-0.125 0.125 -0.15625 0.28125q-0.03125 0.140625 -0.03125 0.5l0.015625 11.734375q0 0.515625 0.03125 0.84375q0.03125 0.328125 0.1875 0.671875l-1.515625 0q-0.15625 -0.34375 -0.1875 -0.671875q-0.03125 -0.328125 -0.03125 -0.84375q-0.46875 0.8125 -1.203125 1.28125q-0.734375 0.453125 -1.65625 0.453125zm0.234375 -1.34375q1.328125 0 1.9375 -1.046875q0.625 -1.046875 0.625 -2.75q0 -1.734375 -0.671875 -2.78125q-0.671875 -1.046875 -2.015625 -1.046875q-1.28125 0 -1.96875 0.953125q-0.671875 0.953125 -0.671875 2.59375q0 1.875 0.703125 2.984375q0.71875 1.09375 2.0625 1.09375zm11.242218 1.34375q-2.171875 0 -3.46875 -1.328125q-1.28125 -1.328125 -1.28125 -3.734375q0 -1.59375 0.59375 -2.75q0.59375 -1.171875 1.609375 -1.78125q1.015625 -0.609375 2.28125 -0.609375q1.765625 0 2.859375 1.171875q1.09375 1.171875 1.09375 3.453125q0 0.234375 -0.03125 0.703125l-6.9375 0q0.09375 1.796875 1.0 2.71875q0.921875 0.90625 2.328125 0.90625q1.53125 0 2.515625 -1.078125l0.859375 0.828125q-1.234375 1.5 -3.421875 1.5zm2.140625 -6.0625q0 -1.359375 -0.703125 -2.15625q-0.6875 -0.8125 -1.8125 -0.8125q-1.078125 0 -1.875 0.75q-0.78125 0.75 -0.96875 2.21875l5.359375 0zm15.531342 5.84375l0 -1.234375l2.484375 0l0 -7.28125l-2.359375 0l0 -1.234375l3.890625 0l0 8.515625l2.296875 0l0 1.234375l-6.3125 0zm3.171875 -11.796875q-0.4375 0 -0.765625 -0.3125q-0.3125 -0.328125 -0.3125 -0.765625q0 -0.46875 0.296875 -0.78125q0.3125 -0.328125 0.78125 -0.328125q0.453125 0 0.78125 0.328125q0.328125 0.328125 0.328125 0.78125q0 0.4375 -0.328125 0.765625q-0.328125 0.3125 -0.78125 0.3125zm6.8828735 2.046875l1.5 0l0 1.734375q0.578125 -0.90625 1.453125 -1.4375q0.875 -0.53125 1.84375 -0.53125q1.3125 0 2.078125 1.0q0.78125 0.984375 0.78125 3.078125l0 5.90625l-1.484375 0l0 -5.859375q0 -1.453125 -0.5 -2.109375q-0.484375 -0.671875 -1.296875 -0.671875q-0.65625 0 -1.328125 0.390625q-0.671875 0.375 -1.109375 1.078125q-0.4375 0.6875 -0.4375 1.5625l0 5.609375l-1.5 0l0 -9.75zm15.164093 4.015625q1.84375 0.546875 2.59375 1.203125q0.765625 0.65625 0.765625 1.6875q0 1.328125 -1.046875 2.203125q-1.03125 0.859375 -2.984375 0.859375q-2.484375 0 -4.140625 -1.546875l0.84375 -1.4375l0.03125 -0.03125l0.015625 0.03125q0.65625 0.84375 1.359375 1.28125q0.71875 0.421875 1.921875 0.421875q1.15625 0 1.8125 -0.40625q0.671875 -0.421875 0.671875 -1.15625q0 -0.609375 -0.546875 -1.015625q-0.53125 -0.40625 -1.90625 -0.859375q-3.671875 -1.046875 -3.671875 -3.03125q0 -1.125 0.921875 -1.78125q0.9375 -0.671875 2.65625 -0.671875q1.328125 0 2.234375 0.375q0.90625 0.375 1.65625 1.15625l-0.875 1.078125l-0.03125 0.015625q-0.4375 -0.6875 -1.265625 -1.078125q-0.8125 -0.390625 -1.671875 -0.390625q-0.921875 0 -1.515625 0.328125q-0.578125 0.3125 -0.578125 0.890625q0 0.53125 0.59375 0.984375q0.609375 0.4375 2.15625 0.890625zm2.046875 -1.578125q0 -0.109375 0.171875 0.015625l-0.0625 0.09375l-0.109375 -0.109375zm0.234375 -0.046875q0.0625 0.09375 0.046875 0.109375q0 0.015625 -0.046875 0q-0.03125 -0.015625 -0.0625 -0.046875l0.0625 -0.0625zm-5.984375 4.5q0 0.09375 -0.1875 0l0.0625 -0.109375l0.125 0.09375l0 0.015625zm-0.234375 0.0625q-0.0625 -0.109375 -0.046875 -0.109375q0.015625 0 0.09375 0.046875l-0.046875 0.0625zm18.039093 1.90625q-1.40625 1.046875 -3.0937195 1.046875q-1.625 0 -2.296875 -0.984375q-0.671875 -0.984375 -0.671875 -3.203125q0 -0.359375 0.046875 -1.265625l0.1875 -3.1875l-2.140625 0l0 -1.265625l2.234375 0l0.140625 -2.59375l1.71875 -0.28125l0.203125 -0.015625l0.03125 0.125q-0.15625 0.203125 -0.234375 0.359375q-0.0625 0.15625 -0.09375 0.46875l-0.234375 1.9375l3.2499695 0l0 1.265625l-3.3280945 0l-0.203125 3.296875q-0.03125 0.859375 -0.03125 1.140625q0 1.703125 0.390625 2.3125q0.390625 0.609375 1.265625 0.609375q0.6405945 0 1.1718445 -0.234375q0.53125 -0.234375 1.21875 -0.75l0.46875 1.21875zm10.273499 -6.828125l0 0.015625q-0.609375 -0.578125 -1.03125 -0.765625q-0.40625 -0.1875 -0.96875 -0.1875q-0.765625 0 -1.453125 0.390625q-0.671875 0.375 -1.109375 1.15625q-0.421875 0.78125 -0.421875 1.953125l0 5.171875l-1.5625 0l0 -9.765625l1.609375 0l-0.046875 1.796875q0.40625 -0.96875 1.25 -1.5q0.84375 -0.53125 1.84375 -0.53125q1.5625 0 2.578125 1.0625l-0.6875 1.203125zm0 0.015625q0.15625 0.125 0.078125 0.109375q-0.078125 -0.015625 -0.109375 -0.046875l0.03125 -0.0625zm-0.234375 0.0625q0 -0.0625 0.0625 -0.046875q0.078125 0.015625 0.140625 0.046875l-0.046875 0.109375l-0.15625 -0.078125l0 -0.03125zm6.5391235 7.875q-1.546875 0 -2.46875 -1.140625q-0.90625 -1.140625 -0.890625 -3.40625l0.03125 -5.4375l1.484375 0l0 5.4375q0 1.75 0.609375 2.53125q0.609375 0.78125 1.609375 0.78125q1.109375 0 1.859375 -0.859375q0.765625 -0.875 0.765625 -2.515625l0 -5.375l1.5 0l0 8.234375q0 0.515625 0.03125 0.84375q0.03125 0.328125 0.171875 0.671875l-1.46875 0q-0.140625 -0.3125 -0.1875 -0.65625q-0.03125 -0.34375 -0.03125 -0.84375q-0.46875 0.8125 -1.265625 1.28125q-0.796875 0.453125 -1.75 0.453125zm12.101624 -1.390625q1.484375 0 2.546875 -1.1875l0.890625 1.046875q-1.421875 1.53125 -3.515625 1.53125q-1.40625 0 -2.515625 -0.65625q-1.109375 -0.671875 -1.75 -1.828125q-0.625 -1.15625 -0.625 -2.609375q0 -1.453125 0.625 -2.59375q0.640625 -1.15625 1.75 -1.8125q1.109375 -0.671875 2.5 -0.671875q1.171875 0 2.125 0.484375q0.96875 0.46875 1.5625 1.328125l-0.96875 0.9375l-0.015625 0.015625q-0.625 -0.8125 -1.28125 -1.140625q-0.640625 -0.328125 -1.59375 -0.328125q-0.828125 0 -1.546875 0.46875q-0.71875 0.453125 -1.15625 1.28125q-0.421875 0.828125 -0.421875 1.921875q0 1.09375 0.4375 1.96875q0.4375 0.859375 1.21875 1.359375q0.78125 0.484375 1.734375 0.484375zm2.375 -5.984375q0 -0.125 0.1875 0.015625l-0.078125 0.09375l-0.109375 -0.109375zm0.234375 -0.03125q0.109375 0.15625 0.046875 0.109375q-0.046875 -0.046875 -0.09375 -0.0625l0.046875 -0.046875zm11.3671875 6.28125q-1.40625 1.046875 -3.09375 1.046875q-1.625 0 -2.296875 -0.984375q-0.671875 -0.984375 -0.671875 -3.203125q0 -0.359375 0.046875 -1.265625l0.1875 -3.1875l-2.140625 0l0 -1.265625l2.234375 0l0.140625 -2.59375l1.71875 -0.28125l0.203125 -0.015625l0.03125 0.125q-0.15625 0.203125 -0.234375 0.359375q-0.0625 0.15625 -0.09375 0.46875l-0.234375 1.9375l3.25 0l0 1.265625l-3.328125 0l-0.203125 3.296875q-0.03125 0.859375 -0.03125 1.140625q0 1.703125 0.390625 2.3125q0.390625 0.609375 1.265625 0.609375q0.640625 0 1.171875 -0.234375q0.53125 -0.234375 1.21875 -0.75l0.46875 1.21875zm3.3359985 0.890625l0 -1.234375l2.484375 0l0 -7.28125l-2.359375 0l0 -1.234375l3.890625 0l0 8.515625l2.296875 0l0 1.234375l-6.3125 0zm3.171875 -11.796875q-0.4375 0 -0.765625 -0.3125q-0.3125 -0.328125 -0.3125 -0.765625q0 -0.46875 0.296875 -0.78125q0.3125 -0.328125 0.78125 -0.328125q0.453125 0 0.78125 0.328125q0.328125 0.328125 0.328125 0.78125q0 0.4375 -0.328125 0.765625q-0.328125 0.3125 -0.78125 0.3125zm10.679749 11.96875q-1.296875 0 -2.328125 -0.640625q-1.015625 -0.640625 -1.59375 -1.78125q-0.578125 -1.15625 -0.578125 -2.640625q0 -1.46875 0.578125 -2.609375q0.578125 -1.15625 1.59375 -1.796875q1.03125 -0.65625 2.328125 -0.65625q1.3125 0 2.328125 0.65625q1.03125 0.640625 1.59375 1.796875q0.578125 1.140625 0.578125 2.609375q0 1.484375 -0.578125 2.640625q-0.5625 1.140625 -1.59375 1.78125q-1.015625 0.640625 -2.328125 0.640625zm0 -1.28125q0.828125 0 1.484375 -0.484375q0.65625 -0.5 1.03125 -1.359375q0.375 -0.859375 0.375 -1.953125q0 -1.65625 -0.8125 -2.71875q-0.8125 -1.0625 -2.078125 -1.0625q-1.25 0 -2.0625 1.0625q-0.8125 1.0625 -0.8125 2.71875q0 1.09375 0.375 1.953125q0.375 0.859375 1.015625 1.359375q0.65625 0.484375 1.484375 0.484375zm6.8672485 -8.640625l1.5 0l0 1.734375q0.578125 -0.90625 1.453125 -1.4375q0.875 -0.53125 1.84375 -0.53125q1.3125 0 2.078125 1.0q0.78125 0.984375 0.78125 3.078125l0 5.90625l-1.484375 0l0 -5.859375q0 -1.453125 -0.5 -2.109375q-0.484375 -0.671875 -1.296875 -0.671875q-0.65625 0 -1.328125 0.390625q-0.671875 0.375 -1.109375 1.078125q-0.4375 0.6875 -0.4375 1.5625l0 5.609375l-1.5 0l0 -9.75zm15.1640625 4.015625q1.84375 0.546875 2.59375 1.203125q0.765625 0.65625 0.765625 1.6875q0 1.328125 -1.046875 2.203125q-1.03125 0.859375 -2.984375 0.859375q-2.484375 0 -4.140625 -1.546875l0.84375 -1.4375l0.03125 -0.03125l0.015625 0.03125q0.65625 0.84375 1.359375 1.28125q0.71875 0.421875 1.921875 0.421875q1.15625 0 1.8125 -0.40625q0.671875 -0.421875 0.671875 -1.15625q0 -0.609375 -0.546875 -1.015625q-0.53125 -0.40625 -1.90625 -0.859375q-3.671875 -1.046875 -3.671875 -3.03125q0 -1.125 0.921875 -1.78125q0.9375 -0.671875 2.65625 -0.671875q1.328125 0 2.234375 0.375q0.90625 0.375 1.65625 1.15625l-0.875 1.078125l-0.03125 0.015625q-0.4375 -0.6875 -1.265625 -1.078125q-0.8125 -0.390625 -1.671875 -0.390625q-0.921875 0 -1.515625 0.328125q-0.578125 0.3125 -0.578125 0.890625q0 0.53125 0.59375 0.984375q0.609375 0.4375 2.15625 0.890625zm2.046875 -1.578125q0 -0.109375 0.171875 0.015625l-0.0625 0.09375l-0.109375 -0.109375zm0.234375 -0.046875q0.0625 0.09375 0.046875 0.109375q0 0.015625 -0.046875 0q-0.03125 -0.015625 -0.0625 -0.046875l0.0625 -0.0625zm-5.984375 4.5q0 0.09375 -0.1875 0l0.0625 -0.109375l0.125 0.09375l0 0.015625zm-0.234375 0.0625q-0.0625 -0.109375 -0.046875 -0.109375q0.015625 0 0.09375 0.046875l-0.046875 0.0625z" fill-rule="nonzero"/><path fill="#000000" d="m382.46298 601.6752q2.09375 0 3.1875 1.09375q1.09375 1.078125 1.09375 3.671875l0 5.1875l-1.65625 0l0 -1.5q-0.890625 1.734375 -3.328125 1.734375q-1.625 0 -2.546875 -0.734375q-0.90625 -0.734375 -0.90625 -1.953125q0 -1.015625 0.65625 -1.78125q0.671875 -0.78125 1.78125 -1.1875q1.125 -0.421875 2.46875 -0.421875q1.21875 0 2.1875 0.125q-0.125 -1.640625 -0.859375 -2.3125q-0.734375 -0.671875 -2.1875 -0.671875q-0.71875 0 -1.390625 0.28125q-0.671875 0.28125 -1.234375 0.8125l-0.734375 -0.984375q1.359375 -1.359375 3.46875 -1.359375zm-0.546875 9.015625q1.578125 0 2.484375 -0.921875q0.921875 -0.9375 1.0 -2.6875q-0.953125 -0.140625 -2.0625 -0.140625q-1.625 0 -2.5625 0.53125q-0.9375 0.53125 -0.9375 1.625q0 1.59375 2.078125 1.59375zm15.085968 -6.78125l0 0.015625q-0.609375 -0.578125 -1.03125 -0.765625q-0.40625 -0.1875 -0.96875 -0.1875q-0.765625 0 -1.453125 0.390625q-0.671875 0.375 -1.109375 1.15625q-0.421875 0.78125 -0.421875 1.953125l0 5.171875l-1.5625 0l0 -9.765625l1.609375 0l-0.046875 1.796875q0.40625 -0.96875 1.25 -1.5q0.84375 -0.53125 1.84375 -0.53125q1.5625 0 2.578125 1.0625l-0.6875 1.203125zm0 0.015625q0.15625 0.125 0.078125 0.109375q-0.078125 -0.015625 -0.109375 -0.046875l0.03125 -0.0625zm-0.234375 0.0625q0 -0.0625 0.0625 -0.046875q0.078125 0.015625 0.140625 0.046875l-0.046875 0.109375l-0.15625 -0.078125l0 -0.03125zm7.6172485 7.859375q-2.171875 0 -3.46875 -1.328125q-1.28125 -1.328125 -1.28125 -3.734375q0 -1.59375 0.59375 -2.75q0.59375 -1.171875 1.609375 -1.78125q1.015625 -0.609375 2.28125 -0.609375q1.765625 0 2.859375 1.171875q1.09375 1.171875 1.09375 3.453125q0 0.234375 -0.03125 0.703125l-6.9375 0q0.09375 1.796875 1.0 2.71875q0.921875 0.90625 2.328125 0.90625q1.53125 0 2.515625 -1.078125l0.859375 0.828125q-1.234375 1.5 -3.421875 1.5zm2.140625 -6.0625q0 -1.359375 -0.703125 -2.15625q-0.6875 -0.8125 -1.8125 -0.8125q-1.078125 0 -1.875 0.75q-0.78125 0.75 -0.96875 2.21875l5.359375 0zm19.187592 6.0625q-2.171875 0 -3.46875 -1.328125q-1.28125 -1.328125 -1.28125 -3.734375q0 -1.59375 0.59375 -2.75q0.59375 -1.171875 1.609375 -1.78125q1.015625 -0.609375 2.28125 -0.609375q1.765625 0 2.859375 1.171875q1.09375 1.171875 1.09375 3.453125q0 0.234375 -0.03125 0.703125l-6.9375 0q0.09375 1.796875 1.0 2.71875q0.921875 0.90625 2.328125 0.90625q1.53125 0 2.515625 -1.078125l0.859375 0.828125q-1.234375 1.5 -3.421875 1.5zm2.140625 -6.0625q0 -1.359375 -0.703125 -2.15625q-0.6875 -0.8125 -1.8125 -0.8125q-1.078125 0 -1.875 0.75q-0.78125 0.75 -0.96875 2.21875l5.359375 0zm3.726593 5.84375l3.4375 -4.953125l-3.375 -4.796875l1.6875 0l2.546875 3.609375l2.421875 -3.609375l1.578125 0l-3.15625 4.734375l3.578125 5.015625l-1.734375 0l-2.6875 -3.796875l-2.546875 3.796875l-1.75 0zm15.460999 0.21875q-2.171875 0 -3.46875 -1.328125q-1.28125 -1.328125 -1.28125 -3.734375q0 -1.59375 0.59375 -2.75q0.59375 -1.171875 1.609375 -1.78125q1.015625 -0.609375 2.28125 -0.609375q1.765625 0 2.859375 1.171875q1.09375 1.171875 1.09375 3.453125q0 0.234375 -0.03125 0.703125l-6.9375 0q0.09375 1.796875 1.0 2.71875q0.921875 0.90625 2.328125 0.90625q1.53125 0 2.515625 -1.078125l0.859375 0.828125q-1.234375 1.5 -3.421875 1.5zm2.140625 -6.0625q0 -1.359375 -0.703125 -2.15625q-0.6875 -0.8125 -1.8125 -0.8125q-1.078125 0 -1.875 0.75q-0.78125 0.75 -0.96875 2.21875l5.359375 0zm8.882843 4.6875q1.484375 0 2.546875 -1.1875l0.890625 1.046875q-1.421875 1.53125 -3.515625 1.53125q-1.40625 0 -2.515625 -0.65625q-1.109375 -0.671875 -1.75 -1.828125q-0.625 -1.15625 -0.625 -2.609375q0 -1.453125 0.625 -2.59375q0.640625 -1.15625 1.75 -1.8125q1.109375 -0.671875 2.5 -0.671875q1.171875 0 2.125 0.484375q0.96875 0.46875 1.5625 1.328125l-0.96875 0.9375l-0.015625 0.015625q-0.625 -0.8125 -1.28125 -1.140625q-0.640625 -0.328125 -1.59375 -0.328125q-0.828125 0 -1.546875 0.46875q-0.71875 0.453125 -1.15625 1.28125q-0.421875 0.828125 -0.421875 1.921875q0 1.09375 0.4375 1.96875q0.4375 0.859375 1.21875 1.359375q0.78125 0.484375 1.734375 0.484375zm2.375 -5.984375q0 -0.125 0.1875 0.015625l-0.078125 0.09375l-0.109375 -0.109375zm0.234375 -0.03125q0.109375 0.15625 0.046875 0.109375q-0.046875 -0.046875 -0.09375 -0.0625l0.046875 -0.046875zm6.6172485 7.40625q-1.546875 0 -2.46875 -1.140625q-0.90625 -1.140625 -0.890625 -3.40625l0.03125 -5.4375l1.484375 0l0 5.4375q0 1.75 0.609375 2.53125q0.609375 0.78125 1.609375 0.78125q1.109375 0 1.859375 -0.859375q0.765625 -0.875 0.765625 -2.515625l0 -5.375l1.5 0l0 8.234375q0 0.515625 0.03125 0.84375q0.03125 0.328125 0.171875 0.671875l-1.46875 0q-0.140625 -0.3125 -0.1875 -0.65625q-0.03125 -0.34375 -0.03125 -0.84375q-0.46875 0.8125 -1.265625 1.28125q-0.796875 0.453125 -1.75 0.453125zm15.414093 -1.125q-1.40625 1.046875 -3.09375 1.046875q-1.625 0 -2.296875 -0.984375q-0.671875 -0.984375 -0.671875 -3.203125q0 -0.359375 0.046875 -1.265625l0.1875 -3.1875l-2.140625 0l0 -1.265625l2.234375 0l0.140625 -2.59375l1.71875 -0.28125l0.203125 -0.015625l0.03125 0.125q-0.15625 0.203125 -0.234375 0.359375q-0.0625 0.15625 -0.09375 0.46875l-0.234375 1.9375l3.25 0l0 1.265625l-3.328125 0l-0.203125 3.296875q-0.03125 0.859375 -0.03125 1.140625q0 1.703125 0.390625 2.3125q0.390625 0.609375 1.265625 0.609375q0.640625 0 1.171875 -0.234375q0.53125 -0.234375 1.21875 -0.75l0.46875 1.21875zm6.9922485 1.109375q-2.171875 0 -3.46875 -1.328125q-1.28125 -1.328125 -1.28125 -3.734375q0 -1.59375 0.59375 -2.75q0.59375 -1.171875 1.609375 -1.78125q1.015625 -0.609375 2.28125 -0.609375q1.765625 0 2.859375 1.171875q1.09375 1.171875 1.09375 3.453125q0 0.234375 -0.03125 0.703125l-6.9375 0q0.09375 1.796875 1.0 2.71875q0.921875 0.90625 2.328125 0.90625q1.53125 0 2.515625 -1.078125l0.859375 0.828125q-1.234375 1.5 -3.421875 1.5zm2.140625 -6.0625q0 -1.359375 -0.703125 -2.15625q-0.6875 -0.8125 -1.8125 -0.8125q-1.078125 0 -1.875 0.75q-0.78125 0.75 -0.96875 2.21875l5.359375 0zm7.710968 6.0625q-1.03125 0 -1.953125 -0.578125q-0.921875 -0.59375 -1.5 -1.765625q-0.578125 -1.1875 -0.578125 -2.84375q0 -1.6875 0.59375 -2.8125q0.609375 -1.140625 1.546875 -1.671875q0.9375 -0.546875 1.984375 -0.546875q0.984375 0 1.71875 0.453125q0.734375 0.4375 1.109375 1.234375l0 -5.875l1.625 0l0 0.15625q-0.125 0.125 -0.15625 0.28125q-0.03125 0.140625 -0.03125 0.5l0.015625 11.734375q0 0.515625 0.03125 0.84375q0.03125 0.328125 0.1875 0.671875l-1.515625 0q-0.15625 -0.34375 -0.1875 -0.671875q-0.03125 -0.328125 -0.03125 -0.84375q-0.46875 0.8125 -1.203125 1.28125q-0.734375 0.453125 -1.65625 0.453125zm0.234375 -1.34375q1.328125 0 1.9375 -1.046875q0.625 -1.046875 0.625 -2.75q0 -1.734375 -0.671875 -2.78125q-0.671875 -1.046875 -2.015625 -1.046875q-1.28125 0 -1.96875 0.953125q-0.671875 0.953125 -0.671875 2.59375q0 1.875 0.703125 2.984375q0.71875 1.09375 2.0625 1.09375zm21.781342 1.359375q-0.875 0 -1.625 -0.390625q-0.734375 -0.390625 -1.25 -1.125l-0.53125 1.28125l-0.984375 0l0 -14.1875l1.75 0l0 0.15625q-0.125 0.125 -0.15625 0.28125q-0.03125 0.140625 -0.03125 0.5l0 5.0q0.46875 -0.796875 1.265625 -1.265625q0.796875 -0.46875 1.625 -0.46875q1.84375 0 2.921875 1.28125q1.09375 1.28125 1.09375 3.734375q0 1.65625 -0.578125 2.84375q-0.578125 1.1875 -1.515625 1.78125q-0.9375 0.578125 -1.984375 0.578125zm-0.1875 -1.359375q1.15625 0 1.921875 -0.90625q0.765625 -0.90625 0.765625 -2.859375q0 -1.875 -0.71875 -2.8125q-0.71875 -0.953125 -1.921875 -0.953125q-1.203125 0 -1.953125 1.0625q-0.734375 1.0625 -0.734375 2.75q0 3.71875 2.640625 3.71875zm14.632874 -8.625q-0.125 0.875 -0.40625 1.734375q-0.265625 0.84375 -0.75 2.25l-2.4375 6.875q-0.484375 1.359375 -1.28125 1.984375q-0.78125 0.625 -1.875 0.625q-1.359375 0 -2.234375 -0.84375l0.65625 -1.046875l0.03125 -0.015625l0.015625 0.015625q0.34375 0.328125 0.71875 0.46875q0.390625 0.15625 0.90625 0.15625q0.78125 0 1.25 -0.5625q0.46875 -0.546875 0.921875 -1.828125l-3.984375 -9.8125l1.59375 0l3.03125 7.8125l1.28125 -3.921875q0.46875 -1.484375 0.6875 -2.25q0.234375 -0.78125 0.328125 -1.640625l1.546875 0zm-8.0625 11.5q0 0.046875 -0.046875 0.046875l-0.171875 -0.046875l0.09375 -0.109375l0.125 0.09375l0 0.015625zm-0.234375 0.0625q-0.109375 -0.109375 -0.0625 -0.09375q0.0625 0.03125 0.078125 0.03125l-0.015625 0.0625z" fill-rule="nonzero"/><path fill="#000000" d="m379.40048 637.6283l0 -1.234375l2.484375 0l0 -7.28125l-2.359375 0l0 -1.234375l3.890625 0l0 8.515625l2.296875 0l0 1.234375l-6.3125 0zm3.171875 -11.796875q-0.4375 0 -0.765625 -0.3125q-0.3125 -0.328125 -0.3125 -0.765625q0 -0.46875 0.296875 -0.78125q0.3125 -0.328125 0.78125 -0.328125q0.453125 0 0.78125 0.328125q0.328125 0.328125 0.328125 0.78125q0 0.4375 -0.328125 0.765625q-0.328125 0.3125 -0.78125 0.3125zm6.882843 2.046875l1.5 0l0 1.734375q0.578125 -0.90625 1.453125 -1.4375q0.875 -0.53125 1.84375 -0.53125q1.3125 0 2.078125 1.0q0.78125 0.984375 0.78125 3.078125l0 5.90625l-1.484375 0l0 -5.859375q0 -1.453125 -0.5 -2.109375q-0.484375 -0.671875 -1.296875 -0.671875q-0.65625 0 -1.328125 0.390625q-0.671875 0.375 -1.109375 1.078125q-0.4375 0.6875 -0.4375 1.5625l0 5.609375l-1.5 0l0 -9.75zm18.601624 8.859375q-1.40625 1.046875 -3.09375 1.046875q-1.625 0 -2.296875 -0.984375q-0.671875 -0.984375 -0.671875 -3.203125q0 -0.359375 0.046875 -1.265625l0.1875 -3.1875l-2.140625 0l0 -1.265625l2.234375 0l0.140625 -2.59375l1.71875 -0.28125l0.203125 -0.015625l0.03125 0.125q-0.15625 0.203125 -0.234375 0.359375q-0.0625 0.15625 -0.09375 0.46875l-0.234375 1.9375l3.25 0l0 1.265625l-3.328125 0l-0.203125 3.296875q-0.03125 0.859375 -0.03125 1.140625q0 1.703125 0.390625 2.3125q0.390625 0.609375 1.265625 0.609375q0.640625 0 1.171875 -0.234375q0.53125 -0.234375 1.21875 -0.75l0.46875 1.21875zm6.992218 1.109375q-2.171875 0 -3.46875 -1.328125q-1.28125 -1.328125 -1.28125 -3.734375q0 -1.59375 0.59375 -2.75q0.59375 -1.171875 1.609375 -1.78125q1.015625 -0.609375 2.28125 -0.609375q1.765625 0 2.859375 1.171875q1.09375 1.171875 1.09375 3.453125q0 0.234375 -0.03125 0.703125l-6.9375 0q0.09375 1.796875 1.0 2.71875q0.921875 0.90625 2.328125 0.90625q1.53125 0 2.515625 -1.078125l0.859375 0.828125q-1.234375 1.5 -3.421875 1.5zm2.140625 -6.0625q0 -1.359375 -0.703125 -2.15625q-0.6875 -0.8125 -1.8125 -0.8125q-1.078125 0 -1.875 0.75q-0.78125 0.75 -0.96875 2.21875l5.359375 0zm11.804749 -1.875l0 0.015625q-0.609375 -0.578125 -1.03125 -0.765625q-0.40625 -0.1875 -0.96875 -0.1875q-0.765625 0 -1.453125 0.390625q-0.671875 0.375 -1.109375 1.15625q-0.421875 0.78125 -0.421875 1.953125l0 5.171875l-1.5625 0l0 -9.765625l1.609375 0l-0.046875 1.796875q0.40625 -0.96875 1.25 -1.5q0.84375 -0.53125 1.84375 -0.53125q1.5625 0 2.578125 1.0625l-0.6875 1.203125zm0 0.015625q0.15625 0.125 0.078125 0.109375q-0.078125 -0.015625 -0.109375 -0.046875l0.03125 -0.0625zm-0.234375 0.0625q0 -0.0625 0.0625 -0.046875q0.078125 0.015625 0.140625 0.046875l-0.046875 0.109375l-0.15625 -0.078125l0 -0.03125zm3.101593 -2.109375l1.5625 0l0 1.921875q0.3125 -1.0625 1.09375 -1.59375q0.796875 -0.53125 1.859375 -0.53125q1.109375 0 2.03125 0.5625q0.9375 0.5625 1.484375 1.703125q0.5625 1.125 0.5625 2.734375q0 1.640625 -0.578125 2.828125q-0.578125 1.1875 -1.53125 1.78125q-0.9375 0.59375 -2.0 0.59375q-0.875 0 -1.65625 -0.390625q-0.765625 -0.40625 -1.25 -1.140625l0 4.84375l-1.578125 0l0 -13.3125zm4.21875 8.640625q1.171875 0 1.96875 -0.875q0.8125 -0.890625 0.8125 -2.90625q0 -1.8125 -0.703125 -2.78125q-0.703125 -0.96875 -2.015625 -0.96875q-1.21875 0 -1.96875 1.015625q-0.75 1.015625 -0.75 3.078125q0.03125 1.6875 0.734375 2.5625q0.703125 0.875 1.921875 0.875zm14.242249 -6.609375l0 0.015625q-0.609375 -0.578125 -1.03125 -0.765625q-0.40625 -0.1875 -0.96875 -0.1875q-0.765625 0 -1.453125 0.390625q-0.671875 0.375 -1.109375 1.15625q-0.421875 0.78125 -0.421875 1.953125l0 5.171875l-1.5625 0l0 -9.765625l1.609375 0l-0.046875 1.796875q0.40625 -0.96875 1.25 -1.5q0.84375 -0.53125 1.84375 -0.53125q1.5625 0 2.578125 1.0625l-0.6875 1.203125zm0 0.015625q0.15625 0.125 0.078125 0.109375q-0.078125 -0.015625 -0.109375 -0.046875l0.03125 -0.0625zm-0.234375 0.0625q0 -0.0625 0.0625 -0.046875q0.078125 0.015625 0.140625 0.046875l-0.046875 0.109375l-0.15625 -0.078125l0 -0.03125zm7.617218 7.859375q-2.171875 0 -3.46875 -1.328125q-1.28125 -1.328125 -1.28125 -3.734375q0 -1.59375 0.59375 -2.75q0.59375 -1.171875 1.609375 -1.78125q1.015625 -0.609375 2.28125 -0.609375q1.765625 0 2.859375 1.171875q1.09375 1.171875 1.09375 3.453125q0 0.234375 -0.03125 0.703125l-6.9375 0q0.09375 1.796875 1.0 2.71875q0.921875 0.90625 2.328125 0.90625q1.53125 0 2.515625 -1.078125l0.859375 0.828125q-1.234375 1.5 -3.421875 1.5zm2.140625 -6.0625q0 -1.359375 -0.703125 -2.15625q-0.6875 -0.8125 -1.8125 -0.8125q-1.078125 0 -1.875 0.75q-0.78125 0.75 -0.96875 2.21875l5.359375 0zm12.195374 4.953125q-1.40625 1.046875 -3.09375 1.046875q-1.625 0 -2.296875 -0.984375q-0.671875 -0.984375 -0.671875 -3.203125q0 -0.359375 0.046875 -1.265625l0.1875 -3.1875l-2.140625 0l0 -1.265625l2.234375 0l0.140625 -2.59375l1.71875 -0.28125l0.203125 -0.015625l0.03125 0.125q-0.15625 0.203125 -0.234375 0.359375q-0.0625 0.15625 -0.09375 0.46875l-0.234375 1.9375l3.25 0l0 1.265625l-3.328125 0l-0.203125 3.296875q-0.03125 0.859375 -0.03125 1.140625q0 1.703125 0.390625 2.3125q0.390625 0.609375 1.265625 0.609375q0.640625 0 1.171875 -0.234375q0.53125 -0.234375 1.21875 -0.75l0.46875 1.21875zm6.992218 1.109375q-2.171875 0 -3.46875 -1.328125q-1.28125 -1.328125 -1.28125 -3.734375q0 -1.59375 0.59375 -2.75q0.59375 -1.171875 1.609375 -1.78125q1.015625 -0.609375 2.28125 -0.609375q1.765625 0 2.859375 1.171875q1.09375 1.171875 1.09375 3.453125q0 0.234375 -0.03125 0.703125l-6.9375 0q0.09375 1.796875 1.0 2.71875q0.921875 0.90625 2.328125 0.90625q1.53125 0 2.515625 -1.078125l0.859375 0.828125q-1.234375 1.5 -3.421875 1.5zm2.140625 -6.0625q0 -1.359375 -0.703125 -2.15625q-0.6875 -0.8125 -1.8125 -0.8125q-1.078125 0 -1.875 0.75q-0.78125 0.75 -0.96875 2.21875l5.359375 0zm11.804749 -1.875l0 0.015625q-0.609375 -0.578125 -1.03125 -0.765625q-0.40625 -0.1875 -0.96875 -0.1875q-0.765625 0 -1.453125 0.390625q-0.671875 0.375 -1.109375 1.15625q-0.421875 0.78125 -0.421875 1.953125l0 5.171875l-1.5625 0l0 -9.765625l1.609375 0l-0.046875 1.796875q0.40625 -0.96875 1.25 -1.5q0.84375 -0.53125 1.84375 -0.53125q1.5625 0 2.578125 1.0625l-0.6875 1.203125zm0 0.015625q0.15625 0.125 0.078125 0.109375q-0.078125 -0.015625 -0.109375 -0.046875l0.03125 -0.0625zm-0.234375 0.0625q0 -0.0625 0.0625 -0.046875q0.078125 0.015625 0.140625 0.046875l-0.046875 0.109375l-0.15625 -0.078125l0 -0.03125z" fill-rule="nonzero"/></g></svg>