<svg version="1.1" viewBox="0.0 0.0 1300.5354330708662 944.9527559055118" fill="none" stroke="none" stroke-linecap="square" stroke-miterlimit="10" xmlns:xlink="http://www.w3.org/1999/xlink" xmlns="http://www.w3.org/2000/svg"><clipPath id="p.0"><path d="m0 0l1300.5354 0l0 944.95276l-1300.5354 0l0 -944.95276z" clip-rule="nonzero"/></clipPath><g clip-path="url(#p.0)"><path fill="#000000" fill-opacity="0.0" d="m0 0l1300.5354 0l0 944.95276l-1300.5354 0z" fill-rule="evenodd"/><g filter="url(#shadowFilter-p.1)"><use xlink:href="#p.1" transform="matrix(1.0 0.0 0.0 1.0 0.0 2.0)"/></g><defs><filter id="shadowFilter-p.1" filterUnits="userSpaceOnUse"><feGaussianBlur in="SourceAlpha" stdDeviation="2.0" result="blur"/><feComponentTransfer in="blur" color-interpolation-filters="sRGB"><feFuncR type="linear" slope="0" intercept="0.0"/><feFuncG type="linear" slope="0" intercept="0.0"/><feFuncB type="linear" slope="0" intercept="0.0"/><feFuncA type="linear" slope="0.5" intercept="0"/></feComponentTransfer></filter></defs><g id="p.1"><path fill="#cfe2f3" d="m228.80315 221.11023l168.66142 0l0 168.94489l-168.66142 0z" fill-rule="evenodd"/><path stroke="#000000" stroke-width="4.0" stroke-linejoin="round" stroke-linecap="butt" d="m228.80315 221.11023l168.66142 0l0 168.94489l-168.66142 0z" fill-rule="evenodd"/></g><g filter="url(#shadowFilter-p.2)"><use xlink:href="#p.2" transform="matrix(1.0 0.0 0.0 1.0 0.0 2.0)"/></g><defs><filter id="shadowFilter-p.2" filterUnits="userSpaceOnUse"><feGaussianBlur in="SourceAlpha" stdDeviation="2.0" result="blur"/><feComponentTransfer in="blur" color-interpolation-filters="sRGB"><feFuncR type="linear" slope="0" intercept="0.0"/><feFuncG type="linear" slope="0" intercept="0.0"/><feFuncB type="linear" slope="0" intercept="0.0"/><feFuncA type="linear" slope="0.5" intercept="0"/></feComponentTransfer></filter></defs><g id="p.2"><path fill="#cfe2f3" d="m228.80315 390.0551l168.66142 0l0 168.94489l-168.66142 0z" fill-rule="evenodd"/><path stroke="#000000" stroke-width="4.0" stroke-linejoin="round" stroke-linecap="butt" d="m228.80315 390.0551l168.66142 0l0 168.94489l-168.66142 0z" fill-rule="evenodd"/></g><g filter="url(#shadowFilter-p.3)"><use xlink:href="#p.3" transform="matrix(1.0 0.0 0.0 1.0 0.0 2.0)"/></g><defs><filter id="shadowFilter-p.3" filterUnits="userSpaceOnUse"><feGaussianBlur in="SourceAlpha" stdDeviation="2.0" result="blur"/><feComponentTransfer in="blur" color-interpolation-filters="sRGB"><feFuncR type="linear" slope="0" intercept="0.0"/><feFuncG type="linear" slope="0" intercept="0.0"/><feFuncB type="linear" slope="0" intercept="0.0"/><feFuncA type="linear" slope="0.5" intercept="0"/></feComponentTransfer></filter></defs><g id="p.3"><path fill="#cfe2f3" d="m228.80315 559.0l168.66142 0l0 168.94489l-168.66142 0z" fill-rule="evenodd"/><path stroke="#000000" stroke-width="4.0" stroke-linejoin="round" stroke-linecap="butt" d="m228.80315 559.0l168.66142 0l0 168.94489l-168.66142 0z" fill-rule="evenodd"/></g><g filter="url(#shadowFilter-p.4)"><use xlink:href="#p.4" transform="matrix(1.0 0.0 0.0 1.0 0.0 2.0)"/></g><defs><filter id="shadowFilter-p.4" filterUnits="userSpaceOnUse"><feGaussianBlur in="SourceAlpha" stdDeviation="2.0" result="blur"/><feComponentTransfer in="blur" color-interpolation-filters="sRGB"><feFuncR type="linear" slope="0" intercept="0.0"/><feFuncG type="linear" slope="0" intercept="0.0"/><feFuncB type="linear" slope="0" intercept="0.0"/><feFuncA type="linear" slope="0.5" intercept="0"/></feComponentTransfer></filter></defs><g id="p.4"><path fill="#cfe2f3" d="m228.80315 727.9449l168.66142 0l0 168.94489l-168.66142 0z" fill-rule="evenodd"/><path stroke="#000000" stroke-width="4.0" stroke-linejoin="round" stroke-linecap="butt" d="m228.80315 727.9449l168.66142 0l0 168.94489l-168.66142 0z" fill-rule="evenodd"/></g><path fill="#000000" fill-opacity="0.0" d="m141.16536 66.0l343.937 0l0 61.984253l-343.937 0z" fill-rule="evenodd"/><path fill="#000000" d="m208.17703 89.52025q1.984375 0 3.796875 -1.09375q1.8125 -1.09375 2.9375 -2.953125l2.765625 1.8125q-1.65625 2.71875 -3.90625 4.078125q-2.234375 1.359375 -5.421875 1.359375q-3.734375 0 -6.640625 -1.828125q-2.90625 -1.84375 -4.640625 -5.625q-1.734375 -3.796875 -1.734375 -9.5q0 -6.140625 1.859375 -9.953125q1.875 -3.8125 4.75 -5.453125q2.875 -1.65625 6.1875 -1.65625q3.515625 0 6.09375 1.765625q2.59375 1.75 3.9375 4.78125l-3.203125 1.5q-0.046875 0 -0.046875 -0.015625q0 -0.03125 0 -0.03125q-1.390625 -2.78125 -3.109375 -3.890625q-1.703125 -1.125 -3.78125 -1.125q-4.203125 0 -6.640625 3.65625q-2.421875 3.640625 -2.421875 10.15625q0 4.109375 1.21875 7.3125q1.234375 3.1875 3.34375 4.953125q2.109375 1.75 4.65625 1.75zm6.140625 -22.921875q0.109375 -0.109375 0.109375 -0.109375q0.109375 0 0.421875 0.3125l-0.375 0.171875l-0.15625 -0.375zm0.640625 0.15625q0.21875 0.484375 -0.109375 0.046875l0.109375 -0.046875zm36.84366 25.4375l0 -3.09375l6.25 0l0 -18.1875l-5.921875 0l0 -3.09375l9.75 0l0 21.28125l5.71875 0l0 3.09375l-15.796875 0zm7.9375 -29.484375q-1.109375 0 -1.921875 -0.796875q-0.796875 -0.8125 -0.796875 -1.921875q0 -1.1875 0.765625 -1.984375q0.78125 -0.796875 1.953125 -0.796875q1.125 0 1.953125 0.828125q0.828125 0.828125 0.828125 1.953125q0 1.109375 -0.828125 1.921875q-0.828125 0.796875 -1.953125 0.796875zm17.242126 5.109375l3.734375 0l0 4.328125q1.4375 -2.25 3.625 -3.578125q2.1875 -1.328125 4.640625 -1.328125q3.25 0 5.1875 2.484375q1.953125 2.46875 1.953125 7.703125l0 14.765625l-3.734375 0l0 -14.671875q0 -3.625 -1.234375 -5.265625q-1.21875 -1.65625 -3.25 -1.65625q-1.640625 0 -3.328125 0.96875q-1.671875 0.953125 -2.765625 2.6875q-1.09375 1.71875 -1.09375 3.90625l0 14.03125l-3.734375 0l0 -24.375zm46.492157 22.140625q-3.515625 2.609375 -7.734375 2.609375q-4.046875 0 -5.734375 -2.453125q-1.671875 -2.453125 -1.671875 -8.0q0 -0.90625 0.109375 -3.140625l0.484375 -8.0l-5.390625 0l0 -3.15625l5.59375 0l0.375 -6.5l4.265625 -0.6875l0.53125 -0.0625l0.0625 0.328125q-0.375 0.53125 -0.5625 0.90625q-0.1875 0.359375 -0.234375 1.171875l-0.59375 4.84375l8.109375 0l0 3.15625l-8.328125 0l-0.46875 8.265625q-0.109375 2.125 -0.109375 2.828125q0 4.265625 0.984375 5.78125q0.984375 1.515625 3.171875 1.515625q1.59375 0 2.921875 -0.578125q1.34375 -0.59375 3.046875 -1.875l1.171875 3.046875zm17.492126 2.765625q-5.4375 0 -8.671875 -3.296875q-3.21875 -3.3125 -3.21875 -9.34375q0 -4.0 1.484375 -6.90625q1.5 -2.90625 4.03125 -4.421875q2.546875 -1.515625 5.6875 -1.515625q4.421875 0 7.171875 2.9375q2.75 2.921875 2.75 8.625q0 0.59375 -0.109375 1.765625l-17.328125 0q0.203125 4.484375 2.5 6.78125q2.296875 2.28125 5.8125 2.28125q3.84375 0 6.296875 -2.71875l2.125 2.078125q-3.09375 3.734375 -8.53125 3.734375zm5.34375 -15.140625q0 -3.421875 -1.734375 -5.421875q-1.734375 -2.0 -4.5625 -2.0q-2.671875 0 -4.640625 1.875q-1.96875 1.859375 -2.453125 5.546875l13.390625 0zm32.148407 -7.25q-0.484375 -0.0625 -1.390625 -0.0625q-2.546875 0 -4.265625 1.125q0.90625 1.8125 0.90625 4.0q0 2.390625 -1.046875 4.34375q-1.03125 1.953125 -2.984375 3.078125q-1.9375 1.109375 -4.5 1.109375q-2.015625 0 -3.78125 -0.75q-0.953125 1.171875 -0.953125 2.25q0 1.265625 1.625 1.828125q1.625 0.5625 5.828125 0.5625q5.171875 0 7.0625 1.578125q1.90625 1.578125 1.90625 4.609375q0 3.140625 -2.5625 5.25q-2.5625 2.109375 -8.0 2.109375q-5.21875 0 -8.1875 -1.609375q-2.953125 -1.59375 -2.953125 -4.6875q0 -1.921875 1.0625 -3.296875q1.0625 -1.390625 2.71875 -2.1875q-1.765625 -1.171875 -1.765625 -3.25q0 -2.140625 2.1875 -4.484375q-1.328125 -1.171875 -2.03125 -2.828125q-0.6875 -1.65625 -0.6875 -3.625q0 -2.34375 1.03125 -4.28125q1.046875 -1.953125 3.0 -3.078125q1.953125 -1.125 4.5 -1.125q3.890625 0 6.25 2.515625q1.28125 -1.171875 2.640625 -1.734375q1.359375 -0.5625 3.0 -0.5625l0.90625 0.046875l0.484375 3.15625zm-13.28125 10.390625q2.296875 0 3.8125 -1.546875q1.53125 -1.546875 1.53125 -3.78125q0 -2.234375 -1.53125 -3.78125q-1.515625 -1.546875 -3.8125 -1.546875q-2.28125 0 -3.8125 1.546875q-1.515625 1.546875 -1.515625 3.78125q0 2.234375 1.515625 3.78125q1.53125 1.546875 3.8125 1.546875zm8.171875 13.875q0 -1.28125 -0.453125 -2.0q-0.453125 -0.71875 -1.796875 -1.0625q-1.328125 -0.359375 -4.0 -0.359375q-3.84375 0 -6.125 -0.6875q-1.28125 0.84375 -1.796875 1.75q-0.5 0.90625 -0.5 2.40625q0 1.8125 2.015625 2.828125q2.03125 1.015625 5.65625 1.015625q3.53125 0 5.265625 -1.046875q1.734375 -1.03125 1.734375 -2.84375zm20.945251 -1.875q-5.4375 0 -8.671875 -3.296875q-3.21875 -3.3125 -3.21875 -9.34375q0 -4.0 1.484375 -6.90625q1.5 -2.90625 4.03125 -4.421875q2.546875 -1.515625 5.6875 -1.515625q4.421875 0 7.171875 2.9375q2.75 2.921875 2.75 8.625q0 0.59375 -0.109375 1.765625l-17.328125 0q0.203125 4.484375 2.5 6.78125q2.296875 2.28125 5.8125 2.28125q3.84375 0 6.296875 -2.71875l2.125 2.078125q-3.09375 3.734375 -8.53125 3.734375zm5.34375 -15.140625q0 -3.421875 -1.734375 -5.421875q-1.734375 -2.0 -4.5625 -2.0q-2.671875 0 -4.640625 1.875q-1.96875 1.859375 -2.453125 5.546875l13.390625 0zm29.539032 -4.703125l0 0.0625q-1.546875 -1.4375 -2.59375 -1.921875q-1.03125 -0.484375 -2.421875 -0.484375q-1.921875 0 -3.625 0.96875q-1.703125 0.953125 -2.78125 2.90625q-1.0625 1.9375 -1.0625 4.875l0 12.953125l-3.890625 0l0 -24.421875l4.0 0l-0.109375 4.484375q1.015625 -2.40625 3.125 -3.734375q2.109375 -1.328125 4.609375 -1.328125q3.890625 0 6.453125 2.65625l-1.703125 2.984375zm0 0.0625q0.375 0.3125 0.1875 0.265625q-0.1875 -0.046875 -0.296875 -0.109375l0.109375 -0.15625zm-0.59375 0.15625q0 -0.15625 0.15625 -0.125q0.171875 0.015625 0.328125 0.125l-0.109375 0.265625l-0.375 -0.203125l0 -0.0625z" fill-rule="nonzero"/><path fill="#000000" d="m207.13394 143.39212l0 -2.3125l4.6875 0l0 -13.640625l-4.453125 0l0 -2.328125l7.328125 0l0 15.96875l4.28125 0l0 2.3125l-11.84375 0zm5.953125 -22.125q-0.84375 0 -1.4375 -0.59375q-0.59375 -0.59375 -0.59375 -1.4375q0 -0.890625 0.578125 -1.484375q0.578125 -0.59375 1.453125 -0.59375q0.84375 0 1.453125 0.625q0.625 0.609375 0.625 1.453125q0 0.84375 -0.625 1.4375q-0.609375 0.59375 -1.453125 0.59375zm12.92186 3.84375l2.8125 0l0 3.234375q1.078125 -1.671875 2.71875 -2.671875q1.640625 -1.0 3.46875 -1.0q2.4375 0 3.890625 1.859375q1.46875 1.859375 1.46875 5.78125l0 11.078125l-2.796875 0l0 -11.0q0 -2.71875 -0.921875 -3.953125q-0.921875 -1.25 -2.4375 -1.25q-1.234375 0 -2.5 0.71875q-1.265625 0.71875 -2.078125 2.03125q-0.8125 1.296875 -0.8125 2.9375l0 10.515625l-2.8125 0l0 -18.28125zm34.89061 16.59375q-2.640625 1.96875 -5.8125 1.96875q-3.03125 0 -4.296875 -1.84375q-1.25 -1.84375 -1.25 -6.0q0 -0.671875 0.078125 -2.359375l0.359375 -6.0l-4.046875 0l0 -2.359375l4.203125 0l0.28125 -4.875l3.203125 -0.53125l0.390625 -0.03125l0.046875 0.234375q-0.28125 0.40625 -0.421875 0.6875q-0.140625 0.28125 -0.1875 0.875l-0.4375 3.640625l6.078125 0l0 2.359375l-6.234375 0l-0.359375 6.203125q-0.078125 1.59375 -0.078125 2.125q0 3.1875 0.734375 4.328125q0.75 1.140625 2.390625 1.140625q1.1875 0 2.1875 -0.4375q1.0 -0.4375 2.28125 -1.390625l0.890625 2.265625zm31.99997 -17.0q3.921875 0 5.96875 2.046875q2.0625 2.046875 2.0625 6.921875l0 9.71875l-3.109375 0l0 -2.796875q-1.6875 3.234375 -6.25 3.234375q-3.03125 0 -4.765625 -1.375q-1.71875 -1.375 -1.71875 -3.65625q0 -1.921875 1.234375 -3.359375q1.25 -1.453125 3.34375 -2.21875q2.109375 -0.78125 4.625 -0.78125q2.28125 0 4.125 0.234375q-0.234375 -3.078125 -1.625 -4.328125q-1.375 -1.265625 -4.09375 -1.265625q-1.359375 0 -2.625 0.515625q-1.25 0.515625 -2.296875 1.515625l-1.40625 -1.84375q2.5625 -2.5625 6.53125 -2.5625zm-1.046875 16.921875q2.96875 0 4.6875 -1.734375q1.71875 -1.734375 1.875 -5.015625q-1.796875 -0.28125 -3.875 -0.28125q-3.046875 0 -4.8125 1.0q-1.75 1.0 -1.75 3.03125q0 3.0 3.875 3.0zm33.078094 -13.3125l0 -2.4375l16.4375 0l0 2.4375l-16.4375 0zm0 6.28125l0 -2.4375l16.4375 0l0 2.4375l-16.4375 0zm47.40622 8.796875l0 -21.484375l-5.046875 1.484375l-0.640625 -1.5625l6.53125 -3.390625l1.953125 0l0 24.953125l-2.796875 0zm20.796844 -25.078125q3.6875 0 5.703125 3.40625q2.015625 3.390625 2.015625 9.359375q0 6.109375 -2.0 9.4375q-2.0 3.3125 -5.71875 3.3125q-3.71875 0 -5.71875 -3.3125q-2.0 -3.328125 -2.0 -9.4375q0 -5.96875 2.015625 -9.359375q2.015625 -3.40625 5.703125 -3.40625zm0 2.4375q-2.28125 0 -3.5625 2.78125q-1.28125 2.78125 -1.28125 7.546875q0 2.59375 0.359375 4.59375l8.484375 -10.96875q-0.59375 -1.90625 -1.625 -2.921875q-1.015625 -1.03125 -2.375 -1.03125zm0 20.640625q2.28125 0 3.5625 -2.671875q1.28125 -2.6875 1.28125 -7.640625q0 -2.328125 -0.28125 -4.0l-8.484375 10.796875q1.28125 3.515625 3.921875 3.515625zm19.515625 -10.3125q-0.921875 0 -1.640625 -0.6875q-0.71875 -0.6875 -0.71875 -1.59375q0 -0.96875 0.703125 -1.640625q0.703125 -0.6875 1.65625 -0.6875q0.96875 0 1.6875 0.6875q0.71875 0.671875 0.71875 1.640625q0 0.90625 -0.71875 1.59375q-0.71875 0.6875 -1.6875 0.6875zm-2.921875 17.828125q1.125 -1.03125 1.859375 -2.234375q0.75 -1.203125 0.75 -1.96875q0 -0.359375 -0.203125 -0.59375q-0.203125 -0.234375 -0.71875 -0.71875q-0.5625 -0.515625 -0.84375 -0.875q-0.28125 -0.359375 -0.28125 -0.890625q0 -1.0 0.65625 -1.671875q0.671875 -0.6875 1.703125 -0.6875q1.078125 0 1.890625 0.953125q0.828125 0.9375 0.828125 2.375q0 3.109375 -4.28125 7.515625l-1.359375 -1.203125z" fill-rule="nonzero"/><g filter="url(#shadowFilter-p.5)"><use xlink:href="#p.5" transform="matrix(1.0 0.0 0.0 1.0 0.0 2.0)"/></g><defs><filter id="shadowFilter-p.5" filterUnits="userSpaceOnUse"><feGaussianBlur in="SourceAlpha" stdDeviation="2.0" result="blur"/><feComponentTransfer in="blur" color-interpolation-filters="sRGB"><feFuncR type="linear" slope="0" intercept="0.0"/><feFuncG type="linear" slope="0" intercept="0.0"/><feFuncB type="linear" slope="0" intercept="0.0"/><feFuncA type="linear" slope="0.5" intercept="0"/></feComponentTransfer></filter></defs><g id="p.5"><path fill="#cfe2f3" d="m726.80316 390.0551l299.2126 0l0 168.94489l-299.2126 0z" fill-rule="evenodd"/><path stroke="#000000" stroke-width="4.0" stroke-linejoin="round" stroke-linecap="butt" d="m726.80316 390.0551l299.2126 0l0 168.94489l-299.2126 0z" fill-rule="evenodd"/></g><path fill="#000000" fill-opacity="0.0" d="m247.19685 443.53543l131.87401 0l0 61.984253l-131.87401 0z" fill-rule="evenodd"/><path fill="#000000" d="m298.73547 493.72757l0 -28.640625l-6.71875 1.984375l-0.859375 -2.09375l8.703125 -4.53125l2.609375 0l0 33.28125l-3.734375 0zm27.726501 -33.4375q4.90625 0 7.59375 4.53125q2.703125 4.53125 2.703125 12.484375q0 8.15625 -2.671875 12.59375q-2.65625 4.421875 -7.625 4.421875q-4.953125 0 -7.625 -4.421875q-2.65625 -4.4375 -2.65625 -12.59375q0 -7.953125 2.6875 -12.484375q2.6875 -4.53125 7.59375 -4.53125zm0 3.25q-3.03125 0 -4.75 3.71875q-1.703125 3.703125 -1.703125 10.046875q0 3.46875 0.484375 6.125l11.3125 -14.609375q-0.8125 -2.5625 -2.171875 -3.921875q-1.359375 -1.359375 -3.171875 -1.359375zm0 27.515625q3.046875 0 4.75 -3.5625q1.703125 -3.578125 1.703125 -10.1875q0 -3.09375 -0.375 -5.34375l-11.296875 14.40625q1.703125 4.6875 5.21875 4.6875z" fill-rule="nonzero"/><path fill="#000000" fill-opacity="0.0" d="m211.98425 559.0c-12.698196 0 -22.992126 -1.7155762 -22.992126 -3.8318481l0 -76.808716c0 -2.1163025 -10.29393 -3.8318787 -22.992126 -3.8318787l0 0c12.698196 0 22.992126 -1.7155762 22.992126 -3.8318787l0 -76.808685l0 0c0 -2.1163025 10.29393 -3.8318787 22.992126 -3.8318787z" fill-rule="evenodd"/><path fill="#000000" fill-opacity="0.0" d="m211.98425 559.0c-12.698196 0 -22.992126 -1.7155762 -22.992126 -3.8318481l0 -76.808716c0 -2.1163025 -10.29393 -3.8318787 -22.992126 -3.8318787l0 0c12.698196 0 22.992126 -1.7155762 22.992126 -3.8318787l0 -76.808685l0 0c0 -2.1163025 10.29393 -3.8318787 22.992126 -3.8318787" fill-rule="evenodd"/><path stroke="#000000" stroke-width="4.0" stroke-linejoin="round" stroke-linecap="butt" d="m211.98425 559.0c-12.698196 0 -22.992126 -1.7155762 -22.992126 -3.8318481l0 -76.808716c0 -2.1163025 -10.29393 -3.8318787 -22.992126 -3.8318787l0 0c12.698196 0 22.992126 -1.7155762 22.992126 -3.8318787l0 -76.808685l0 0c0 -2.1163025 10.29393 -3.8318787 22.992126 -3.8318787" fill-rule="evenodd"/><path fill="#000000" fill-opacity="0.0" d="m-2.6614172 443.53543l168.66142 0l0 61.984253l-168.66142 0z" fill-rule="evenodd"/><path fill="#000000" d="m32.036427 486.80756l0 -5.296875l-9.359373 0l0 -1.765625l9.890623 -14.5625l2.03125 0l0 14.3125l2.78125 0l0 2.046875l-2.78125 0l0 5.265625l-2.5625 0zm-6.546873 -7.34375l6.546873 0l0 -9.921875l-6.546873 9.921875zm39.40628 7.71875q-1.4218788 0 -2.6406288 -0.640625q-1.203125 -0.640625 -2.03125 -1.8125l-0.875 2.078125l-1.59375 0l0 -23.046875l2.84375 0l0 0.25q-0.203125 0.203125 -0.265625 0.453125q-0.046875 0.234375 -0.046875 0.828125l0 8.109375q0.765625 -1.28125 2.0625 -2.046875q1.296875 -0.765625 2.6562538 -0.765625q2.96875 0 4.734375 2.078125q1.78125 2.078125 1.78125 6.0625q0 2.703125 -0.9375 4.625q-0.9375 1.921875 -2.46875 2.875q-1.515625 0.953125 -3.21875 0.953125zm-0.3125 -2.21875q1.875 0 3.109375 -1.46875q1.25 -1.46875 1.25 -4.625q0 -3.046875 -1.15625 -4.59375q-1.15625 -1.546875 -3.140625 -1.546875q-1.9375038 0 -3.1562538 1.734375q-1.203125 1.734375 -1.203125 4.484375q0 6.015625 4.296879 6.015625zm23.781265 -14.0q-0.21875 1.421875 -0.65625 2.8125q-0.421875 1.390625 -1.21875 3.671875l-3.953125 11.15625q-0.796875 2.21875 -2.078125 3.21875q-1.28125 1.015625 -3.046875 1.015625q-2.21875 0 -3.640625 -1.359375l1.078125 -1.6875l0.03125 -0.03125l0.03125 0.03125q0.546875 0.515625 1.171875 0.75q0.625 0.25 1.46875 0.25q1.28125 0 2.03125 -0.90625q0.765625 -0.890625 1.5 -2.96875l-6.484375 -15.953125l2.59375 0l4.921875 12.6875l2.078125 -6.375q0.765625 -2.390625 1.125 -3.65625q0.375 -1.265625 0.546875 -2.65625l2.5 0zm-13.109375 18.6875q0 0.0625 -0.0625 0.0625l-0.28125 -0.0625l0.140625 -0.171875l0.203125 0.140625l0 0.03125zm-0.375 0.109375q-0.171875 -0.1875 -0.09375 -0.15625q0.09375 0.046875 0.125 0.046875l-0.03125 0.109375zm30.843765 -4.40625q-2.296875 1.703125 -5.03125 1.703125q-2.625 0 -3.71875 -1.59375q-1.09375 -1.609375 -1.09375 -5.203125q0 -0.59375 0.0625 -2.046875l0.3125 -5.203125l-3.5 0l0 -2.046875l3.640625 0l0.25 -4.21875l2.765625 -0.453125l0.34375 -0.03125l0.046875 0.203125q-0.25 0.34375 -0.375 0.59375q-0.125 0.234375 -0.15625 0.765625l-0.375 3.140625l5.265625 0l0 2.046875l-5.40625 0l-0.3125 5.375q-0.0625 1.390625 -0.0625 1.84375q0 2.765625 0.640625 3.75q0.640625 0.984375 2.0625 0.984375q1.03125 0 1.890625 -0.375q0.875 -0.375 1.984375 -1.21875l0.765625 1.984375zm11.35939 1.796875q-3.53125 0 -5.625 -2.140625q-2.09375 -2.15625 -2.09375 -6.0625q0 -2.609375 0.96875 -4.5q0.96875 -1.890625 2.609375 -2.875q1.65625 -0.984375 3.6875 -0.984375q2.890625 0 4.671875 1.90625q1.78125 1.90625 1.78125 5.609375q0 0.390625 -0.0625 1.140625l-11.265625 0q0.140625 2.921875 1.625 4.421875q1.484375 1.484375 3.78125 1.484375q2.484375 0 4.078125 -1.78125l1.390625 1.359375q-2.0 2.421875 -5.546875 2.421875zm3.46875 -9.84375q0 -2.21875 -1.125 -3.515625q-1.125 -1.296875 -2.96875 -1.296875q-1.734375 0 -3.015625 1.21875q-1.28125 1.203125 -1.59375 3.59375l8.703125 0zm14.250008 0.171875q2.96875 0.90625 4.203125 1.96875q1.234375 1.046875 1.234375 2.75q0 2.15625 -1.6875 3.5625q-1.671875 1.390625 -4.859375 1.390625q-4.03125 0 -6.7343674 -2.5l1.3906174 -2.34375l0.03125 -0.046875l0.046875 0.046875q1.0625 1.375 2.203125 2.078125q1.15625 0.6875 3.125 0.6875q1.875 0 2.9375 -0.671875q1.078125 -0.671875 1.078125 -1.859375q0 -1.0 -0.859375 -1.65625q-0.859375 -0.65625 -3.125 -1.390625q-5.9531174 -1.703125 -5.9531174 -4.921875q0 -1.84375 1.4999924 -2.90625q1.515625 -1.078125 4.328125 -1.078125q2.140625 0 3.609375 0.609375q1.484375 0.609375 2.6875 1.890625l-1.421875 1.734375l-0.03125 0.03125q-0.734375 -1.109375 -2.0625 -1.75q-1.328125 -0.640625 -2.71875 -0.640625q-1.484375 0 -2.4375 0.515625q-0.953125 0.515625 -0.953125 1.453125q0 0.875 0.96875 1.609375q0.96875 0.71875 3.5 1.4375zm3.328125 -2.5625q0 -0.171875 0.265625 0.03125l-0.09375 0.140625l-0.171875 -0.171875zm0.375 -0.0625q0.109375 0.140625 0.078125 0.171875q-0.015625 0.03125 -0.078125 0q-0.0625 -0.03125 -0.109375 -0.078125l0.109375 -0.09375zm-9.734375 7.3125q0 0.140625 -0.3125 0l0.09375 -0.171875l0.21875 0.140625l0 0.03125zm-0.390625 0.09375q-0.09375 -0.171875 -0.0625 -0.171875q0.03125 0 0.140625 0.078125l-0.078125 0.09375z" fill-rule="nonzero"/><g filter="url(#shadowFilter-p.6)"><use xlink:href="#p.6" transform="matrix(1.0 0.0 0.0 1.0 0.0 2.0)"/></g><defs><filter id="shadowFilter-p.6" filterUnits="userSpaceOnUse"><feGaussianBlur in="SourceAlpha" stdDeviation="2.0" result="blur"/><feComponentTransfer in="blur" color-interpolation-filters="sRGB"><feFuncR type="linear" slope="0" intercept="0.0"/><feFuncG type="linear" slope="0" intercept="0.0"/><feFuncB type="linear" slope="0" intercept="0.0"/><feFuncA type="linear" slope="0.5" intercept="0"/></feComponentTransfer></filter></defs><g id="p.6"><path fill="#cfe2f3" d="m726.80316 559.0l299.2126 0l0 168.94489l-299.2126 0z" fill-rule="evenodd"/><path stroke="#000000" stroke-width="4.0" stroke-linejoin="round" stroke-linecap="butt" d="m726.80316 559.0l299.2126 0l0 168.94489l-299.2126 0z" fill-rule="evenodd"/></g><path fill="#000000" fill-opacity="0.0" d="m726.80316 443.53543l299.2126 0l0 61.984253l-299.2126 0z" fill-rule="evenodd"/><path fill="#000000" d="m740.2925 463.40942l8.53125 0q4.21875 0 6.3125 2.09375q2.09375 2.09375 2.09375 5.421875q0 3.28125 -2.046875 5.3125q-2.046875 2.015625 -6.140625 2.015625l-5.671875 0l0 11.734375l-3.078125 0l0 -26.578125zm8.40625 12.203125q2.8125 0 4.125 -1.21875q1.328125 -1.21875 1.328125 -3.390625q0 -2.09375 -1.359375 -3.4375q-1.359375 -1.34375 -4.046875 -1.34375l-5.375 0l0 9.390625l5.328125 0zm29.296814 -5.125q-0.25 1.75 -0.78125 3.46875q-0.53125 1.703125 -1.515625 4.515625l-4.859375 13.734375q-0.984375 2.734375 -2.5625 3.96875q-1.578125 1.234375 -3.75 1.234375q-2.734375 0 -4.484375 -1.65625l1.328125 -2.09375l0.03125 -0.046875l0.046875 0.046875q0.6875 0.640625 1.453125 0.9375q0.765625 0.296875 1.796875 0.296875q1.578125 0 2.515625 -1.109375q0.9375 -1.109375 1.828125 -3.671875l-7.96875 -19.625l3.1875 0l6.0625 15.625l2.5625 -7.859375q0.9375 -2.9375 1.375 -4.484375q0.453125 -1.5625 0.671875 -3.28125l3.0625 0zm-16.125 23.0q0 0.078125 -0.078125 0.078125l-0.34375 -0.078125l0.171875 -0.21875l0.25 0.171875l0 0.046875zm-0.46875 0.125q-0.203125 -0.21875 -0.109375 -0.171875q0.109375 0.046875 0.15625 0.046875l-0.046875 0.125zm29.6875 -3.15625q-4.5625 0 -7.03125 -3.53125q-2.46875 -3.546875 -2.46875 -10.078125q0 -6.359375 2.484375 -9.984375q2.5 -3.625 7.015625 -3.625q4.53125 0 7.015625 3.625q2.5 3.625 2.5 9.984375q0 6.53125 -2.46875 10.078125q-2.46875 3.53125 -7.046875 3.53125zm0 -2.59375q3.078125 0 4.765625 -2.859375q1.6875 -2.859375 1.6875 -8.15625q0 -5.078125 -1.71875 -8.03125q-1.703125 -2.96875 -4.734375 -2.96875q-3.015625 0 -4.734375 2.96875q-1.703125 2.953125 -1.703125 8.03125q0 5.296875 1.6875 8.15625q1.6875 2.859375 4.75 2.859375zm22.015564 2.59375q-1.75 0 -3.25 -0.78125q-1.484375 -0.796875 -2.5 -2.25l-1.078125 2.5625l-1.953125 0l0 -28.359375l3.5 0l0 0.296875q-0.265625 0.25 -0.328125 0.546875q-0.0625 0.296875 -0.0625 1.03125l0 9.96875q0.9375 -1.578125 2.53125 -2.515625q1.609375 -0.9375 3.265625 -0.9375q3.671875 0 5.84375 2.5625q2.1875 2.5625 2.1875 7.46875q0 3.328125 -1.15625 5.703125q-1.15625 2.359375 -3.03125 3.53125q-1.875 1.171875 -3.96875 1.171875zm-0.375 -2.734375q2.296875 0 3.828125 -1.8125q1.546875 -1.8125 1.546875 -5.6875q0 -3.75 -1.4375 -5.640625q-1.421875 -1.90625 -3.859375 -1.90625q-2.390625 0 -3.890625 2.140625q-1.484375 2.125 -1.484375 5.484375q0 7.421875 5.296875 7.421875zm26.09375 -17.234375l0 18.5625q0 4.21875 -2.09375 6.28125q-2.078125 2.078125 -5.359375 2.078125q-1.890625 0 -3.515625 -0.6875q-1.609375 -0.671875 -2.71875 -2.046875l1.703125 -2.296875l0.046875 -0.046875l0.046875 0.046875q0.84375 1.109375 1.890625 1.75q1.046875 0.640625 2.5 0.640625q2.0 0 3.1875 -1.375q1.203125 -1.359375 1.203125 -4.171875l0 -16.21875l-7.25 0l0 -2.515625l10.359375 0zm-11.46875 21.765625q0 0.125 -0.125 0.078125q-0.125 -0.046875 -0.265625 -0.125l0.140625 -0.171875l0.25 0.171875l0 0.046875zm-0.46875 0.078125q-0.125 -0.21875 -0.09375 -0.21875q0.046875 0 0.171875 0.09375l-0.078125 0.125zm10.140625 -25.9375q-0.890625 0 -1.53125 -0.640625q-0.640625 -0.640625 -0.640625 -1.53125q0 -0.9375 0.609375 -1.578125q0.625 -0.640625 1.5625 -0.640625q0.90625 0 1.5625 0.671875q0.65625 0.65625 0.65625 1.546875q0 0.890625 -0.65625 1.53125q-0.65625 0.640625 -1.5625 0.640625zm18.999939 24.015625q-4.359375 0 -6.9375 -2.640625q-2.578125 -2.640625 -2.578125 -7.46875q0 -3.1875 1.1875 -5.515625q1.203125 -2.328125 3.21875 -3.546875q2.03125 -1.21875 4.546875 -1.21875q3.546875 0 5.734375 2.359375q2.203125 2.34375 2.203125 6.90625q0 0.46875 -0.09375 1.40625l-13.859375 0q0.171875 3.578125 2.0 5.421875q1.84375 1.828125 4.65625 1.828125q3.078125 0 5.03125 -2.171875l1.703125 1.65625q-2.46875 2.984375 -6.8125 2.984375zm4.265625 -12.109375q0 -2.734375 -1.390625 -4.328125q-1.390625 -1.59375 -3.65625 -1.59375q-2.125 0 -3.703125 1.5q-1.578125 1.484375 -1.96875 4.421875l10.71875 0zm17.78125 9.390625q2.9375 0 5.078125 -2.390625l1.78125 2.078125q-2.84375 3.078125 -7.03125 3.078125q-2.8125 0 -5.03125 -1.3125q-2.21875 -1.328125 -3.484375 -3.65625q-1.25 -2.328125 -1.25 -5.21875q0 -2.90625 1.25 -5.203125q1.265625 -2.3125 3.484375 -3.625q2.21875 -1.328125 4.984375 -1.328125q2.34375 0 4.265625 0.96875q1.921875 0.953125 3.125 2.65625l-1.921875 1.875l-0.046875 0.046875q-1.234375 -1.625 -2.546875 -2.28125q-1.296875 -0.671875 -3.21875 -0.671875q-1.65625 0 -3.09375 0.921875q-1.421875 0.921875 -2.28125 2.59375q-0.84375 1.65625 -0.84375 3.828125q0 2.171875 0.875 3.921875q0.875 1.75 2.421875 2.734375q1.5625 0.984375 3.484375 0.984375zm4.734375 -12.0q0 -0.25 0.390625 0.046875l-0.171875 0.171875l-0.21875 -0.21875zm0.46875 -0.03125q0.21875 0.296875 0.109375 0.21875q-0.109375 -0.09375 -0.1875 -0.140625l0.078125 -0.078125zm22.734314 12.53125q-2.8125 2.09375 -6.1875 2.09375q-3.234375 0 -4.578125 -1.953125q-1.34375 -1.96875 -1.34375 -6.40625q0 -0.71875 0.078125 -2.515625l0.390625 -6.40625l-4.3125 0l0 -2.515625l4.484375 0l0.296875 -5.203125l3.40625 -0.546875l0.4375 -0.046875l0.03125 0.25q-0.296875 0.4375 -0.453125 0.734375q-0.140625 0.296875 -0.1875 0.9375l-0.46875 3.875l6.484375 0l0 2.515625l-6.65625 0l-0.375 6.625q-0.09375 1.703125 -0.09375 2.25q0 3.421875 0.78125 4.640625q0.796875 1.203125 2.546875 1.203125q1.28125 0 2.34375 -0.46875q1.078125 -0.46875 2.4375 -1.484375l0.9375 2.421875zm3.890625 5.203125l0 -2.59375l18.375 0l0 2.59375l-18.375 0zm21.953064 -29.984375l3.5 0l0 0.296875q-0.25 0.265625 -0.3125 0.5625q-0.0625 0.296875 -0.0625 1.015625l0 9.46875l10.40625 0l0 -11.34375l3.5 0l0 0.296875q-0.265625 0.265625 -0.328125 0.5625q-0.0625 0.296875 -0.0625 1.015625l0 24.703125l-3.15625 0l0 -12.671875l-10.359375 0l0 12.671875l-3.125 0l0 -26.578125zm21.71875 26.578125l0 -26.625l16.296875 0l0 2.65625l-13.484375 0l0 8.734375l11.140625 0l0 2.734375l-11.140625 0l0 9.859375l13.359375 0l0 2.640625l-16.171875 0zm36.390564 0l-2.6875 -7.765625l-8.578125 0l-2.6875 7.765625l-2.9375 0l9.8125 -27.046875l0.328125 0l9.8125 27.046875l-3.0625 0zm-10.453125 -10.0625l7.0 0l-3.5 -10.15625l-3.5 10.15625zm16.5 -16.515625l6.1875 0q3.28125 0 5.203125 0.875q1.921875 0.875 3.328125 2.75q2.609375 3.5 2.609375 9.8125q-0.265625 6.4375 -3.0 9.828125q-2.71875 3.390625 -8.640625 3.359375l-5.6875 0l0 -26.625zm5.546875 24.28125q8.796875 0 8.796875 -10.671875q-0.046875 -5.421875 -2.015625 -8.25q-1.953125 -2.84375 -6.3125 -2.84375l-3.1875 0l0 21.765625l2.71875 0z" fill-rule="nonzero"/><path fill="#000000" fill-opacity="0.0" d="m666.1102 66.0l420.5984 0l0 61.984253l-420.5984 0z" fill-rule="evenodd"/><path fill="#000000" d="m692.902 58.973373l10.671875 0q5.28125 0 7.890625 2.609375q2.609375 2.609375 2.609375 6.765625q0 4.109375 -2.5625 6.640625q-2.546875 2.53125 -7.671875 2.53125l-7.09375 0l0 14.671875l-3.84375 0l0 -33.21875zm10.515625 15.25q3.515625 0 5.171875 -1.515625q1.65625 -1.53125 1.65625 -4.25q0 -2.609375 -1.71875 -4.28125q-1.703125 -1.6875 -5.0625 -1.6875l-6.71875 0l0 11.734375l6.671875 0zm36.63275 -6.40625q-0.328125 2.1875 -1.0 4.328125q-0.65625 2.125 -1.875 5.640625l-6.078125 17.171875q-1.234375 3.421875 -3.203125 4.96875q-1.96875 1.546875 -4.703125 1.546875q-3.40625 0 -5.59375 -2.078125l1.65625 -2.609375l0.046875 -0.0625l0.0625 0.0625q0.84375 0.796875 1.796875 1.15625q0.96875 0.375 2.25 0.375q1.96875 0 3.140625 -1.390625q1.1875 -1.375 2.296875 -4.578125l-9.96875 -24.53125l4.0 0l7.578125 19.515625l3.1875 -9.8125q1.171875 -3.671875 1.734375 -5.609375q0.5625 -1.953125 0.828125 -4.09375l3.84375 0zm-20.15625 28.75q0 0.109375 -0.109375 0.109375l-0.421875 -0.109375l0.203125 -0.265625l0.328125 0.203125l0 0.0625zm-0.59375 0.15625q-0.265625 -0.265625 -0.140625 -0.21875q0.140625 0.0625 0.203125 0.0625l-0.0625 0.15625zm47.460876 -6.765625q-3.515625 2.609375 -7.734375 2.609375q-4.046875 0 -5.734375 -2.453125q-1.671875 -2.453125 -1.671875 -8.0q0 -0.90625 0.109375 -3.140625l0.484375 -8.0l-5.390625 0l0 -3.15625l5.59375 0l0.375 -6.5l4.265625 -0.6875l0.53125 -0.0625l0.0625 0.328125q-0.375 0.53125 -0.5625 0.90625q-0.1875 0.359375 -0.234375 1.171875l-0.59375 4.84375l8.109375 0l0 3.15625l-8.328125 0l-0.46875 8.265625q-0.109375 2.125 -0.109375 2.828125q0 4.265625 0.984375 5.78125q0.984375 1.515625 3.171875 1.515625q1.59375 0 2.921875 -0.578125q1.34375 -0.59375 3.046875 -1.875l1.171875 3.046875zm6.8828125 -33.234375l4.21875 0l0 0.375q-0.328125 0.328125 -0.40625 0.703125q-0.078125 0.375 -0.078125 1.28125l0 13.0625q1.4375 -2.25 3.59375 -3.578125q2.171875 -1.328125 4.40625 -1.328125q3.46875 0 5.4375 2.453125q1.96875 2.453125 1.96875 7.734375l0 14.765625l-3.71875 0l0 -14.671875q0 -3.625 -1.234375 -5.265625q-1.21875 -1.65625 -3.25 -1.65625q-1.703125 0 -3.359375 0.9375q-1.65625 0.921875 -2.75 2.65625q-1.09375 1.734375 -1.09375 3.96875l0 14.03125l-3.734375 0l0 -35.46875zm36.1015 35.890625q-3.25 0 -5.8125 -1.59375q-2.5625 -1.59375 -4.0 -4.46875q-1.4375 -2.890625 -1.4375 -6.578125q0 -3.671875 1.4375 -6.546875q1.4375 -2.890625 4.0 -4.515625q2.5625 -1.625 5.8125 -1.625q3.25 0 5.8125 1.625q2.5625 1.625 4.0 4.515625q1.4375 2.875 1.4375 6.546875q0 3.6875 -1.4375 6.578125q-1.4375 2.875 -4.0 4.46875q-2.5625 1.59375 -5.8125 1.59375zm0 -3.1875q2.078125 0 3.703125 -1.21875q1.640625 -1.234375 2.5625 -3.390625q0.9375 -2.171875 0.9375 -4.890625q0 -4.15625 -2.03125 -6.796875q-2.015625 -2.640625 -5.171875 -2.640625q-3.140625 0 -5.171875 2.640625q-2.03125 2.640625 -2.03125 6.796875q0 2.71875 0.9375 4.890625q0.9375 2.15625 2.5625 3.390625q1.625 1.21875 3.703125 1.21875zm17.179626 -21.609375l3.734375 0l0 4.328125q1.4375 -2.25 3.625 -3.578125q2.1875 -1.328125 4.640625 -1.328125q3.25 0 5.1875 2.484375q1.953125 2.46875 1.953125 7.703125l0 14.765625l-3.734375 0l0 -14.671875q0 -3.625 -1.234375 -5.265625q-1.21875 -1.65625 -3.25 -1.65625q-1.640625 0 -3.328125 0.96875q-1.671875 0.953125 -2.765625 2.6875q-1.09375 1.71875 -1.09375 3.90625l0 14.03125l-3.734375 0l0 -24.375zm54.81244 24.375l0 -3.09375l6.25 0l0 -18.1875l-5.921875 0l0 -3.09375l9.75 0l0 21.28125l5.71875 0l0 3.09375l-15.796875 0zm7.9375 -29.484375q-1.109375 0 -1.921875 -0.796875q-0.796875 -0.8125 -0.796875 -1.921875q0 -1.1875 0.765625 -1.984375q0.78125 -0.796875 1.953125 -0.796875q1.125 0 1.953125 0.828125q0.828125 0.828125 0.828125 1.953125q0 1.109375 -0.828125 1.921875q-0.828125 0.796875 -1.953125 0.796875zm17.242126 5.109375l3.734375 0l0 4.328125q1.4375 -2.25 3.625 -3.578125q2.1875 -1.328125 4.640625 -1.328125q3.25 0 5.1875 2.484375q1.953125 2.46875 1.953125 7.703125l0 14.765625l-3.734375 0l0 -14.671875q0 -3.625 -1.234375 -5.265625q-1.21875 -1.65625 -3.25 -1.65625q-1.640625 0 -3.328125 0.96875q-1.671875 0.953125 -2.765625 2.6875q-1.09375 1.71875 -1.09375 3.90625l0 14.03125l-3.734375 0l0 -24.375zm46.492126 22.140625q-3.515625 2.609375 -7.734375 2.609375q-4.046875 0 -5.734375 -2.453125q-1.671875 -2.453125 -1.671875 -8.0q0 -0.90625 0.109375 -3.140625l0.484375 -8.0l-5.390625 0l0 -3.15625l5.59375 0l0.375 -6.5l4.265625 -0.6875l0.53125 -0.0625l0.0625 0.328125q-0.375 0.53125 -0.5625 0.90625q-0.1875 0.359375 -0.234375 1.171875l-0.59375 4.84375l8.109375 0l0 3.15625l-8.328125 0l-0.46875 8.265625q-0.109375 2.125 -0.109375 2.828125q0 4.265625 0.984375 5.78125q0.984375 1.515625 3.171875 1.515625q1.59375 0 2.921875 -0.578125q1.34375 -0.59375 3.046875 -1.875l1.171875 3.046875zm17.492126 2.765625q-5.4375 0 -8.671875 -3.296875q-3.21875 -3.3125 -3.21875 -9.34375q0 -4.0 1.484375 -6.90625q1.5 -2.90625 4.03125 -4.421875q2.546875 -1.515625 5.6875 -1.515625q4.421875 0 7.171875 2.9375q2.75 2.921875 2.75 8.625q0 0.59375 -0.109375 1.765625l-17.328125 0q0.203125 4.484375 2.5 6.78125q2.296875 2.28125 5.8125 2.28125q3.84375 0 6.296875 -2.71875l2.125 2.078125q-3.09375 3.734375 -8.53125 3.734375zm5.34375 -15.140625q0 -3.421875 -1.734375 -5.421875q-1.734375 -2.0 -4.5625 -2.0q-2.671875 0 -4.640625 1.875q-1.96875 1.859375 -2.453125 5.546875l13.390625 0zm32.148438 -7.25q-0.484375 -0.0625 -1.390625 -0.0625q-2.546875 0 -4.265625 1.125q0.90625 1.8125 0.90625 4.0q0 2.390625 -1.046875 4.34375q-1.03125 1.953125 -2.984375 3.078125q-1.9375 1.109375 -4.5 1.109375q-2.015625 0 -3.78125 -0.75q-0.953125 1.171875 -0.953125 2.25q0 1.265625 1.625 1.828125q1.625 0.5625 5.828125 0.5625q5.171875 0 7.0625 1.578125q1.90625 1.578125 1.90625 4.609375q0 3.140625 -2.5625 5.25q-2.5625 2.109375 -8.0 2.109375q-5.21875 0 -8.1875 -1.609375q-2.953125 -1.59375 -2.953125 -4.6875q0 -1.921875 1.0625 -3.296875q1.0625 -1.390625 2.71875 -2.1875q-1.765625 -1.171875 -1.765625 -3.25q0 -2.140625 2.1875 -4.484375q-1.328125 -1.171875 -2.03125 -2.828125q-0.6875 -1.65625 -0.6875 -3.625q0 -2.34375 1.03125 -4.28125q1.046875 -1.953125 3.0 -3.078125q1.953125 -1.125 4.5 -1.125q3.890625 0 6.25 2.515625q1.28125 -1.171875 2.640625 -1.734375q1.359375 -0.5625 3.0 -0.5625l0.90625 0.046875l0.484375 3.15625zm-13.28125 10.390625q2.296875 0 3.8125 -1.546875q1.53125 -1.546875 1.53125 -3.78125q0 -2.234375 -1.53125 -3.78125q-1.515625 -1.546875 -3.8125 -1.546875q-2.28125 0 -3.8125 1.546875q-1.515625 1.546875 -1.515625 3.78125q0 2.234375 1.515625 3.78125q1.53125 1.546875 3.8125 1.546875zm8.171875 13.875q0 -1.28125 -0.453125 -2.0q-0.453125 -0.71875 -1.796875 -1.0625q-1.328125 -0.359375 -4.0 -0.359375q-3.84375 0 -6.125 -0.6875q-1.28125 0.84375 -1.796875 1.75q-0.5 0.90625 -0.5 2.40625q0 1.8125 2.015625 2.828125q2.03125 1.015625 5.65625 1.015625q3.53125 0 5.265625 -1.046875q1.734375 -1.03125 1.734375 -2.84375zm20.945312 -1.875q-5.437561 0 -8.671936 -3.296875q-3.21875 -3.3125 -3.21875 -9.34375q0 -4.0 1.484375 -6.90625q1.5 -2.90625 4.03125 -4.421875q2.546875 -1.515625 5.6875 -1.515625q4.421936 0 7.171936 2.9375q2.75 2.921875 2.75 8.625q0 0.59375 -0.109375 1.765625l-17.328186 0q0.203125 4.484375 2.5 6.78125q2.296875 2.28125 5.812561 2.28125q3.84375 0 6.296875 -2.71875l2.125 2.078125q-3.09375 3.734375 -8.53125 3.734375zm5.34375 -15.140625q0 -3.421875 -1.734375 -5.421875q-1.734375 -2.0 -4.562561 -2.0q-2.671875 0 -4.640625 1.875q-1.96875 1.859375 -2.453125 5.546875l13.390686 0zm29.53894 -4.703125l0 0.0625q-1.546875 -1.4375 -2.59375 -1.921875q-1.03125 -0.484375 -2.421875 -0.484375q-1.921875 0 -3.625 0.96875q-1.703125 0.953125 -2.78125 2.90625q-1.0625 1.9375 -1.0625 4.875l0 12.953125l-3.890625 0l0 -24.421875l4.0 0l-0.109375 4.484375q1.015625 -2.40625 3.125 -3.734375q2.109375 -1.328125 4.609375 -1.328125q3.890625 0 6.453125 2.65625l-1.703125 2.984375zm0 0.0625q0.375 0.3125 0.1875 0.265625q-0.1875 -0.046875 -0.296875 -0.109375l0.109375 -0.15625zm-0.59375 0.15625q0 -0.15625 0.15625 -0.125q0.171875 0.015625 0.328125 0.125l-0.109375 0.265625l-0.375 -0.203125l0 -0.0625z" fill-rule="nonzero"/><path fill="#000000" d="m826.1751 124.70462q3.921875 0 5.96875 2.046875q2.0625 2.046875 2.0625 6.921875l0 9.71875l-3.109375 0l0 -2.796875q-1.6875 3.234375 -6.25 3.234375q-3.03125 0 -4.765625 -1.375q-1.71875 -1.375 -1.71875 -3.65625q0 -1.921875 1.234375 -3.359375q1.25 -1.453125 3.34375 -2.21875q2.109375 -0.78125 4.625 -0.78125q2.28125 0 4.125 0.234375q-0.234375 -3.078125 -1.625 -4.328125q-1.375 -1.265625 -4.09375 -1.265625q-1.359375 0 -2.625 0.515625q-1.25 0.515625 -2.296875 1.515625l-1.40625 -1.84375q2.5625 -2.5625 6.53125 -2.5625zm-1.046875 16.921875q2.96875 0 4.6875 -1.734375q1.71875 -1.734375 1.875 -5.015625q-1.796875 -0.28125 -3.875 -0.28125q-3.046875 0 -4.8125 1.0q-1.75 1.0 -1.75 3.03125q0 3.0 3.875 3.0zm33.078125 -13.3125l0 -2.4375l16.4375 0l0 2.4375l-16.4375 0zm0 6.28125l0 -2.4375l16.4375 0l0 2.4375l-16.4375 0zm47.40619 8.796875l0 -21.484375l-5.046875 1.484375l-0.640625 -1.5625l6.53125 -3.390625l1.953125 0l0 24.953125l-2.796875 0zm20.796875 -25.078125q3.6875 0 5.703125 3.40625q2.015625 3.390625 2.015625 9.359375q0 6.109375 -2.0 9.4375q-2.0 3.3125 -5.71875 3.3125q-3.71875 0 -5.71875 -3.3125q-2.0 -3.328125 -2.0 -9.4375q0 -5.96875 2.015625 -9.359375q2.015625 -3.40625 5.703125 -3.40625zm0 2.4375q-2.28125 0 -3.5625 2.78125q-1.28125 2.78125 -1.28125 7.546875q0 2.59375 0.359375 4.59375l8.484375 -10.96875q-0.59375 -1.90625 -1.625 -2.921875q-1.015625 -1.03125 -2.375 -1.03125zm0 20.640625q2.28125 0 3.5625 -2.671875q1.28125 -2.6875 1.28125 -7.640625q0 -2.328125 -0.28125 -4.0l-8.484375 10.796875q1.28125 3.515625 3.921875 3.515625z" fill-rule="nonzero"/><path fill="#000000" fill-opacity="0.0" d="m810.4724 612.4803l131.87402 0l0 61.984253l-131.87402 0z" fill-rule="evenodd"/><path fill="#000000" d="m862.01105 662.6724l0 -28.640625l-6.71875 1.984375l-0.859375 -2.09375l8.703125 -4.53125l2.609375 0l0 33.28125l-3.734375 0zm27.726501 -33.4375q4.90625 0 7.59375 4.53125q2.703125 4.53125 2.703125 12.484375q0 8.15625 -2.671875 12.59375q-2.65625 4.421875 -7.625 4.421875q-4.953125 0 -7.625 -4.421875q-2.65625 -4.4375 -2.65625 -12.59375q0 -7.953125 2.6875 -12.484375q2.6875 -4.53125 7.59375 -4.53125zm0 3.25q-3.03125 0 -4.75 3.71875q-1.703125 3.703125 -1.703125 10.046875q0 3.46875 0.484375 6.125l11.3125 -14.609375q-0.8125 -2.5625 -2.171875 -3.921875q-1.359375 -1.359375 -3.171875 -1.359375zm0 27.515625q3.046875 0 4.75 -3.5625q1.703125 -3.578125 1.703125 -10.1875q0 -3.09375 -0.375 -5.34375l-11.296875 14.40625q1.703125 4.6875 5.21875 4.6875z" fill-rule="nonzero"/><path fill="#000000" fill-opacity="0.0" d="m1041.3544 559.0c12.69812 0 22.992065 -1.7155762 22.992065 -3.8318481l0 -76.808716c0 -2.1163025 10.293945 -3.8318787 22.992188 -3.8318787l0 0c-12.698242 0 -22.992188 -1.7155762 -22.992188 -3.8318787l0 -76.808685l0 0c0 -2.1163025 -10.293945 -3.8318787 -22.992065 -3.8318787z" fill-rule="evenodd"/><path fill="#000000" fill-opacity="0.0" d="m1041.3544 559.0c12.69812 0 22.992065 -1.7155762 22.992065 -3.8318481l0 -76.808716c0 -2.1163025 10.293945 -3.8318787 22.992188 -3.8318787l0 0c-12.698242 0 -22.992188 -1.7155762 -22.992188 -3.8318787l0 -76.808685l0 0c0 -2.1163025 -10.293945 -3.8318787 -22.992065 -3.8318787" fill-rule="evenodd"/><path stroke="#000000" stroke-width="4.0" stroke-linejoin="round" stroke-linecap="butt" d="m1041.3544 559.0c12.69812 0 22.992065 -1.7155762 22.992065 -3.8318481l0 -76.808716c0 -2.1163025 10.293945 -3.8318787 22.992188 -3.8318787l0 0c-12.698242 0 -22.992188 -1.7155762 -22.992188 -3.8318787l0 -76.808685l0 0c0 -2.1163025 -10.293945 -3.8318787 -22.992065 -3.8318787" fill-rule="evenodd"/><path fill="#000000" fill-opacity="0.0" d="m1069.3386 443.53543l240.72437 0l0 61.984253l-240.72437 0z" fill-rule="evenodd"/><path fill="#000000" d="m1170.4352 464.35443q-2.296875 1.703125 -5.03125 1.703125q-2.625 0 -3.71875 -1.59375q-1.09375 -1.609375 -1.09375 -5.203125q0 -0.59375 0.0625 -2.046875l0.3125 -5.203125l-3.5 0l0 -2.046875l3.640625 0l0.25 -4.21875l2.765625 -0.453125l0.34375 -0.03125l0.046875 0.203125q-0.25 0.34375 -0.375 0.59375q-0.125 0.234375 -0.15625 0.765625l-0.375 3.140625l5.265625 0l0 2.046875l-5.40625 0l-0.3125 5.375q-0.0625 1.390625 -0.0625 1.84375q0 2.765625 0.640625 3.75q0.640625 0.984375 2.0625 0.984375q1.03125 0 1.890625 -0.375q0.875 -0.375 1.984375 -1.21875l0.765625 1.984375zm17.296875 -14.390625q-0.21875 1.421875 -0.65625 2.8125q-0.421875 1.390625 -1.21875 3.671875l-3.953125 11.15625q-0.796875 2.21875 -2.078125 3.21875q-1.28125 1.015625 -3.046875 1.015625q-2.21875 0 -3.640625 -1.359375l1.078125 -1.6875l0.03125 -0.03125l0.03125 0.03125q0.546875 0.515625 1.171875 0.75q0.625 0.25 1.46875 0.25q1.28125 0 2.03125 -0.90625q0.765625 -0.890625 1.5 -2.96875l-6.484375 -15.953125l2.59375 0l4.921875 12.6875l2.078125 -6.375q0.765625 -2.390625 1.125 -3.65625q0.375 -1.265625 0.546875 -2.65625l2.5 0zm-13.109375 18.6875q0 0.0625 -0.0625 0.0625l-0.28125 -0.0625l0.140625 -0.171875l0.203125 0.140625l0 0.03125zm-0.375 0.109375q-0.171875 -0.1875 -0.09375 -0.15625q0.09375 0.046875 0.125 0.046875l-0.03125 0.109375zm17.53125 -18.796875l2.53125 0l0 3.125q0.515625 -1.734375 1.796875 -2.59375q1.28125 -0.875 3.015625 -0.875q1.8125 0 3.3125 0.921875q1.515625 0.921875 2.40625 2.765625q0.90625 1.828125 0.90625 4.453125q0 2.671875 -0.9375 4.59375q-0.9375 1.921875 -2.484375 2.90625q-1.53125 0.96875 -3.265625 0.96875q-1.421875 0 -2.671875 -0.65625q-1.25 -0.671875 -2.046875 -1.84375l0 7.859375l-2.5625 0l0 -21.625zm6.859375 14.046875q1.90625 0 3.203125 -1.4375q1.3125 -1.4375 1.3125 -4.703125q0 -2.9375 -1.15625 -4.515625q-1.140625 -1.578125 -3.25 -1.578125q-1.984375 0 -3.21875 1.640625q-1.21875 1.640625 -1.21875 5.015625q0.0625 2.734375 1.203125 4.15625q1.15625 1.421875 3.125 1.421875zm17.8125 2.140625q-3.53125 0 -5.625 -2.140625q-2.09375 -2.15625 -2.09375 -6.0625q0 -2.609375 0.96875 -4.5q0.96875 -1.890625 2.609375 -2.875q1.65625 -0.984375 3.6875 -0.984375q2.890625 0 4.671875 1.90625q1.78125 1.90625 1.78125 5.609375q0 0.390625 -0.0625 1.140625l-11.265625 0q0.140625 2.921875 1.625 4.421875q1.484375 1.484375 3.78125 1.484375q2.484375 0 4.078125 -1.78125l1.390625 1.359375q-2.0 2.421875 -5.546875 2.421875zm3.46875 -9.84375q0 -2.21875 -1.125 -3.515625q-1.125 -1.296875 -2.96875 -1.296875q-1.734375 0 -3.015625 1.21875q-1.28125 1.203125 -1.59375 3.59375l8.703125 0z" fill-rule="nonzero"/><path fill="#000000" d="m1097.8647 507.80756l0 -2.015625l4.046875 0l0 -11.8125l-3.84375 0l0 -2.015625l6.34375 0l0 13.828125l3.703125 0l0 2.015625l-10.25 0zm5.15625 -19.171875q-0.71875 0 -1.25 -0.515625q-0.515625 -0.515625 -0.515625 -1.25q0 -0.75 0.5 -1.265625q0.515625 -0.53125 1.265625 -0.53125q0.734375 0 1.265625 0.546875q0.546875 0.53125 0.546875 1.25q0 0.734375 -0.546875 1.25q-0.53125 0.515625 -1.265625 0.515625zm11.203125 3.328125l2.421875 0l0 2.8125q0.9375 -1.453125 2.359375 -2.3125q1.421875 -0.875 3.015625 -0.875q2.109375 0 3.375 1.609375q1.265625 1.609375 1.265625 5.015625l0 9.59375l-2.421875 0l0 -9.53125q0 -2.359375 -0.796875 -3.421875q-0.796875 -1.078125 -2.125 -1.078125q-1.0625 0 -2.15625 0.625q-1.09375 0.625 -1.8125 1.75q-0.703125 1.125 -0.703125 2.546875l0 9.109375l-2.421875 0l0 -15.84375zm29.90625 -3.390625l-0.03125 0.03125q-0.96875 -1.203125 -1.65625 -1.625q-0.671875 -0.421875 -1.890625 -0.421875q-1.625 0 -2.5625 0.984375q-0.9375 0.96875 -0.9375 3.109375l0 1.3125l5.203125 0l0 1.984375l-5.203125 0l0 13.859375l-2.390625 0l0 -13.859375l-3.421875 0l0 -1.984375l3.421875 0l0 -1.3125q0 -3.046875 1.578125 -4.5625q1.578125 -1.53125 4.25 -1.53125q1.53125 0 2.828125 0.5625q1.296875 0.546875 2.125 1.609375l-1.3125 1.84375zm-0.421875 0.109375q0 -0.109375 0.140625 -0.03125q0.140625 0.0625 0.171875 0.0625l-0.09375 0.140625l-0.21875 -0.140625l0 -0.03125zm0.390625 -0.078125q0.203125 0.28125 0.078125 0.203125q-0.125 -0.09375 -0.15625 -0.09375l0.078125 -0.109375zm10.953247 19.484375q-2.125 0 -3.796875 -1.03125q-1.65625 -1.046875 -2.59375 -2.921875q-0.921875 -1.875 -0.921875 -4.265625q0 -2.390625 0.921875 -4.265625q0.9375 -1.875 2.59375 -2.921875q1.671875 -1.0625 3.796875 -1.0625q2.109375 0 3.765625 1.0625q1.671875 1.046875 2.59375 2.921875q0.9375 1.875 0.9375 4.265625q0 2.390625 -0.9375 4.265625q-0.921875 1.875 -2.59375 2.921875q-1.65625 1.03125 -3.765625 1.03125zm0 -2.078125q1.34375 0 2.390625 -0.796875q1.0625 -0.796875 1.671875 -2.203125q0.609375 -1.40625 0.609375 -3.171875q0 -2.703125 -1.328125 -4.421875q-1.3125 -1.71875 -3.34375 -1.71875q-2.046875 0 -3.375 1.71875q-1.3125 1.71875 -1.3125 4.421875q0 1.765625 0.609375 3.171875q0.609375 1.40625 1.65625 2.203125q1.0625 0.796875 2.421875 0.796875zm23.421875 -10.75l0 0.03125q-1.0 -0.9375 -1.6875 -1.25q-0.671875 -0.3125 -1.578125 -0.3125q-1.234375 0 -2.34375 0.625q-1.109375 0.625 -1.8125 1.890625q-0.6875 1.265625 -0.6875 3.171875l0 8.421875l-2.53125 0l0 -15.875l2.59375 0l-0.0625 2.921875q0.65625 -1.5625 2.015625 -2.421875q1.375 -0.875 3.0 -0.875q2.53125 0 4.203125 1.734375l-1.109375 1.9375zm0 0.03125q0.234375 0.21875 0.109375 0.1875q-0.109375 -0.046875 -0.1875 -0.078125l0.078125 -0.109375zm-0.390625 0.109375q0 -0.109375 0.109375 -0.078125q0.109375 0.015625 0.203125 0.078125l-0.0625 0.171875l-0.25 -0.140625l0 -0.03125zm4.265625 -3.4375l2.296875 0l0 1.5625q0.546875 -0.859375 1.40625 -1.390625q0.875 -0.546875 1.8125 -0.546875q1.03125 0 1.8125 0.65625q0.78125 0.65625 1.0 1.671875q0.4375 -1.046875 1.40625 -1.6875q0.984375 -0.640625 2.15625 -0.640625q1.5625 0 2.34375 1.125q0.78125 1.125 0.703125 2.921875l0 12.171875l-2.28125 0l0 -11.234375q0 -1.96875 -0.390625 -2.546875q-0.375 -0.59375 -1.109375 -0.59375q-0.609375 0 -1.203125 0.59375q-0.59375 0.578125 -0.953125 1.5q-0.359375 0.90625 -0.359375 1.8125l0 10.46875l-2.328125 0l0 -11.015625q0 -1.953125 -0.375 -2.625q-0.359375 -0.671875 -1.359375 -0.671875q-0.515625 0 -1.0625 0.46875q-0.53125 0.46875 -0.875 1.328125q-0.34375 0.84375 -0.34375 1.953125l0 10.5625l-2.296875 0l0 -15.84375zm24.46875 -0.34375q3.40625 0 5.1875 1.765625q1.78125 1.765625 1.78125 6.0l0 8.421875l-2.703125 0l0 -2.421875q-1.453125 2.796875 -5.40625 2.796875q-2.640625 0 -4.125 -1.1875q-1.484375 -1.203125 -1.484375 -3.171875q0 -1.671875 1.0625 -2.90625q1.078125 -1.25 2.890625 -1.921875q1.828125 -0.6875 4.015625 -0.6875q1.96875 0 3.5625 0.21875q-0.203125 -2.671875 -1.40625 -3.765625q-1.1875 -1.09375 -3.546875 -1.09375q-1.171875 0 -2.265625 0.453125q-1.09375 0.453125 -2.0 1.3125l-1.203125 -1.59375q2.21875 -2.21875 5.640625 -2.21875zm-0.890625 14.65625q2.5625 0 4.046875 -1.5q1.484375 -1.515625 1.625 -4.34375q-1.5625 -0.25 -3.359375 -0.25q-2.625 0 -4.15625 0.875q-1.53125 0.859375 -1.53125 2.625q0 2.59375 3.375 2.59375zm25.15625 0.078125q-2.296875 1.703125 -5.03125 1.703125q-2.625 0 -3.71875 -1.59375q-1.09375 -1.609375 -1.09375 -5.203125q0 -0.59375 0.0625 -2.046875l0.3125 -5.203125l-3.5 0l0 -2.046875l3.640625 0l0.25 -4.21875l2.765625 -0.453125l0.34375 -0.03125l0.046875 0.203125q-0.25 0.34375 -0.375 0.59375q-0.125 0.234375 -0.15625 0.765625l-0.375 3.140625l5.265625 0l0 2.046875l-5.40625 0l-0.3125 5.375q-0.0625 1.390625 -0.0625 1.84375q0 2.765625 0.640625 3.75q0.640625 0.984375 2.0625 0.984375q1.03125 0 1.890625 -0.375q0.875 -0.375 1.984375 -1.21875l0.765625 1.984375zm5.40625 1.453125l0 -2.015625l4.046875 0l0 -11.8125l-3.84375 0l0 -2.015625l6.34375 0l0 13.828125l3.703125 0l0 2.015625l-10.25 0zm5.15625 -19.171875q-0.71875 0 -1.25 -0.515625q-0.515625 -0.515625 -0.515625 -1.25q0 -0.75 0.5 -1.265625q0.515625 -0.53125 1.265625 -0.53125q0.734375 0 1.265625 0.546875q0.546875 0.53125 0.546875 1.25q0 0.734375 -0.546875 1.25q-0.53125 0.515625 -1.265625 0.515625zm17.375 19.453125q-2.125 0 -3.796875 -1.03125q-1.65625 -1.046875 -2.59375 -2.921875q-0.921875 -1.875 -0.921875 -4.265625q0 -2.390625 0.921875 -4.265625q0.9375 -1.875 2.59375 -2.921875q1.671875 -1.0625 3.796875 -1.0625q2.109375 0 3.765625 1.0625q1.671875 1.046875 2.59375 2.921875q0.9375 1.875 0.9375 4.265625q0 2.390625 -0.9375 4.265625q-0.921875 1.875 -2.59375 2.921875q-1.65625 1.03125 -3.765625 1.03125zm0 -2.078125q1.34375 0 2.390625 -0.796875q1.0625 -0.796875 1.671875 -2.203125q0.609375 -1.40625 0.609375 -3.171875q0 -2.703125 -1.328125 -4.421875q-1.3125 -1.71875 -3.34375 -1.71875q-2.046875 0 -3.375 1.71875q-1.3125 1.71875 -1.3125 4.421875q0 1.765625 0.609375 3.171875q0.609375 1.40625 1.65625 2.203125q1.0625 0.796875 2.421875 0.796875zm11.15625 -14.046875l2.421875 0l0 2.8125q0.9375 -1.453125 2.359375 -2.3125q1.421875 -0.875 3.015625 -0.875q2.109375 0 3.375 1.609375q1.265625 1.609375 1.265625 5.015625l0 9.59375l-2.421875 0l0 -9.53125q0 -2.359375 -0.796875 -3.421875q-0.796875 -1.078125 -2.125 -1.078125q-1.0625 0 -2.15625 0.625q-1.09375 0.625 -1.8125 1.75q-0.703125 1.125 -0.703125 2.546875l0 9.109375l-2.421875 0l0 -15.84375z" fill-rule="nonzero"/><path fill="#000000" fill-opacity="0.0" d="m703.65356 727.9449c-12.698242 0 -22.992126 -1.7155762 -22.992126 -3.8318481l0 -161.28119c0 -2.116272 -10.293945 -3.8318481 -22.992126 -3.8318481l0 0c12.698181 0 22.992126 -1.7155762 22.992126 -3.8318481l0 -161.28116l0 0c0 -2.1163025 10.293884 -3.8318787 22.992126 -3.8318787z" fill-rule="evenodd"/><path fill="#000000" fill-opacity="0.0" d="m703.65356 727.9449c-12.698242 0 -22.992126 -1.7155762 -22.992126 -3.8318481l0 -161.28119c0 -2.116272 -10.293945 -3.8318481 -22.992126 -3.8318481l0 0c12.698181 0 22.992126 -1.7155762 22.992126 -3.8318481l0 -161.28116l0 0c0 -2.1163025 10.293884 -3.8318787 22.992126 -3.8318787" fill-rule="evenodd"/><path stroke="#000000" stroke-width="4.0" stroke-linejoin="round" stroke-linecap="butt" d="m703.65356 727.9449c-12.698242 0 -22.992126 -1.7155762 -22.992126 -3.8318481l0 -161.28119c0 -2.116272 -10.293945 -3.8318481 -22.992126 -3.8318481l0 0c12.698181 0 22.992126 -1.7155762 22.992126 -3.8318481l0 -161.28116l0 0c0 -2.1163025 10.293884 -3.8318787 22.992126 -3.8318787" fill-rule="evenodd"/><path fill="#000000" fill-opacity="0.0" d="m491.2362 530.2441l168.66144 0l0 61.984253l-168.66144 0z" fill-rule="evenodd"/><path fill="#000000" d="m508.30124 551.9225l6.9219055 0q3.4375 0 5.125 1.703125q1.703125 1.703125 1.703125 4.40625q0 2.65625 -1.671875 4.3125q-1.65625 1.640625 -4.96875 1.640625l-4.6094055 0l0 9.53125l-2.5 0l0 -21.59375zm6.8281555 9.921875q2.28125 0 3.359375 -0.984375q1.078125 -1.0 1.078125 -2.765625q0 -1.703125 -1.109375 -2.78125q-1.109375 -1.09375 -3.296875 -1.09375l-4.3594055 0l0 7.625l4.3281555 0zm23.8125 -4.171875q-0.21875 1.421875 -0.65625 2.8125q-0.421875 1.390625 -1.21875 3.671875l-3.953125 11.15625q-0.796875 2.21875 -2.078125 3.21875q-1.28125 1.015625 -3.046875 1.015625q-2.21875 0 -3.640625 -1.359375l1.078125 -1.6875l0.03125 -0.03125l0.03125 0.03125q0.546875 0.515625 1.171875 0.75q0.625 0.25 1.46875 0.25q1.28125 0 2.03125 -0.90625q0.765625 -0.890625 1.5 -2.96875l-6.484375 -15.953125l2.59375 0l4.921875 12.6875l2.078125 -6.375q0.765625 -2.390625 1.125 -3.65625q0.375 -1.265625 0.546875 -2.65625l2.5 0zm-13.109375 18.6875q0 0.0625 -0.0625 0.0625l-0.28125 -0.0625l0.140625 -0.171875l0.203125 0.140625l0 0.03125zm-0.375 0.109375q-0.171875 -0.1875 -0.09375 -0.15625q0.09375 0.046875 0.125 0.046875l-0.03125 0.109375zm24.125 -2.578125q-3.71875 0 -5.734375 -2.875q-2.0 -2.875 -2.0 -8.171875q0 -5.171875 2.015625 -8.109375q2.03125 -2.953125 5.71875 -2.953125q3.671875 0 5.6875 2.953125q2.03125 2.9375 2.03125 8.109375q0 5.296875 -2.015625 8.171875q-2.0 2.875 -5.703125 2.875zm0 -2.109375q2.484375 0 3.84375 -2.3125q1.375 -2.328125 1.375 -6.625q0 -4.125 -1.390625 -6.53125q-1.375 -2.40625 -3.828125 -2.40625q-2.46875 0 -3.859375 2.40625q-1.375 2.40625 -1.375 6.53125q0 4.296875 1.359375 6.625q1.375 2.3125 3.875 2.3125zm17.875 2.109375q-1.421875 0 -2.640625 -0.640625q-1.203125 -0.640625 -2.03125 -1.8125l-0.875 2.078125l-1.59375 0l0 -23.046875l2.84375 0l0 0.25q-0.203125 0.203125 -0.265625 0.453125q-0.046875 0.234375 -0.046875 0.828125l0 8.109375q0.765625 -1.28125 2.0625 -2.046875q1.296875 -0.765625 2.65625 -0.765625q2.96875 0 4.734375 2.078125q1.78125 2.078125 1.78125 6.0625q0 2.703125 -0.9375 4.625q-0.9375 1.921875 -2.46875 2.875q-1.515625 0.953125 -3.21875 0.953125zm-0.3125 -2.21875q1.875 0 3.109375 -1.46875q1.25 -1.46875 1.25 -4.625q0 -3.046875 -1.15625 -4.59375q-1.15625 -1.546875 -3.140625 -1.546875q-1.9375 0 -3.15625 1.734375q-1.203125 1.734375 -1.203125 4.484375q0 6.015625 4.296875 6.015625zm21.203186 -14.0l0 15.078125q0 3.4375 -1.703125 5.109375q-1.6875 1.6875 -4.359375 1.6875q-1.515625 0 -2.84375 -0.5625q-1.3125 -0.546875 -2.21875 -1.65625l1.390625 -1.875l0.03125 -0.03125l0.046875 0.03125q0.6875 0.90625 1.53125 1.421875q0.859375 0.515625 2.03125 0.515625q1.625 0 2.59375 -1.109375q0.984375 -1.109375 0.984375 -3.390625l0 -13.171875l-5.90625 0l0 -2.046875l8.421875 0zm-9.3125 17.6875q0 0.09375 -0.109375 0.0625q-0.109375 -0.03125 -0.203125 -0.109375l0.09375 -0.140625l0.21875 0.140625l0 0.046875zm-0.390625 0.0625q-0.09375 -0.171875 -0.0625 -0.171875q0.03125 0 0.140625 0.0625l-0.078125 0.109375zm8.25 -21.078125q-0.71875 0 -1.25 -0.515625q-0.515625 -0.515625 -0.515625 -1.25q0 -0.75 0.5 -1.265625q0.515625 -0.53125 1.265625 -0.53125q0.734375 0 1.265625 0.546875q0.546875 0.53125 0.546875 1.25q0 0.734375 -0.546875 1.25q-0.53125 0.515625 -1.265625 0.515625zm15.421875 19.515625q-3.53125 0 -5.625 -2.140625q-2.09375 -2.15625 -2.09375 -6.0625q0 -2.609375 0.96875 -4.5q0.96875 -1.890625 2.609375 -2.875q1.65625 -0.984375 3.6875 -0.984375q2.890625 0 4.671875 1.90625q1.78125 1.90625 1.78125 5.609375q0 0.390625 -0.0625 1.140625l-11.265625 0q0.140625 2.921875 1.625 4.421875q1.484375 1.484375 3.78125 1.484375q2.484375 0 4.078125 -1.78125l1.390625 1.359375q-2.0 2.421875 -5.546875 2.421875zm3.46875 -9.84375q0 -2.21875 -1.125 -3.515625q-1.125 -1.296875 -2.96875 -1.296875q-1.734375 0 -3.015625 1.21875q-1.28125 1.203125 -1.59375 3.59375l8.703125 0zm14.453125 7.625q2.390625 0 4.125 -1.9375l1.453125 1.703125q-2.328125 2.484375 -5.71875 2.484375q-2.28125 0 -4.09375 -1.0625q-1.796875 -1.078125 -2.828125 -2.96875q-1.015625 -1.890625 -1.015625 -4.25q0 -2.359375 1.015625 -4.21875q1.03125 -1.875 2.828125 -2.953125q1.8125 -1.078125 4.0625 -1.078125q1.90625 0 3.46875 0.78125q1.5625 0.78125 2.53125 2.171875l-1.5625 1.53125l-0.03125 0.03125q-1.015625 -1.328125 -2.078125 -1.859375q-1.046875 -0.53125 -2.609375 -0.53125q-1.34375 0 -2.515625 0.75q-1.15625 0.734375 -1.859375 2.09375q-0.6875 1.34375 -0.6875 3.109375q0 1.765625 0.703125 3.1875q0.71875 1.421875 1.984375 2.21875q1.265625 0.796875 2.828125 0.796875zm3.84375 -9.734375q0 -0.203125 0.3125 0.03125l-0.140625 0.140625l-0.171875 -0.171875zm0.390625 -0.03125q0.171875 0.234375 0.078125 0.171875q-0.078125 -0.078125 -0.15625 -0.109375l0.078125 -0.0625zm18.46875 10.1875q-2.296875 1.703125 -5.03125 1.703125q-2.625 0 -3.71875 -1.59375q-1.09375 -1.609375 -1.09375 -5.203125q0 -0.59375 0.0625 -2.046875l0.3125 -5.203125l-3.5 0l0 -2.046875l3.640625 0l0.25 -4.21875l2.765625 -0.453125l0.34375 -0.03125l0.046875 0.203125q-0.25 0.34375 -0.375 0.59375q-0.125 0.234375 -0.15625 0.765625l-0.375 3.140625l5.265625 0l0 2.046875l-5.40625 0l-0.3125 5.375q-0.0625 1.390625 -0.0625 1.84375q0 2.765625 0.640625 3.75q0.640625 0.984375 2.0625 0.984375q1.03125 0 1.890625 -0.375q0.875 -0.375 1.984375 -1.21875l0.765625 1.984375z" fill-rule="nonzero"/></g></svg>